<?xml version="1.0" encoding="utf-8"?>
<!-- Generator: Adobe Illustrator 16.0.0, SVG Export Plug-In . SVG Version: 6.00 Build 0)  -->
<!DOCTYPE svg PUBLIC "-//W3C//DTD SVG 1.1//EN" "http://www.w3.org/Graphics/SVG/1.1/DTD/svg11.dtd">
<svg version="1.1" id="Layer_1" xmlns="http://www.w3.org/2000/svg" xmlns:xlink="http://www.w3.org/1999/xlink" x="0px" y="0px"
	 width="61.887px" height="44.932px" viewBox="0 0 61.887 44.932" enable-background="new 0 0 61.887 44.932" xml:space="preserve">
<path fill-rule="evenodd" clip-rule="evenodd" fill="#DCC125" d="M28.758,0.002c0.322,0.782,0.769,1.734,0.82,2.538
	c-1.123-0.171-1.477-0.904-2.401-0.906l0.032,4.223c1.251,0.116,1.237-0.926,2.78-0.905l-0.025,1.162
	c-0.48,0.379-0.844,0.204-1.574,0.851c-1.921,1.705-1.146,3.423-0.656,4.918c-1.274,0.104-0.506-0.196-1.432-1.002l-1.149-0.09
	c-0.875-0.926-0.647-0.859-1.903-0.452c-1.924-0.982-0.399-0.741-2.304-0.113c-0.882-0.427-0.815-0.641-1.698,0.037
	c-0.599,0.459-0.811,0.139-1.752,0.148l-0.529,0.946c-1.425,0.055-0.75-0.664-2.418-0.135c-0.133,0.042-2.075-0.225-2.388-0.282
	c-1.523-0.275-0.598,0.365-2.319-0.337c-0.998-0.407-1.181,0.129-1.694,0.729c-2.366-0.419-1.23-0.562-2.484,1.092
	c-2.553-0.173-1.836,0.089-2.288,2.065c-0.868,0.111-1.24-0.286-2.038,0.626c-0.66,0.754-0.186,1.595-0.142,2.435
	c-0.957,1.007-1.793,0.999-0.627,2.721c0.575,0.85,0.14,1.123,0.261,2.024c0.098,0.722,0.41,0.631,0.828,1.16
	c-0.033,2.634,0.278,1.106,1.528,2.299c-0.098,0.454-3.04,2.659,0.4,2.526l0.594-0.745c1.534,0.389,2.761,1.827,3.207,3.375
	c-0.024,0.334-1.993,2.278,1.484,2.87c0.902,1.392,0.694,0.926,1.963,1.837l-0.658,0.807l0.256,1.603
	c-0.628,0.484-0.09,0.059-0.531,0.824l2.056,1.308c-0.494,0.89-0.899,0.235-1.156,1.725c0.984,1.565,2.36,1.477,4.11,1.888
	c6.009,1.408,20.765,1.41,27.536,0.664c2.278-0.251,8.313-0.312,9.269-2.776c-0.414-0.811-0.758-1.026-1.495-1.427l2.176-1.374
	c-1.046-1.733,0.823-1.658-1.131-3.276c0.933-0.589,1.283-0.887,1.464-2.024c0.743-0.074,3.423,0.214,1.901-2.798
	c0.362-0.664,1.874-2.455,2.582-2.701c0.969,0.176,0.757,0.614,2.328,0.331c0.949-1.236-0.409-1.61-0.807-2.521
	c0.677-0.76,0.825-0.254,1.216-0.581c0.54-0.452,0.119-1.054,0.299-1.657c0.187-0.628,0.719-0.45,0.892-1.344
	c0.149-0.769-0.116-0.858-0.138-1.491c1.534-2.297,0.831-1.543-0.295-3.229c0.014-2.473,0.69-2.453-2.153-3.092
	c-0.868-2.297,0.348-1.758-2.355-1.991c-1.279-1.82-0.283-1.191-2.462-1.108c-1.816-1.199-0.754-0.792-2.696-0.21
	c-1.532-0.587-0.498-0.131-1.696-0.043c-0.468,0.035-0.405-0.184-0.996-0.047c-0.287,0.067-0.436,0.219-0.854,0.33
	c-1.942-0.704-0.892-0.08-2.668-0.007l-0.499-1.008c-0.899-0.258-0.625,0.039-1.477,0.036c-1.165-0.785-0.609-1.066-1.996-0.223
	c-1.158-0.412-0.929-1.127-2.367,0.088l-0.951-0.376c-1.219,1.071-0.653,0.816-2.357,1.033l-0.855,0.779
	c0.063-1.511,1.102-1.566,0.035-3.609c-0.649-1.241-1.298-1.339-2.427-2.026l0.215-1.088c1.677,0.227,1.395,0.826,2.245,0.972
	c0.421-0.62,0.317-3.522,0.109-4.31c-0.883,0.06-0.402,0.187-1.037,0.586c-0.348,0.219-0.743,0.229-1.13,0.449
	c0.003-1.169,0.504-1.538,0.764-2.557c-0.946-0.241-1.21,0.346-2.307,0.272C30.012,0.366,29.395-0.033,28.758,0.002 M30.362,8.181
	c2.155-1.183,3.32,2.225,1.126,3.044C29.95,11.798,28.25,9.34,30.362,8.181 M13.6,17.615c-0.289,0.804-0.871,0.998-0.312,1.979
	c0.407,0.714,0.919,0.948,1.391,1.495c0.064,2.539,0.204,1.516,1.915,2.386c-0.4,0.538-0.452,0.246-1.069,0.563
	c0.092,1.289,1.525,1.988,1.59,2.696c-0.771-0.069-0.969-0.827-1.881-0.743c-0.362,1.216,0.39,1.734-0.898,2.549
	c-0.497-0.107-0.519-0.253-0.953-0.329c-0.458-0.081-0.626,0.032-1.201-0.083c-0.407-0.858,0.15-0.8-0.452-1.71
	c-0.89-0.225-1.457,0.852-2.125,1.418l-0.307-2.027c-1.226,0.041-1.225,1.245-2.32,1.088c-0.442-1.034-0.116-1.139-0.984-2.253
	c-2.529-3.248-1.902-6.099,0.899-8.866c1.776-1.754,5.76-2.5,7.255-1.307c-0.253,0.669-0.807,0.587-1.028,1.335
	C12.917,16.498,13.399,17,13.6,17.615 M47.659,14.308c3.625-0.637,7.051,0.147,8.955,3.576c0.891,1.604,1.087,3.473,0.23,5.111
	l-2.182,3.645l-1.639-0.592l-0.797,1.537l-2.245-1.155c-0.658,1.133,0.099,1.876-2.061,2.429c-1.723-1.172-0.949-2.001-1.412-3.185
	l-1.682,0.971c0.113-0.963,1.036-1.822,1.461-2.672l-1.104-0.291c0.474-0.733,0.845-0.265,1.457-0.749
	c0.915-0.721,0.454-1.079,0.671-2.102c1.403-1.428,1.843-1.362,0.797-3.385C49.396,15.595,48.426,15.533,47.659,14.308
	 M31.345,16.695c-0.773-0.027-1.306-0.136-1.575-0.926c-0.266-0.783,0.194-0.938,0.554-1.552l1.026-0.143
	C32.349,14.92,32.481,15.69,31.345,16.695 M35.46,29.468l1.058-1.518c-0.395-0.692-0.653-0.765-1.227-1.186
	c-0.715-0.524-0.426-0.863-0.907-1.561c-1.069,0.114-0.631,0.75-1.485,0.86c-0.007-0.381,0.804-2.008,0.987-2.664l-0.709-0.238
	l1.322-1.178c-0.923-1.943-1.061-1.607-0.617-3.895c0.177-0.914,0.299-0.858,0.649-1.614c0.45-0.971,0.141-1.078,0.329-2.041
	c1.603-1.068,3.442-1.383,5.33-1.383c1.199,0.64,2.216,1.101,2.938,2.307c0.47,0.785,0.543,0.96,0.819,1.84
	c0.377,1.205-0.092,1.098-0.018,2.273l-0.151,0.391c-1.295,3.027-1.103,1.534-1.541,2.459c-0.257,0.542,0.062,0.442-0.177,0.925
	l-1.411-0.144c-0.377,1.532,0.017,2.526,1.021,3.518c-0.78-0.263-1.753-1.561-2.055-1.518c-0.662,0.332-0.163-0.278-0.496,0.686
	c-0.362,1.049-0.55,0.912-1.554,2.167c0.383,0.808,0.996,0.931,1.628,1.477l-0.18,1.261c0.987,0.021,0.826-0.261,1.645,0.105
	c0.462,2.195-0.747,1.881-2.413,1.818l-0.626-0.859c0.559-1.753,1.71-0.98-0.106-3.046C35.109,28.837,36.427,28.918,35.46,29.468
	 M25.681,28.516l-1.532,0.05c0.369-0.798,0.22-0.134,0.539-0.81c-2.433-2.048-1.182-1.113-1.67-2.744
	c-1.519-0.013-1.569,1.113-2.426,1.438c-0.166-1.31,0.974-1.555,0.537-3.161l-1.296-0.073l-1.781-2.882
	c-1.07-2.858,0.925-7.211,4.59-7.096c1.058,0.033,1.129,0.515,1.832-0.124c0.566,0.937,1.516,0.727,2.504,1.431
	c0.03,2.645,0.358,1.651,0.971,3.762c0.558,1.926-0.294,2.185-0.588,3.753l1.223,0.953l-0.505,0.765
	c0.228,0.892,0.874,1.745,0.954,2.491l-1.46-1.321c-0.568,0.749-0.318,1.224-0.695,1.776c-0.191,0.28-0.971,0.73-1.364,1.228
	L25.681,28.516z M30.383,21.004c-0.21-0.969-0.124-0.829,0.547-1.302c0.321,0.219,0.609,0.375,0.507,0.835
	C31.285,21.225,30.999,21.025,30.383,21.004 M25.681,28.516c0.545,0.147,0.147-0.027,0.572,0.318
	c0.125,0.102,0.531,0.438,0.615,0.52c0.626,0.612,0.315,0.954,0.67,1.57c0.629-0.237,0.827-0.675,1.825-0.496
	c0.581,1.038,0.313,1.945-0.92,2.195c-1.422,0.287-2.059,0.118-2.664-1.067C26.142,30.408,26.973,29.488,25.681,28.516
	 M24.375,31.745c-1.017,1.985-4.294,1.223-2.774-1.073l1.429,0.003c0.269-0.925-0.214-0.855,0.393-1.581
	c0.3,0.463-0.194,0.345,0.161,1.295C23.921,31.292,24.154,30.94,24.375,31.745 M46.551,32.471c-1.043,1.236-1.772,0.993-2.842,0.091
	c-0.167-2.546,1.367-1.034,2.03-0.849l0.212-1.536l1.953-1.179l1.531,1.714c-0.101,1.142-0.582,1.063-0.342,2.213
	c0.814-0.171,0.809-0.989,1.889-0.399l0.043,1.305c-0.673,0.237-1.128,0.118-1.859,0.134c-0.302-0.299-0.497-0.39-0.811-0.731
	c-0.023-1.453,0.381-1.061,0.482-2.301l-0.557-0.814l-1.458-0.009C46.066,31.154,46.587,31.403,46.551,32.471 M13.421,30.396
	l0.874-1.188c2.075,1.439,1.909,1.067,2.223,2.782c0.913-0.078,0.036-0.512,1.483-0.655c0.538,1.388,0.303,1.405-0.986,2.133
	c-2.063-0.549-1.397-0.849-1.422-2.551l-0.574-0.621L13.421,30.396z M13.421,30.396l-0.214,1.487l0.644,0.518
	c-0.135,0.685-0.218,0.998-0.663,1.518c-1.087,0.189-2.261-0.118-1.936-1.351c1.388-0.428,0.481,0.259,1.71,0.207
	c-0.005-1.881,0.163-1.458-0.486-2.109L13.421,30.396z M35.46,29.468c0.019,1.354-0.026,0.809,0.558,1.867
	c-0.878,1.893-3.826,1.788-3.638-0.792c1.36-0.247,0.91-0.094,2.193,0.427C35.011,30.185,34.613,30.044,35.46,29.468 M25.898,33.588
	c-0.516,0.3-0.342,0.261-1.065,0.12C25.313,33.342,25.281,33.168,25.898,33.588 M31.709,33.733l-1.708,0.043
	C30.492,33.238,31.303,32.82,31.709,33.733 M36.201,33.612c1.032-0.243,0.607-0.426,1.359,0.313
	C36.815,34.001,36.792,34,36.201,33.612 M20.802,34.149l-1.3,0.029C20.094,33.66,20.136,33.577,20.802,34.149 M42.025,33.615
	l0.612,0.608c-0.964,0.216-0.721,0.174-1.505-0.114L42.025,33.615z M14.196,34.952c0.475-0.611,0.875-0.843,1.496-0.415
	L14.196,34.952z M46.566,34.818c0.627-0.327,0.299-0.338,0.943-0.062C47.09,34.977,47.177,35.002,46.566,34.818 M33.344,35.209
	c1.439,0.02,4.63,0.001,5.869,0.328c-0.051,0.659-0.313,0.972-0.363,1.467c-0.079,0.78,0.233,0.723,0.177,1.664l-5.596-0.164
	c0.724-0.681,1.794-1.069,2.377-1.717C35.057,35.859,33.85,35.959,33.344,35.209 M22.438,35.387
	c2.152,0.037,4.441-0.405,6.628-0.118c-0.191,0.373-1.215,0.894-2.066,1.525c0.307,0.574,1.565,0.93,2.255,1.698
	c-1.073,0.035-2.156,0.018-3.234,0.015c-1.04-0.004-1.796,0.187-2.95,0.192C23.166,35.084,23.268,37.582,22.438,35.387
	 M18.353,39.075l-4.015,0.577c0.572-0.842,0.895-1.544,1.469-2.214c-0.594-0.646-1.041-0.528-1.739-0.946
	c0.498-0.282,3.494-0.674,4.206-0.672C18.188,36.986,17.48,36.743,18.353,39.075 M46.16,37.115c0.177,1.067,0.947,1.066,1.171,2.341
	c-0.897,0.016-1.08,0.007-1.911-0.213c-0.842-0.222-1.223-0.14-2.09-0.181c0.878-1.682,0.407-1.445,0.41-3.05
	c0.693-0.082,3.225,0.254,3.841,0.502L46.16,37.115z M29.594,36.788l1.323-0.919l2.087,0.851c-0.552,0.798-0.916,0.681-1.719,1.238
	C30.65,37.577,30.027,37.404,29.594,36.788 M19.993,36.2c0.847-0.067,0.894,0.02,1.63,0.274C22.84,40.445,17.359,38.618,19.993,36.2
	 M41.25,38.669c-2.614-1.449,0.134-2.721,0.135-2.722l1.138,0.684C42.666,37.468,42.945,38.2,41.25,38.669 M13.043,39.047
	c-0.9-0.093-0.921-0.168-1.204-0.977l0.626-0.717c0.836,0.153,0.784,0.147,1.423,0.599L13.043,39.047z M48.011,37.794
	c0.867-0.362,0.889-0.501,1.817-0.599c0.51,0.689,0.599,0.458,0.651,1.329l-1.446,0.777L48.011,37.794z M12.652,41.87
	c0.529-0.685-0.059-0.245,0.783-0.503c1.847-0.567,8.412-1.292,9.948-1.269c0.994,0.015,1.668-0.008,2.642-0.14
	c3.234-0.436,21.459,0.193,23.636,1.725c-1.688,1.765-17.232,1.903-21,1.916c-1.025,0.004-1.564-0.138-2.443-0.19
	c-0.755-0.044-1.682,0.006-2.455,0.008c-0.916,0.001-1.481-0.16-2.45-0.188C18.43,43.145,15.478,42.539,12.652,41.87"/>
</svg>
