<?xml version="1.0" encoding="utf-8"?>
<!-- Generator: Adobe Illustrator 16.0.0, SVG Export Plug-In . SVG Version: 6.00 Build 0)  -->
<!DOCTYPE svg PUBLIC "-//W3C//DTD SVG 1.1//EN" "http://www.w3.org/Graphics/SVG/1.1/DTD/svg11.dtd">
<svg version="1.1" id="Layer_1" xmlns="http://www.w3.org/2000/svg" xmlns:xlink="http://www.w3.org/1999/xlink" x="0px" y="0px"
	 width="61px" height="71.549px" viewBox="0 0 61 71.549" enable-background="new 0 0 61 71.549" xml:space="preserve">
<path fill-rule="evenodd" clip-rule="evenodd" fill="#DCC125" d="M34.888,14.376c-1.8,0.238-2.669-0.551-2.423-2.32
	c1.803-1.701,2.03,0.451,3.589,0.682c0.479-1.08,0.381-1.672-0.191-2.532c0.648-0.402,0.676,0.081,1.573-0.684
	c2.715-2.316-0.669-2.774-1.219-3.075c0.327-1.177,0.357-1.1-0.499-1.963c-2.594,0.438-3.263,3.105-4.278,2.311
	c0.067-0.648,1.314-0.853,2.018-2.253c1.105-2.198,0.239-2.182-1.059-2.271c-0.368-0.971-0.624-2.149-1.882-2.262
	c-1.496-0.134-1.474,1.428-1.809,2.243l-1.572,0.147c-0.134,0.703,0.295,1.999,0.659,2.645c0.509,0.9,1.239,0.759,1.751,1.747
	c-1.38,0.958-2.01-2.295-4.178-2.33c-1.237,0.685-0.619,1.396-0.821,1.883c-0.711,0.527-2.299,0.295-1.974,1.919
	c0.214,1.069,1.289,1.323,2.156,1.718c0.012,0.838-0.55,2.143,0.305,2.781c0.661-0.299,0.781-2.146,2.971-1.258
	c1.309,1.03,0.19,2.92-1.623,2.852c-2.074-0.079-2.266-1.703-3.525-2.077c-0.452,0.489-0.365,0.714-0.677,1.184
	c-0.223,0.334-0.543,0.636-0.79,0.913c-0.888-0.006-2.486-0.07-2.073-1.271c0.856-0.252,1.976,0.529,2.456-0.758
	c0.341-1.032-0.444-1.224-0.98-1.896c0.575-1.537,0.984-2.42-0.136-3.939c-0.782-1.062-2.108-1.648-3.466-1.679
	c-1.352-0.031-2.693,0.863-2.959,2.179c-0.359,1.773,0.441,2.355,1.229,3.604c-0.654,0.407-0.629,0.182-1.121,0.949l0.68,1.388
	c2.266,0.06,1.547-0.245,2.262-0.407c1.179,1.561-0.847,1.961-1.776,1.464c-0.743-0.398-1.693-1.818-2.091-1.942
	c-0.346,0.215-0.967,1.568-1.874,2.107c-1.11-0.165-1.639-0.82-1.467-1.966c1.812-0.136,0.659,0.972,1.898,1.079
	c0.536-1.493,0.018-1.454-0.104-2.469l1.286-1.849c-0.315-0.72-1.119-1.683-1.912-1.881c-0.442-4.44-2.222-1.189-3.06-0.45
	C7.579,5.117,8.815,4.716,8.263,3.881C7.301,3.17,6.74,4.098,5.872,4.537c-1.333-1.379-1.883-2.41-4.291-1.975
	c-0.849,0.42-1.808,3.15,1.331,3.177c0.306-0.449,0.194-0.558,0.732-0.72c1.386,1.074,1.823,2.821,3.08,4.02
	c-0.649,0.732-1.207,1.086-0.834,2.202c0.412,1.235,1.36,0.721,2.033,0.826c0.356,3.946,3.113,3.397,3.051,6.643
	c-0.019,0.998-0.574,0.506,0.269,1.549c0.732,0.907-0.023,0.71-0.18,1.601c-0.233,1.319,0.378,0.706,0.569,1.654
	c0.085,0.418,0.223,1.67,0.111,2.036c-0.739,0.392-1.013,0.47-1.842,0.224c-0.361-2.1,0.776-1.216,0.687-2.065
	c-0.096-0.913-1.572-0.447-2.071-0.393c-0.261-0.724-0.46-1.495-1.392-1.642c-1.236-0.195-1.221,0.653-1.513,1.442
	c-0.656-0.032-0.946-0.398-1.51,0.142c-1.032,1.126,1.763,2.171,1.681,3.355c-1.567-1.122-1.259-1.747-3.608-1.806
	c-0.323,0.862-0.141,0.975-1.035,1.302C0.433,26.367,0.214,26.534,0,27.332c0.541,0.863,0.823,1.141,1.848,1.327
	c0.222,2.035,1.285,0.729,2.659,0.772L3.66,30.85c0.64,0.715,1.051,0.614,1.938,0.702c0.126,1.003,0.135,1.055,0.882,1.438
	c-0.589,0.519-0.604,0.815-0.709,1.626c-0.533-0.221-1.096-0.256-1.499,0.156c-0.927,1.112,1.787,2.047,1.982,3.115
	c-1.742-0.671-0.941-1.449-3.59-1.438c-0.839,1.072,0.249,0.681-1.129,1.223c-0.529,0.208-0.941,0.641-1.161,1.176
	c0.658,1.02,0.692,1.152,1.972,1.326c0.307,0.594-0.044,0.963,0.818,1.052c1.404,0.145,2.693-1.823,3.242-1.794
	c0.111,0.907-1.723,1.196-2.106,2.938c0.754,0.818,0.807,0.657,1.874,0.604l0.894,1.38c-0.3,0.969-0.252,0.656-0.309,1.762
	c-0.871,0.15-1.138-0.145-1.55,0.736c-0.233,1.313,2.735,1.48,2.72,2.596c-0.986-0.059-2.039-1.65-3.606-0.945
	c-0.9,0.652,0.097,0.676-0.948,1.402c-1.724,1.201-0.528,2.484,1.309,2.457c0.319,0.605,0.015,0.869,0.989,0.813
	c1.466-0.088,1.896-1.816,2.663-2.32c0.653,1.018-1.793,1.363-1.25,3.518l1.79,0.123c0.493,0.637,0.998,1.271,1.999,0.887
	c0.892-0.342,0.758-1.105,0.984-1.984c0.689,0.145,1.308,0.197,1.837-0.338c-0.408-1.336-1.377-0.059-1.105-2.447
	c3.449-0.859,2.733,2.383,0.864,4.186c-2.312,2.227-1.404,1.719-0.906,3.273c-0.521,0.555-0.621,0.484-0.705,1.311
	c1.606,1.346,3.696-0.406,3.895,0.727c-1.007,0.104-1.977-0.027-2.859,0.477c-1.391,0.791-0.619,1.52-0.315,1.941
	c-0.621,2.248,0.672,2.764,2.438,1.645l1.228,0.422c0.251-0.613,0.698-1.074,0.797-1.57c0.171-0.852-0.238-1.508-0.016-2.045
	c0.797,0.26,0.503,0.488,0.419,1.314c-0.145,1.428,0.92,2.996,2.121,1.137c0.769,0.07,1.261,0.598,2.08,0.049
	c0.723-0.957,0.031-1.652-0.106-2.424c0.606-0.398,1.236-0.678,1.077-1.447c-0.768-0.502-1.592,0.664-2.241-0.895
	c0.114-1.186,1.44-1.686,2.435-0.77c1.157,1.066,0.61,2.6,1.16,3.164c1.266,0.09,1.28-3.197,4.311-1.453
	c1.083,0.623,0.705,1.783-0.236,1.934c-1.415,0.229-1.402-0.986-2.443-0.826c-0.282,1.01,0.083,1.355,0.045,2.053
	c-1.056,0.561-1.022,0.361-1.907,1.232c-0.028,1.549,0.415,1.51,1.741,1.773c0.018,0.615-0.412,1.203,0.206,1.617
	c1.579,1.055,2.573-1.975,4.031-1.896c-0.26,0.791-1.482,1.012-1.811,2.063c-0.524,1.68-0.664,1.82,0.973,1.973
	c0.67,3.143,3.05,2.008,3.218,0.203l1.466-0.383c-0.803-3.447-1.486-2.293-2.184-3.857c1.029,0.02,1.096,0.785,1.769,1.441
	c0.534,0.52,1.692,0.955,2.33,0.314c0.578-0.598,0.081-0.818,0.012-1.479c2.895-0.061,2.223-2.482,0.038-2.916
	c0.01-1.035,0.277-1.629-0.474-2.285c-0.699,0.313-0.618,1.207-2.146,1.086c-0.454-0.479-0.578-0.674-0.661-1.33
	c2.34-3.074,3.557,0.592,4.895,0.721c-0.031-0.854-0.105-1.98,0.476-2.646c1.424-1.631,3.271-0.695,2.745,0.404
	c-0.905,0.98-1.687,0.352-2.27,0.541c-0.403,0.748,0.649,1.201,1.171,1.664c-0.631,0.99-0.925,1.514-0.098,2.545
	c1.033,0.23,1.032-0.186,1.721-0.057c0.882,0.166,0.162,0.607,1.521,0.615c1.647-1.273,0.215-3.063,1.485-3.084
	c-0.576,1.486-0.093,2.518,0.695,3.58c0.973-0.023,0.725-0.518,1.613-0.076c0.773,0.385,0.837,0.393,1.802,0.195
	c0.772-1.16,0.221-1.223,0.066-2.244c1.003-0.926,0.843-1.008-0.26-1.707c-1.314-0.832-1.689-0.381-2.43-0.777
	c0.521-0.41,0.612-0.08,1.536-0.045c2.645,0.098,1.951-0.537,1.305-1.811c1.356-2.416-0.588-2.531-1.848-4.285
	c-1.325-1.844-0.117-4.348,1.804-2.971c0.248,1.479-0.697,1-1.103,1.951c0.709,1.141,0.816,0.346,1.714,0.814
	c0.108,0.127,0.557,3.545,2.969,0.84c0.736,0.027,0.963,0.277,1.803-0.059c0.125-0.73-0.091-1.344-0.481-1.943
	c-0.182-0.281-0.46-0.496-0.603-0.748c-0.341-0.594-0.207-0.49-0.044-0.727c0.513,0.295,0.625,2.09,3.162,2.473
	c1.357-1.764,1.489-0.35,2.675-1.836c-0.185-1.027-0.385-1.354-1.352-1.707l-0.058-1.195c-1.137-0.316-1.49,0.018-2.42-0.17
	c0.256-0.373,1.01-0.9,1.306-1.105c-0.488-1.096-0.538-1.059-1.646-1.182l-0.273-1.818c0.497-0.885,0.639-0.167,0.804-1.446
	c0.875,0.132,0.868,0.252,1.689-0.214c-0.01-2.41-2.346-2.215-1.684-3.33c1.26,0.871,0.749,1.958,3.533,1.934l0.359-1.021
	c1.152-0.069,0.983-0.168,1.674-0.61c0.063-0.771,0.066-1.394-0.637-1.778c-1.357-0.743-0.39,0.006-1.184-1.303
	c-2.175-0.603-2.557,0.858-3.78,1.398c0.159-0.994,1.188-1.081,1.779-1.705c0.342-0.361,0.499-0.924,0.26-1.385
	c-0.279-0.539-0.73-0.337-1.377-0.418c-0.156-0.346-0.417-0.936-0.586-1.34c0.821-0.861,0.483-0.97,0.9-1.603l1.593-0.117
	c0.569-1.329-1.483-2.27-2.218-3.077c0.777-0.646,0.761,0.418,2.063,1.084c2.225,1.137,2.006-0.087,2.186-0.666
	c0.795-0.294,1.398-0.25,1.813-1.094c-0.075-0.91-0.353-1.039-1.117-1.45c-0.968-0.521-0.501-0.489-0.968-1.381
	c-3.633,0.386-2.987,2.095-3.755,1.477c0.25-0.447,1.794-1.209,2.159-2.15c-0.296-1.271-0.857-1.058-1.714-1.031
	c-0.142-0.828-0.678-1.63-1.649-1.453C53.08,22,52.847,22.805,52.379,23.49c-0.626-0.138-1.165-0.429-1.751-0.111
	c-0.155,1.131,0.865,0.361,0.626,2.274c-0.629,0.454-0.966,0.428-1.743,0.274c-0.008-0.486-0.071-1.817,0.001-2.234
	c0.165-0.963,0.629-0.261,0.565-1.518c-0.069-1.332-0.496-0.392,0.228-1.613c0.381-0.644-0.042-0.67,0.138-1.652
	c0.671-3.659,2.014-3.537,2.457-6.49l1.653-0.035c1.26-1.514,0.285-1.697-0.164-2.921l1.359-2.158
	c0.458-0.747,1.096-1.219,1.687-1.869c0.767,0.449-0.144,0.711,1.143,0.721c2.552,0.022,2.132-4.531-1.828-2.87
	c-1.346,0.565-0.907,0.743-1.828,1.564c-0.392-0.211-0.68-0.483-1.046-0.695C53,3.649,52.958,3.994,52.948,3.996
	c-0.84,0.135,0.053,1.659-0.139,2.89c-0.626-0.105-0.8-1.528-2.359-1.844c-0.967,1.275-0.844,0.856-0.703,2.273
	c-0.893,0.217-1.479,0.831-1.955,1.655c0.067,0.784,0.706,1.737,1.403,2.105c-0.376,0.613-0.497,0.392-0.609,1.086
	c-0.095,0.598-0.098,1.065,0.308,1.344c0.789,0.146,0.437-1.816,1.862-0.882c0.483,0.903-0.451,1.63-1.35,1.77
	c-1.608-0.389-1.054-1.782-2.346-1.87c-0.76,0.458-0.525,1.083-1.806,1.662c-1.005,0.453-2.305,0.368-1.797-1.12
	c0.559-0.124,1.488,0.152,2.432,0.013c0.903-1.351,0.653-1.306-0.366-2.423c2.149-2.286,1.546-5.436-1.957-5.421
	c-3.357,0.016-4.929,2.738-3.525,5.24c-0.678,0.697-1.43,1.404-0.792,2.468c0.707,0.425,1.608,0.13,2.3,0.052
	c0.125,1.221-0.904,1.91-2.116,1.5c-0.896-0.304-0.978-1.537-1.539-2.195C36.842,12.543,36.581,14.15,34.888,14.376 M35.983,16.166
	c0.421-0.51,0.504-0.295,0.842-0.599c0.556-0.499,0.016-0.21,0.246-0.49c0.893-0.181,0.962,0.328,1.457,1.025
	C37.396,16.267,36.479,16.466,35.983,16.166 M22.008,16.106c0.195-0.261,0.962-0.779,1.318-1.037
	c0.355,0.204,0.832,0.711,1.072,1.114L22.008,16.106z M30.531,14.653c0.502,0.452,1.216,1.151,1.69,1.628
	c-0.956,0.17-2.578,0.167-3.529-0.012L30.531,14.653z M39.054,24.279c3.549-0.011,5.94-0.749,7.875-0.769
	c0.075,1.232-0.187,4.814-0.34,6.134c-0.418,3.631-0.478,15.661-1.672,17.553c-1.533,2.432-3.737,5.15-6.302,6.547
	c-1.455,0.791-6.957,4.553-8.311,4.234c-1.619-0.379-6.797-3.479-8.321-4.547c-2.061-1.447-5.134-4.438-6.107-6.771
	c-0.35-0.84-0.919-9.847-1.004-11.468c-0.084-1.586-0.678-11.049-0.907-11.884c2.475-0.019,5.546,0.777,8.063,0.779
	c1.06,0.001,3.068,0.132,4.177,0.224c2.941,0.246,5.705,0.17,8.681,0.176C36.381,24.49,37.727,24.283,39.054,24.279 M8.824,34.668
	c-0.116-0.167-0.973-1.489-1.076-1.661l0.745-1.671c0.665,0.008,1.464,0.31,2.152-0.009c0.078-1.167-0.917,0.029-1.023-2.01
	c1.173-0.961,2.577-0.6,2.429,1.009c-0.116,1.26-1.222,1.519-1.766,2.486c0.745,1.567,2.573,0.959,1.878,3.84
	c-0.632,0.359-1.354,0.633-1.977,0.169c-0.835-1.414,0.775-0.899,0.525-2.152C9.951,34.094,9.606,34.226,8.824,34.668 M50.831,33.18
	c-0.257-0.859-1.465-0.958-1.701-2.343c-0.297-1.744,0.445-2.193,2.081-1.81c0.504,1.741-0.547,1.256-0.835,2.194
	c0.782,0.817,1.31,0.283,2.128,0.367c0.299,0.487,0.593,0.996,0.853,1.444c-0.416,0.56-0.83,1.001-1.262,1.648
	c-0.565-0.104-1.205-0.349-1.833,0.004c0.017,1.056,0.923,0.539,0.614,2.122c-1.242,0.939-2.545,0.193-2.216-1.343
	C49.023,33.761,50.43,34.102,50.831,33.18 M50.049,43.853c-0.764-0.798-1.979-1.011-1.922-2.336c0.059-1.348,1.195-1.7,2.382-1.241
	c0.606,2.077-2.811,2.315,1.108,2.535c0.413,0.974,0.773,1.135,1.425,1.715c-0.949,0.508-0.744-0.284-1.951,1.117l-1.968-0.234
	c-0.282,0.566,0.976,0.857,0.362,1.887c-0.485,0.814-1.632,0.844-1.85,0.025c-0.1-0.377,0.132-1.979,0.58-2.329
	C48.757,44.572,49.647,44.66,50.049,43.853 M9.857,45.656c-1.186-0.941-0.447-0.693-2.02-1.31l0.827-0.665
	c0.44-0.408,0.336-0.339,0.537-0.893c0.4-0.14,1.482-0.144,2.155-0.254c0.018-1.18-1.215-0.377-1.172-1.676
	c0.06-1.798,3.446-0.999,2.269,1.251c-0.585,1.118-1.162,0.941-1.49,1.578c0.709,1.2,3.22,1.08,2.317,3.603
	c-0.651,0.469-1.051,0.615-1.856,0.326c-0.701-1.592,0.514-1.324,0.49-2.18C11.211,44.881,10.459,45.297,9.857,45.656
	 M44.909,54.623c-0.76,0.557-0.377,2.014-1.675,1.943c-1.526-0.084-1.323-2.539,0.812-2.674c1.812-0.117,2.065,0.361,3.522,1.965
	c-0.484,0.025-0.522-0.035-0.965,0.014c-0.253,0.027-0.26,0.094-0.698,0.125C45.696,55.529,45.439,54.871,44.909,54.623
	 M13.518,55.543c0.482-0.445,1.361-1.449,1.915-1.588c3.182-0.791,4.096,2.232,2.218,2.561c-1.124,0.195-1.189-1.033-1.614-1.691
	c-0.996,0.139-0.762,0.52-1.319,1.207L13.518,55.543z"/>
</svg>
