<?xml version="1.0" encoding="utf-8"?>
<!-- Generator: Adobe Illustrator 16.0.0, SVG Export Plug-In . SVG Version: 6.00 Build 0)  -->
<!DOCTYPE svg PUBLIC "-//W3C//DTD SVG 1.1//EN" "http://www.w3.org/Graphics/SVG/1.1/DTD/svg11.dtd">
<svg version="1.1" id="Layer_1" xmlns="http://www.w3.org/2000/svg" xmlns:xlink="http://www.w3.org/1999/xlink" x="0px" y="0px"
	 width="88.741px" height="67.101px" viewBox="0 0 88.741 67.101" enable-background="new 0 0 88.741 67.101" xml:space="preserve">
<path fill-rule="evenodd" clip-rule="evenodd" fill="#DCC125" d="M79.015,40.313c4.691,0.626,8.675-2.868,9.726-7.379
	C84.417,33.09,78.565,35.112,79.015,40.313"/>
<path fill="none" stroke="#DCC125" stroke-width="0.216" stroke-miterlimit="22.926" d="M79.015,40.313
	c4.691,0.626,8.675-2.868,9.726-7.379C84.417,33.09,78.565,35.112,79.015,40.313z"/>
<path fill-rule="evenodd" clip-rule="evenodd" fill="#DCC125" d="M10.754,18.106c5.56,0.359,7.695-4.137,8.915-8.811
	C15.111,10.382,10.5,12.64,10.754,18.106"/>
<path fill="none" stroke="#DCC125" stroke-width="0.216" stroke-miterlimit="22.926" d="M10.754,18.106
	c5.56,0.359,7.695-4.137,8.915-8.811C15.111,10.382,10.5,12.64,10.754,18.106z"/>
<path fill-rule="evenodd" clip-rule="evenodd" fill="#DCC125" d="M74.71,47.488c2.794-3.66,0.957-9.333-2.264-11.789
	C70.102,39.283,70.202,45.599,74.71,47.488"/>
<path fill="none" stroke="#DCC125" stroke-width="0.216" stroke-miterlimit="22.926" d="M74.71,47.488
	c2.794-3.66,0.957-9.333-2.264-11.789C70.102,39.283,70.202,45.599,74.71,47.488z"/>
<path fill-rule="evenodd" clip-rule="evenodd" fill="#DCC125" d="M59.732,57.324c4.992,0.882,5.086-7.598,4.528-10.926
	c-1.319,0.202-1.056,0.022-2.288,1.411C59.289,50.839,58.316,53.362,59.732,57.324"/>
<path fill="none" stroke="#DCC125" stroke-width="0.216" stroke-miterlimit="22.926" d="M59.732,57.324
	c4.992,0.882,5.086-7.598,4.528-10.926c-1.319,0.202-1.056,0.022-2.288,1.411C59.289,50.839,58.316,53.362,59.732,57.324z"/>
<path fill-rule="evenodd" clip-rule="evenodd" fill="#DCC125" d="M12.503,56.25c2.316,2.877,8.318,4.646,11.918,1.888
	C23.127,53.348,15.798,54.114,12.503,56.25"/>
<path fill="none" stroke="#DCC125" stroke-width="0.216" stroke-miterlimit="22.926" d="M12.503,56.25
	c2.316,2.877,8.318,4.646,11.918,1.888C23.127,53.348,15.798,54.114,12.503,56.25z"/>
<path fill-rule="evenodd" clip-rule="evenodd" fill="#DCC125" d="M77.857,18.142c-0.495-5.529-3.755-7.817-9.001-8.89
	C70.05,14.6,72.156,17.795,77.857,18.142"/>
<path fill="none" stroke="#DCC125" stroke-width="0.216" stroke-miterlimit="22.926" d="M77.857,18.142
	c-0.495-5.529-3.755-7.817-9.001-8.89C70.05,14.6,72.156,17.795,77.857,18.142z"/>
<path fill-rule="evenodd" clip-rule="evenodd" fill="#DCC125" d="M11.825,47.188c-0.239-4.962-6.274-6.865-10.425-6.024
	C2.792,45.048,6.97,48.467,11.825,47.188"/>
<path fill="none" stroke="#DCC125" stroke-width="0.216" stroke-miterlimit="22.926" d="M11.825,47.188
	c-0.239-4.962-6.274-6.865-10.425-6.024C2.792,45.048,6.97,48.467,11.825,47.188z"/>
<path fill-rule="evenodd" clip-rule="evenodd" fill="#DCC125" d="M39.933,60.489c0.028-5.451-4.539-7.405-9.36-8.038
	C31.978,57.23,34.556,60.861,39.933,60.489"/>
<path fill="none" stroke="#DCC125" stroke-width="0.216" stroke-miterlimit="22.926" d="M39.933,60.489
	c0.028-5.451-4.539-7.405-9.36-8.038C31.978,57.23,34.556,60.861,39.933,60.489z"/>
<path fill-rule="evenodd" clip-rule="evenodd" fill="#DCC125" d="M76.709,47.169c4.567,0.979,9.313-2.269,10.47-6.318
	C82.733,40.745,76.791,41.726,76.709,47.169"/>
<path fill="none" stroke="#DCC125" stroke-width="0.216" stroke-miterlimit="22.926" d="M76.709,47.169
	c4.567,0.979,9.313-2.269,10.47-6.318C82.733,40.745,76.791,41.726,76.709,47.169z"/>
<path fill-rule="evenodd" clip-rule="evenodd" fill="#DCC125" d="M7.084,24.164c2.711-4.25,0.981-8.548-2.41-11.808
	C2.381,15.629,2.573,22.554,7.084,24.164"/>
<path fill="none" stroke="#DCC125" stroke-width="0.216" stroke-miterlimit="22.926" d="M7.084,24.164
	c2.711-4.25,0.981-8.548-2.41-11.808C2.381,15.629,2.573,22.554,7.084,24.164z"/>
<path fill-rule="evenodd" clip-rule="evenodd" fill="#DCC125" d="M75.071,9.661c1.105-4.631-3.482-8.721-7.703-9.425
	C67.972,5.071,69.619,9.377,75.071,9.661"/>
<path fill="none" stroke="#DCC125" stroke-width="0.216" stroke-miterlimit="22.926" d="M75.071,9.661
	c1.105-4.631-3.482-8.721-7.703-9.425C67.972,5.071,69.619,9.377,75.071,9.661z"/>
<path fill-rule="evenodd" clip-rule="evenodd" fill="#DCC125" d="M78.121,38.331c1.496-4.141,0.099-8.118-2.518-10.494
	c-0.989-0.9-0.293-0.454-1.485-0.854C72.836,31.059,73.238,37.929,78.121,38.331"/>
<path fill="none" stroke="#DCC125" stroke-width="0.216" stroke-miterlimit="22.926" d="M78.121,38.331
	c1.496-4.141,0.099-8.118-2.518-10.494c-0.989-0.9-0.293-0.454-1.485-0.854C72.836,31.059,73.238,37.929,78.121,38.331z"/>
<path fill-rule="evenodd" clip-rule="evenodd" fill="#DCC125" d="M13.396,9.702c5.507-0.288,7.093-4.548,7.754-9.457
	C16.979,0.958,12.393,5.045,13.396,9.702"/>
<path fill="none" stroke="#DCC125" stroke-width="0.216" stroke-miterlimit="22.926" d="M13.396,9.702
	c5.507-0.288,7.093-4.548,7.754-9.457C16.979,0.958,12.393,5.045,13.396,9.702z"/>
<path fill-rule="evenodd" clip-rule="evenodd" fill="#DCC125" d="M13.821,47.573c4.473-2.066,4.394-7.807,2.402-11.632
	c-1.41,0.716-0.172-0.208-1.162,0.8C13.358,38.472,10.654,44.25,13.821,47.573"/>
<path fill="none" stroke="#DCC125" stroke-width="0.216" stroke-miterlimit="22.926" d="M13.821,47.573
	c4.473-2.066,4.394-7.807,2.402-11.632c-1.41,0.716-0.172-0.208-1.162,0.8C13.358,38.472,10.654,44.25,13.821,47.573z"/>
<path fill-rule="evenodd" clip-rule="evenodd" fill="#DCC125" d="M20.315,62.663c3.618,1.584,10.577,2.433,12.045-1.94
	C28.735,57.574,22.92,59.269,20.315,62.663"/>
<path fill="none" stroke="#DCC125" stroke-width="0.216" stroke-miterlimit="22.926" d="M20.315,62.663
	c3.618,1.584,10.577,2.433,12.045-1.94C28.735,57.574,22.92,59.269,20.315,62.663z"/>
<path fill-rule="evenodd" clip-rule="evenodd" fill="#DCC125" d="M64.011,57.735c2.702,3.319,10.028,1.312,11.896-1.813
	C72.065,54.214,66.132,53.24,64.011,57.735"/>
<path fill="none" stroke="#DCC125" stroke-width="0.216" stroke-miterlimit="22.926" d="M64.011,57.735
	c2.702,3.319,10.028,1.312,11.896-1.813C72.065,54.214,66.132,53.24,64.011,57.735z"/>
<path fill-rule="evenodd" clip-rule="evenodd" fill="#DCC125" d="M8.356,29.052c5.436-0.795,6.267-5.59,6.414-10.409
	C10.996,19.119,7.238,24.214,8.356,29.052"/>
<path fill="none" stroke="#DCC125" stroke-width="0.216" stroke-miterlimit="22.926" d="M8.356,29.052
	c5.436-0.795,6.267-5.59,6.414-10.409C10.996,19.119,7.238,24.214,8.356,29.052z"/>
<path fill-rule="evenodd" clip-rule="evenodd" fill="#DCC125" d="M48.646,60.391c4.843,0.213,8.393-3.368,9.057-7.906
	C53.242,52.73,48.164,55.197,48.646,60.391"/>
<path fill="none" stroke="#DCC125" stroke-width="0.216" stroke-miterlimit="22.926" d="M48.646,60.391
	c4.843,0.213,8.393-3.368,9.057-7.906C53.242,52.73,48.164,55.197,48.646,60.391z"/>
<path fill-rule="evenodd" clip-rule="evenodd" fill="#DCC125" d="M68.471,53.184c3.611-2.96,2.699-8.959,0-11.968
	C65.811,44.356,64.362,50.579,68.471,53.184"/>
<path fill="none" stroke="#DCC125" stroke-width="0.216" stroke-miterlimit="22.926" d="M68.471,53.184
	c3.611-2.96,2.699-8.959,0-11.968C65.811,44.356,64.362,50.579,68.471,53.184z"/>
<path fill-rule="evenodd" clip-rule="evenodd" fill="#DCC125" d="M9.316,40.469c0.407-5.215-4.798-7.34-9.316-7.263
	C0.926,37.824,4.34,40.799,9.316,40.469"/>
<path fill="none" stroke="#DCC125" stroke-width="0.216" stroke-miterlimit="22.926" d="M9.316,40.469
	c0.407-5.215-4.798-7.34-9.316-7.263C0.926,37.824,4.34,40.799,9.316,40.469z"/>
<path fill-rule="evenodd" clip-rule="evenodd" fill="#DCC125" d="M71.083,52.941c2.097,1.394,4.216,1.316,6.477,0.243
	c1.778-0.845,3.794-2.31,4.82-3.968C78.729,47.382,71.827,48.484,71.083,52.941"/>
<path fill="none" stroke="#DCC125" stroke-width="0.216" stroke-miterlimit="22.926" d="M71.083,52.941
	c2.097,1.394,4.216,1.316,6.477,0.243c1.778-0.845,3.794-2.31,4.82-3.968C78.729,47.382,71.827,48.484,71.083,52.941z"/>
<path fill-rule="evenodd" clip-rule="evenodd" fill="#DCC125" d="M81.193,33.115c5.02-0.139,6.852-5.906,6.45-10.378
	C83.434,24.615,80.067,28.082,81.193,33.115"/>
<path fill="none" stroke="#DCC125" stroke-width="0.216" stroke-miterlimit="22.926" d="M81.193,33.115
	c5.02-0.139,6.852-5.906,6.45-10.378C83.434,24.615,80.067,28.082,81.193,33.115z"/>
<path fill-rule="evenodd" clip-rule="evenodd" fill="#DCC125" d="M56.074,60.399c1.49,4.329,9.271,4.68,12.014,1.581
	C62.739,59.406,62.44,57.221,56.074,60.399"/>
<path fill="none" stroke="#DCC125" stroke-width="0.216" stroke-miterlimit="22.926" d="M56.074,60.399
	c1.49,4.329,9.271,4.68,12.014,1.581C62.739,59.406,62.44,57.221,56.074,60.399z"/>
<path fill-rule="evenodd" clip-rule="evenodd" fill="#DCC125" d="M10.659,38.668c4.824-1.66,4.868-7.695,3.643-11.767
	C11.017,28.692,8.153,34.423,10.659,38.668"/>
<path fill="none" stroke="#DCC125" stroke-width="0.216" stroke-miterlimit="22.926" d="M10.659,38.668
	c4.824-1.66,4.868-7.695,3.643-11.767C11.017,28.692,8.153,34.423,10.659,38.668z"/>
<path fill-rule="evenodd" clip-rule="evenodd" fill="#DCC125" d="M20.083,53.283c4.044-3.122,2.53-8.479,0-12.013
	C17.438,44.177,16.229,50.72,20.083,53.283"/>
<path fill="none" stroke="#DCC125" stroke-width="0.216" stroke-miterlimit="22.926" d="M20.083,53.283
	c4.044-3.122,2.53-8.479,0-12.013C17.438,44.177,16.229,50.72,20.083,53.283z"/>
<path fill-rule="evenodd" clip-rule="evenodd" fill="#DCC125" d="M79.25,14.435c3.218-2.804,2.354-9.31-0.532-11.875
	C76.292,6.084,74.705,12.013,79.25,14.435"/>
<path fill="none" stroke="#DCC125" stroke-width="0.216" stroke-miterlimit="22.926" d="M79.25,14.435
	c3.218-2.804,2.354-9.31-0.532-11.875C76.292,6.084,74.705,12.013,79.25,14.435z"/>
<path fill-rule="evenodd" clip-rule="evenodd" fill="#DCC125" d="M80.282,28.761c0.515-4.54-2.124-9.247-6.554-10.258
	C73.708,22.939,74.979,28.968,80.282,28.761"/>
<path fill="none" stroke="#DCC125" stroke-width="0.216" stroke-miterlimit="22.926" d="M80.282,28.761
	c0.515-4.54-2.124-9.247-6.554-10.258C73.708,22.939,74.979,28.968,80.282,28.761z"/>
<path fill-rule="evenodd" clip-rule="evenodd" fill="#DCC125" d="M81.564,24.094c4.255-2.062,4.592-8.306,2.297-11.806
	C80.607,14.789,78.652,20.399,81.564,24.094"/>
<path fill="none" stroke="#DCC125" stroke-width="0.216" stroke-miterlimit="22.926" d="M81.564,24.094
	c4.255-2.062,4.592-8.306,2.297-11.806C80.607,14.789,78.652,20.399,81.564,24.094z"/>
<path fill-rule="evenodd" clip-rule="evenodd" fill="#DCC125" d="M7.316,33.116c0.972-4.703-2.12-9.008-6.58-10.063
	C0.804,27.145,2.226,33.41,7.316,33.116"/>
<path fill="none" stroke="#DCC125" stroke-width="0.216" stroke-miterlimit="22.926" d="M7.316,33.116
	c0.972-4.703-2.12-9.008-6.58-10.063C0.804,27.145,2.226,33.41,7.316,33.116z"/>
<path fill-rule="evenodd" clip-rule="evenodd" fill="#DCC125" d="M17.31,53.151c-0.99-5.141-6.863-5.028-11.209-4.16
	C7.265,52.743,13.637,55.153,17.31,53.151"/>
<path fill="none" stroke="#DCC125" stroke-width="0.216" stroke-miterlimit="22.926" d="M17.31,53.151
	c-0.99-5.141-6.863-5.028-11.209-4.16C7.265,52.743,13.637,55.153,17.31,53.151z"/>
<path fill-rule="evenodd" clip-rule="evenodd" fill="#DCC125" d="M28.586,57.629c1.976-4.391-0.688-10.247-4.353-11.192
	C23.55,50.386,23.624,56.91,28.586,57.629"/>
<path fill="none" stroke="#DCC125" stroke-width="0.216" stroke-miterlimit="22.926" d="M28.586,57.629
	c1.976-4.391-0.688-10.247-4.353-11.192C23.55,50.386,23.624,56.91,28.586,57.629z"/>
<path fill-rule="evenodd" clip-rule="evenodd" fill="#DCC125" d="M29.403,66.513c4.006,0.772,10.007,1.535,11.627-2.979
	C37.978,60.703,29.907,62.801,29.403,66.513"/>
<path fill="none" stroke="#DCC125" stroke-width="0.216" stroke-miterlimit="22.926" d="M29.403,66.513
	c4.006,0.772,10.007,1.535,11.627-2.979C37.978,60.703,29.907,62.801,29.403,66.513z"/>
<path fill-rule="evenodd" clip-rule="evenodd" fill="#DCC125" d="M9.267,14.564c4.919-2.477,2.147-8.348,0.698-12.123
	C6.809,5.302,6.038,11.153,9.267,14.564"/>
<path fill="none" stroke="#DCC125" stroke-width="0.216" stroke-miterlimit="22.926" d="M9.267,14.564
	c4.919-2.477,2.147-8.348,0.698-12.123C6.809,5.302,6.038,11.153,9.267,14.564z"/>
<path fill-rule="evenodd" clip-rule="evenodd" fill="#DCC125" d="M59.322,66.274c-0.075-0.109-0.194-0.254-0.247-0.313l-4.981-3.562
	c-2.487-0.896-4.749-0.64-6.61,1.027C49.332,68.1,55.184,67.354,59.322,66.274"/>
<path fill="none" stroke="#DCC125" stroke-width="0.216" stroke-miterlimit="22.926" d="M59.322,66.274
	c-0.075-0.109-0.194-0.254-0.247-0.313l-4.981-3.562c-2.487-0.896-4.749-0.64-6.61,1.027C49.332,68.1,55.184,67.354,59.322,66.274z"
	/>
<path fill-rule="evenodd" clip-rule="evenodd" fill="#DCC125" d="M44.298,61.072c0.95,0,1.721,0.761,1.721,1.697
	c0,0.939-0.771,1.699-1.721,1.699s-1.72-0.76-1.72-1.699C42.578,61.833,43.348,61.072,44.298,61.072"/>
<ellipse fill="none" stroke="#DCC125" stroke-width="0.567" stroke-miterlimit="22.926" cx="44.298" cy="62.771" rx="1.721" ry="1.698"/>
</svg>
