<?xml version="1.0" encoding="utf-8"?>
<!-- Generator: Adobe Illustrator 16.0.0, SVG Export Plug-In . SVG Version: 6.00 Build 0)  -->
<!DOCTYPE svg PUBLIC "-//W3C//DTD SVG 1.1//EN" "http://www.w3.org/Graphics/SVG/1.1/DTD/svg11.dtd">
<svg version="1.1" id="Layer_1" xmlns="http://www.w3.org/2000/svg" xmlns:xlink="http://www.w3.org/1999/xlink" x="0px" y="0px"
	 width="51.67px" height="83.592px" viewBox="0 0 51.67 83.592" enable-background="new 0 0 51.67 83.592" xml:space="preserve">
<path fill-rule="evenodd" clip-rule="evenodd" fill="#DCC125" d="M-185.305,2.282c0.015,0.36-0.085,0.281,0.255,0.28
	c4.972-1.608,5.175-8.054-0.073-9.787c-5.342-1.763-8.658,3.462-8.713,8.284l-1.246-0.013c0.32-5.811,1.219-4.859,2.694-8.783
	c1.447-3.847-1.593-6.45-3.582-7.654c-2.096,1.248-4.826,3.696-3.715,7.341c0.442,1.45,1.239,2.638,1.894,4.095
	c0.951,2.119,0.472,2.881,0.894,4.942l-1.206,0.092c-0.429-11.707-12.763-10.126-12.624-3.218c0.059,2.877,2.172,4.044,4.078,4.844
	c0.015-1.248-0.474-4.941,2.577-5.26c2.225-0.233,3.841,1.802,4.043,3.834l-1.888,0.022l-0.067,3.413l1.979,0.16
	c-0.323,3.425-4.607,3.589-4.513-0.622c-1.961,0.789-2.161,2.934-2.527,3.618l-2.169-2.534c0.313-0.468,0.947-1.026,0.721-1.993
	c-0.415-1.761-2.852-1.904-3.412-0.246c-0.374,1.107,0.164,1.655,0.718,2.244c-0.559,1.615-3.033,5.138-4.437,5.819
	c0.035-0.042,0.095-0.158,0.111-0.122l0.967-1.407c0.795-2.153-0.747-3.787-3.131-4.201c1.563,2.93-1.667,4.481-3.082,2.002
	c0.722-0.316,0.895-0.299,1.441-0.828l-1.027-2.292c-0.769,0.012-1.121,0.219-1.632,0.54c-0.444-1.91,0.007-3.732,1.725-4.148
	c2.43-0.587,2.761,1.782,3.554,2.878c3.198-2.4,1.307-8.094-3.563-7.143c-4.626,0.903-4.487,6.433-3.155,9.026l-0.73,0.478
	c-3.382-5.42,2.338-9.491-6.293-11.717l10.236,21.458l-0.597,0.247l0.046,2.086l49.578-0.002l-0.134-2.077
	c-0.017,0.038-0.1-0.072-0.123-0.088l-0.367-0.254l7.725-15.991c0.847-1.832,1.981-3.7,2.521-5.379
	c-2.607,0.753-4.535,1.122-4.975,4.003c-0.473,3.098,0.482,5.531-1.414,7.727l-0.641-0.423c1.614-3.911,0.859-8.528-3.27-9.128
	c-4.912-0.714-6.615,4.764-3.316,7.233c1.214-5.003,6.345-3.273,5.172,1.172l-1.563-0.593l-1.111,2.386
	c0.574,0.58,0.889,0.582,1.446,0.913c-1.252,1.845-4.192,1.741-3.149-2.1c-3.033,0.683-3.933,2.302-2.534,5.266
	c-1.362-0.826-3.16-3.639-3.882-5.392c1.642-0.961,1.291-3.124-0.459-3.35c-1.989-0.256-2.592,1.723-1.497,3.187
	c-0.514,1.028-1.454,2.16-2.319,2.778c-0.068-1.797-1.13-3.059-2.354-3.653c-0.002,1.591-0.386,2.918-1.922,3.082
	c-1.804,0.194-2.431-0.924-2.656-2.503c1.56,0.047,2.614,0.763,1.933-3.469l-1.839-0.095c0.1-1.925,1.701-3.972,3.833-3.836
	C-185.653-2.414-185.223-0.243-185.305,2.282 M-195.112,4.7l1.284-0.001c-0.027,1.69,0.329,2.626,0.956,3.946
	c0.622,1.309,1.235,1.852,2.394,2.624c-0.676,0.333-1.617,0.633-2.499,0.659l-1.437-3.217C-194.914,7.495-195.061,6.149-195.112,4.7
	 M-198.896,11.966l-2.577-0.616c1.898-1.226,3.331-3.689,3.37-6.653l1.209,0.004C-197.274,9.853-198.034,8.689-198.896,11.966
	 M-176.06,11.338c4.038,0.665,4.495-1.167,6.367-3.209l0.641,0.398c-0.851,2.51-2.845,3.122-3.623,4.302
	c-0.61-0.321-1.132-0.307-1.827-0.536L-176.06,11.338z M-222.89,8.48l0.653-0.269c1.376,1.309,2.549,4.32,6.391,3.014l-0.216,0.277
	c-0.267,0.237-0.058,0.095-0.387,0.297c-0.186,0.113-0.65,0.323-0.865,0.409c-0.654,0.264-1.395,0.392-2.206,0.463
	c-0.668-1.03-1.747-1.291-2.756-2.82C-222.62,9.329-222.653,8.912-222.89,8.48 M-212.174,10.897
	c-0.827-3.037,3.646-3.874,4.249-1.268C-207.197,12.773-211.512,13.329-212.174,10.897 M-183.967,10.897
	c-0.812-3.134,3.693-3.697,4.248-1.267C-178.995,12.792-183.338,13.318-183.967,10.897 M-176.06,11.338
	c-0.882-0.208-0.479-0.175-0.711-0.526c0.536,0.235,0.059-0.056,0.339,0.164C-176.151,11.196-176.206,11.173-176.06,11.338"/>
<path fill-rule="evenodd" clip-rule="evenodd" fill="#DCC125" d="M-217.138,21.154h-1.787l-0.063,1.807
	c4.411-0.285,18.609-0.03,24.088-0.03l20.96,0.016c1.637-0.023,1.373-0.48,1.31-1.996c-0.682,0.243-1.271,0.197-2.172,0.212
	l-0.021-1.901l-42.243,0.074L-217.138,21.154z"/>
<path fill-rule="evenodd" clip-rule="evenodd" fill="#DCC125" d="M-176.06,11.338c-0.146-0.165-0.092-0.142-0.372-0.362
	c-0.28-0.22,0.197,0.071-0.339-0.164C-176.538,11.163-176.941,11.13-176.06,11.338"/>
<path fill-rule="evenodd" clip-rule="evenodd" fill="#DCC125" d="M-185.049,2.562c-0.341,0.001-0.241,0.08-0.256-0.28l-0.272,0.538
	L-185.049,2.562z"/>
<line fill="none" x1="-157.72" y1="-51" x2="-157.72" y2="790.891"/>
<line fill="none" x1="-157.72" y1="-51" x2="-157.72" y2="790.891"/>
<text transform="matrix(1 0 0 1 -249.5039 22.6294)" font-family="'MyriadPro-Regular'" font-size="12">6.</text>
<line fill="none" x1="-157.72" y1="-51" x2="-157.72" y2="790.891"/>
<line fill="none" x1="-157.72" y1="-51" x2="-157.72" y2="790.891"/>
<path fill-rule="evenodd" clip-rule="evenodd" fill="#DCC125" d="M12.37,20.149c0.649,0.312,0.24-0.203,0.436,0.613
	c-0.055,1.205-0.95,1.256-0.048,2.907c0.428,0.785-0.302,0.406,0.675,0.72c-0.306,0.177-0.06,0.141-0.614,0.191
	c-0.386,0.034-0.53-0.008-0.861-0.066c-1.637-0.289-3.249-0.725-5.145-0.154l-0.146,0.85l1.462-0.043
	c-0.302,0.638,0.05,0.178-0.576,0.523C7.209,25.879,6.884,25.895,6.625,26v0.523l-0.648-0.029c-1.377,0.406-1.979,0.574-2.627,1.58
	l4.097-0.813c-0.979,0.62-0.231,0.238-0.607,0.839c-1.216,1.941-1.683,1.033-2.694,2.851c-1.029,1.853-2.045,3.325-1.927,5.098
	c0.301-0.577,0.702-0.794,1.084-1.483c1.558-2.807,0.586-1.271,2.715-3.334l0.397-0.399c0.491-0.477,0.33-0.99,1.158-0.667
	c0.964,0.917,0.116,0.676,0.525,1.797l0.284-0.921l0.047-0.876l0.476,0.002c0.64-6.099,6.412-2.782,6.412-2.782
	c1.179,0.249-0.029,0.029,0.622-0.061l0.287-0.051c0.847-0.052-0.713,0.034,0.421,0.037l0.971-0.201
	c1.05-0.2,1.556,0.118,2.803,0.252l0.261-1.559c1.92,0.276,0.299,0.602,1.736,0.65l-0.131-1.083
	c-0.832-0.177-0.612-0.938-0.606-1.854h0.556l0.552-0.627l0.907,1.407l2.568,0.015c0.503-0.041,0.413-0.064,0.845,0.222l1.176-1.591
	c1.029,1.083,0.955,0.829,0.761,2.672c0.062,0.481-0.074,0.348,0.409,0.397l1.191-0.144l0.139,1.482
	c2.104-0.346,2.041-0.369,3.256-0.138l0.89,0.088c2.076,0.324,0.768-0.598,3.307-0.692c4.015-0.15,3.371,2.507,4.64,5.567
	c0.072-0.35-0.073-3.199,1.722-1.597l2.045,2.213c1.6,1.689,0.681,2.045,2.158,3.136c-0.04-1.123-0.198-1.872-0.709-2.76
	c-1.078-1.874-1.021-2.344-2.874-3.957c-0.723-0.63-1.057-1.057-1.39-1.831c0.883,0.154,3.076,0.862,3.796,0.428
	c-0.767-0.851-3.831-1.715-4.843-2.321c1.027-0.648,1.508,0.12,2.459-0.563c-1.469-1.611-5.078-0.429-7.053-0.299
	c-0.276,0.801-0.145,0.848-0.923,0.299c0.441-0.547,0.069-0.272,0.785-0.5c0.042-0.824,0.154,0.139-1.204-0.549
	c0.543-0.441,0.831-0.603,1.432-0.973c-0.102-1.348-0.099-1.24-0.848-1.953c-1.114,0.699-0.272-0.285-1.002,0.813l-0.541,1.198
	c-0.031-2.109,0.678-1.836,0.4-3.942c-3.662-1.489-17.667-0.078-22.537-0.291l9.302-1.478v-0.463l0.854,0.022
	c0.874-0.078,0.414-0.025,0.723-0.271c-1.412-0.078-3.651,0.075-5.131,0.158c-2.065,0.115-2.271,0.729-4.637,0.708
	c0.097-2.572-0.228-1.3,1.009-2.546c0.692-0.697,0.879-1.621,1.141-2.307c0.639,0.341,0.373,0.29,1.089,0.578
	c-0.421-0.868-0.912-2.087-1.876-2.373c-0.033,0.058-0.063,0.088-0.071,0.188c-0.008,0.102-0.053,0.146-0.063,0.195
	c-0.255,1.279,0.042,1.182-0.329,2.064l-0.978,1.376c-0.936,1.168-2.246,0.081-3.512-0.698c-0.925-0.569-0.483,0.049-0.748-0.706
	c1.222-0.041,3.088,1.996,4.363,0.214c-1.274-0.854-1.61,0.915-4.561-1.707L7.318,9.169c-1.196-1.072,0.543-1.88-0.523-3.348
	C6.716,3.924,3.003,4.885,2.566,5.235C1.224,6.309,1.392,8.134,2.76,9.021c1.608,1.043,2.906-0.835,5.176,2.957
	c1.116,1.866,0.66,0.286,1.52,2.415c0.491,1.215,0.963,1.34,1.549,2.384c0.981,1.745,0.022,1.774,0.371,3.28L12.37,20.149z
	 M6.795,5.821L6.788,8.042C6.349,8.281,6.047,8.425,5.46,8.672c0.433-0.506,0.33-0.525,1.065-0.765L6.483,6.262
	C5.694,5.916,6.438,6.106,5.509,5.792C4.502,5.748,5.148,5.65,4.831,5.958l0.131,1.438L2.329,7.356
	C2.504,4.59,4.964,4.382,6.378,5.421L6.795,5.821z M10.524,13.173c-1.599-0.144-0.778-0.078-1.572-0.907
	c-0.918-0.959-0.631,0.399-0.947-1.394c0.971,0.375,0.434,0.077,0.998,0.559L10.524,13.173z M14.128,15.792
	c0.788,0.496,0.599,0.414,0.695,1.636c-0.074-0.061-0.168-0.124-0.226-0.176C13.196,16,14.115,15.813,14.128,15.792 M13.079,16.181
	c0.587,0.634,0.534,0.491,0.709,1.586C11.785,17.083,13.066,16.202,13.079,16.181 M21.153,19.155
	c0.371-0.249-0.277-0.021,0.615-0.262c0.572-0.154-0.133-0.005,0.476-0.093l7.924,0.031c-0.304,0.949-0.53,0.692-1.269,1.23
	c-0.675,0.492-0.462,0.644-1.138,1.156c-1.857-0.545-1.427-1.066-2.761-1.195l0.047,1.138l-1.589,0.698
	C23.14,20.38,21.92,20.13,21.153,19.155 M17.185,19.786c1.506-1.964,3.855-0.008,4.024,0.942c-1.102,0.402-1.546-0.195-2.362-0.612
	c-1.658,0.468,0.266,0.429-1.573,0.603c-0.299-0.257-0.342,0.456-0.125-0.718c-0.687,0.613-0.287,0.595-0.29,1.527
	c-0.003,0.843,0.147,0.574-0.372,1.22c-0.475-0.716-0.473-1.891-0.511-2.914C16.989,20.026,16.329,20.058,17.185,19.786
	 M29.619,20.95c0.15-1.132-0.139-0.393,1.113-1.462l0.696-0.561c0.026,0.938,0.033,1.694,0.365,2.285
	c-1.175-0.128-0.59,0.248-1.09-0.916C30.414,20.952,30.517,20.85,29.619,20.95 M33.735,20.792c-0.858-0.096-0.629,0.042-1.231-0.363
	c-0.54-0.364-0.358-0.129-0.53-0.75c0.644-0.261,0.134-0.135,1.325,0.112c0.548,0.114,0.079-0.056,0.454,0.151L33.735,20.792z
	 M33.735,20.792c0.04-0.059,0.094-0.142,0.119-0.18l0.348-0.523c0.018-0.094,0.076-0.111,0.113-0.166
	c0.248,0.381,0.292-0.594,0.249,0.755c-0.022,0.673-0.204,0.401-0.249,0.462C33.52,21.127,33.924,21.439,33.735,20.792
	 M17.344,21.515c0.151-0.091-0.434-1.214,0.902,0C17.003,22.45,17.415,21.551,17.344,21.515 M32.735,21.515
	c0.373-0.22,0.361-0.27,0.775,0c-0.001,0-0.525,0.364-0.617,0.102C32.87,21.554,32.788,21.548,32.735,21.515 M35.24,20.065
	c0.194,0.815,0.155,1.271-0.054,2.055c-0.288,1.076-0.342,0.872-1.475,1.034l0.049-0.853l0.891-0.08L35.24,20.065z M15.168,22.222
	c-0.18-0.738-0.39-1.121,0.008-1.937c0.611,1.086,0.874,2.487,0.909,4.011C15.276,23.65,15.812,24.868,15.168,22.222 M17.666,23.008
	c-0.001-0.045-0.088,0.125-0.13,0.189c-0.687-0.657-0.168,0.24-0.246-0.562c-0.092-0.955-0.195,0.16,0.246-0.326
	c0.232,0.33,0.16-0.091,0.212,0.514C17.751,22.859,17.667,23.047,17.666,23.008 M19.491,22.245c0.476,1.378,0.697-0.027,0.644,1.813
	c-0.949-0.056-1.589-0.441-2.012-0.97C18.884,22.665,18.732,22.943,19.491,22.245 M32.384,23.362
	c0.268-0.579-0.354-0.487,0.592-0.54c0.552-0.031,0.383,0.185,0.54,0.498L32.384,23.362z M32.384,23.362l-0.152,0.273
	c-0.037,0.044-0.168,0.211-0.223,0.25l-0.826,0.227c-0.044-1.033,0.134-1.388,0.587-1.955
	C32.263,23.037,31.694,22.824,32.384,23.362 M32.915,24.923c0.481-1.02,1.709-0.819,3.489-0.726
	c-0.563,0.468-0.228,0.24-0.815,0.429c-2.289,0.736,0.037,0.803-1.689,0.725C32.875,25.304,33.018,24.992,32.915,24.923
	 M16.127,24.33l0.079-0.953c1.329,0.041,0.399-0.049,0.75,0.354c0.509,0.471,0.94,0.594,1.208,1.442
	c-1.88,0.094-1.24,0.043-2.562-0.64L16.127,24.33z"/>
<path fill="none" stroke="#DCC125" stroke-width="0.216" stroke-miterlimit="22.926" d="M12.37,20.149
	c0.649,0.312,0.24-0.203,0.436,0.613c-0.055,1.205-0.95,1.256-0.048,2.907c0.428,0.785-0.302,0.406,0.675,0.72
	c-0.306,0.177-0.06,0.141-0.614,0.191c-0.386,0.034-0.53-0.008-0.861-0.066c-1.637-0.289-3.249-0.725-5.145-0.154l-0.146,0.85
	l1.462-0.043c-0.302,0.638,0.05,0.178-0.576,0.523C7.209,25.879,6.884,25.895,6.625,26v0.523l-0.648-0.029
	c-1.377,0.406-1.979,0.574-2.627,1.58l4.097-0.813c-0.979,0.62-0.231,0.238-0.607,0.839c-1.216,1.941-1.683,1.033-2.694,2.851
	c-1.029,1.853-2.045,3.325-1.927,5.098c0.301-0.577,0.702-0.794,1.084-1.483c1.558-2.807,0.586-1.271,2.715-3.334l0.397-0.399
	c0.491-0.477,0.33-0.99,1.158-0.667c0.964,0.917,0.116,0.676,0.525,1.797l0.284-0.921l0.047-0.876l0.476,0.002
	c0.64-6.099,6.412-2.782,6.412-2.782c1.179,0.249-0.029,0.029,0.622-0.061l0.287-0.051c0.847-0.052-0.713,0.034,0.421,0.037
	l0.971-0.201c1.05-0.2,1.556,0.118,2.803,0.252l0.261-1.559c1.92,0.276,0.299,0.602,1.736,0.65l-0.131-1.083
	c-0.832-0.177-0.612-0.938-0.606-1.854h0.556l0.552-0.627l0.907,1.407l2.568,0.015c0.503-0.041,0.413-0.064,0.845,0.222l1.176-1.591
	c1.029,1.083,0.955,0.829,0.761,2.672c0.062,0.481-0.074,0.348,0.409,0.397l1.191-0.144l0.139,1.482
	c2.104-0.346,2.041-0.369,3.256-0.138l0.89,0.088c2.076,0.324,0.768-0.598,3.307-0.692c4.015-0.15,3.371,2.507,4.64,5.567
	c0.072-0.35-0.073-3.199,1.722-1.597l2.045,2.213c1.6,1.689,0.681,2.045,2.158,3.136c-0.04-1.123-0.198-1.872-0.709-2.76
	c-1.078-1.874-1.021-2.344-2.874-3.957c-0.723-0.63-1.057-1.057-1.39-1.831c0.883,0.154,3.076,0.862,3.796,0.428
	c-0.767-0.851-3.831-1.715-4.843-2.321c1.027-0.648,1.508,0.12,2.459-0.563c-1.469-1.611-5.078-0.429-7.053-0.299
	c-0.276,0.801-0.145,0.848-0.923,0.299c0.441-0.547,0.069-0.272,0.785-0.5c0.042-0.824,0.154,0.139-1.204-0.549
	c0.543-0.441,0.831-0.603,1.432-0.973c-0.102-1.348-0.099-1.24-0.848-1.953c-1.114,0.699-0.272-0.285-1.002,0.813l-0.541,1.198
	c-0.031-2.109,0.678-1.836,0.4-3.942c-3.662-1.489-17.667-0.078-22.537-0.291l9.302-1.478v-0.463l0.854,0.022
	c0.874-0.078,0.414-0.025,0.723-0.271c-1.412-0.078-3.651,0.075-5.131,0.158c-2.065,0.115-2.271,0.729-4.637,0.708
	c0.097-2.572-0.228-1.3,1.009-2.546c0.692-0.697,0.879-1.621,1.141-2.307c0.639,0.341,0.373,0.29,1.089,0.578
	c-0.421-0.868-0.912-2.087-1.876-2.373c-0.033,0.058-0.063,0.088-0.071,0.188c-0.008,0.102-0.053,0.146-0.063,0.195
	c-0.255,1.279,0.042,1.182-0.329,2.064l-0.978,1.376c-0.936,1.168-2.246,0.081-3.512-0.698c-0.925-0.569-0.483,0.049-0.748-0.706
	c1.222-0.041,3.088,1.996,4.363,0.214c-1.274-0.854-1.61,0.915-4.561-1.707L7.318,9.169c-1.196-1.072,0.543-1.88-0.523-3.348
	C6.716,3.924,3.003,4.885,2.566,5.235C1.224,6.309,1.392,8.134,2.76,9.021c1.608,1.043,2.906-0.835,5.176,2.957
	c1.116,1.866,0.66,0.286,1.52,2.415c0.491,1.215,0.963,1.34,1.549,2.384c0.981,1.745,0.022,1.774,0.371,3.28L12.37,20.149z
	 M6.795,5.821L6.788,8.042C6.349,8.281,6.047,8.425,5.46,8.672c0.433-0.506,0.33-0.525,1.065-0.765L6.483,6.262
	C5.694,5.916,6.438,6.106,5.509,5.792C4.502,5.748,5.148,5.65,4.831,5.958l0.131,1.438L2.329,7.356
	C2.504,4.59,4.964,4.382,6.378,5.421L6.795,5.821z M10.524,13.173c-1.599-0.144-0.778-0.078-1.572-0.907
	c-0.918-0.959-0.631,0.399-0.947-1.394c0.971,0.375,0.434,0.077,0.998,0.559L10.524,13.173z M14.128,15.792
	c0.788,0.496,0.599,0.414,0.695,1.636c-0.074-0.061-0.168-0.124-0.226-0.176C13.196,16,14.115,15.813,14.128,15.792z M13.079,16.181
	c0.587,0.634,0.534,0.491,0.709,1.586C11.785,17.083,13.066,16.202,13.079,16.181z M21.153,19.155
	c0.371-0.249-0.277-0.021,0.615-0.262c0.572-0.154-0.133-0.005,0.476-0.093l7.924,0.031c-0.304,0.949-0.53,0.692-1.269,1.23
	c-0.675,0.492-0.462,0.644-1.138,1.156c-1.857-0.545-1.427-1.066-2.761-1.195l0.047,1.138l-1.589,0.698
	C23.14,20.38,21.92,20.13,21.153,19.155z M17.185,19.786c1.506-1.964,3.855-0.008,4.024,0.942c-1.102,0.402-1.546-0.195-2.362-0.612
	c-1.658,0.468,0.266,0.429-1.573,0.603c-0.299-0.257-0.342,0.456-0.125-0.718c-0.687,0.613-0.287,0.595-0.29,1.527
	c-0.003,0.843,0.147,0.574-0.372,1.22c-0.475-0.716-0.473-1.891-0.511-2.914C16.989,20.026,16.329,20.058,17.185,19.786z
	 M29.619,20.95c0.15-1.132-0.139-0.393,1.113-1.462l0.696-0.561c0.026,0.938,0.033,1.694,0.365,2.285
	c-1.175-0.128-0.59,0.248-1.09-0.916C30.414,20.952,30.517,20.85,29.619,20.95z M33.735,20.792
	c-0.858-0.096-0.629,0.042-1.231-0.363c-0.54-0.364-0.358-0.129-0.53-0.75c0.644-0.261,0.134-0.135,1.325,0.112
	c0.548,0.114,0.079-0.056,0.454,0.151L33.735,20.792z M33.735,20.792c0.04-0.059,0.094-0.142,0.119-0.18l0.348-0.523
	c0.018-0.094,0.076-0.111,0.113-0.166c0.248,0.381,0.292-0.594,0.249,0.755c-0.022,0.673-0.204,0.401-0.249,0.462
	C33.52,21.127,33.924,21.439,33.735,20.792 M17.344,21.515c0.151-0.091-0.434-1.214,0.902,0
	C17.003,22.45,17.415,21.551,17.344,21.515z M32.735,21.515c0.373-0.22,0.361-0.27,0.775,0c-0.001,0-0.525,0.364-0.617,0.102
	C32.87,21.554,32.788,21.548,32.735,21.515z M35.24,20.065c0.194,0.815,0.155,1.271-0.054,2.055
	c-0.288,1.076-0.342,0.872-1.475,1.034l0.049-0.853l0.891-0.08L35.24,20.065z M15.168,22.222c-0.18-0.738-0.39-1.121,0.008-1.937
	c0.611,1.086,0.874,2.487,0.909,4.011C15.276,23.65,15.812,24.868,15.168,22.222z M17.666,23.008
	c-0.001-0.045-0.088,0.125-0.13,0.189c-0.687-0.657-0.168,0.24-0.246-0.562c-0.092-0.955-0.195,0.16,0.246-0.326
	c0.232,0.33,0.16-0.091,0.212,0.514C17.751,22.859,17.667,23.047,17.666,23.008z M19.491,22.245
	c0.476,1.378,0.697-0.027,0.644,1.813c-0.949-0.056-1.589-0.441-2.012-0.97C18.884,22.665,18.732,22.943,19.491,22.245z
	 M32.384,23.362c0.268-0.579-0.354-0.487,0.592-0.54c0.552-0.031,0.383,0.185,0.54,0.498L32.384,23.362z M32.384,23.362
	l-0.152,0.273c-0.037,0.044-0.168,0.211-0.223,0.25l-0.826,0.227c-0.044-1.033,0.134-1.388,0.587-1.955
	C32.263,23.037,31.694,22.824,32.384,23.362 M32.915,24.923c0.481-1.02,1.709-0.819,3.489-0.726
	c-0.563,0.468-0.228,0.24-0.815,0.429c-2.289,0.736,0.037,0.803-1.689,0.725C32.875,25.304,33.018,24.992,32.915,24.923z
	 M16.127,24.33l0.079-0.953c1.329,0.041,0.399-0.049,0.75,0.354c0.509,0.471,0.94,0.594,1.208,1.442
	c-1.88,0.094-1.24,0.043-2.562-0.64L16.127,24.33z"/>
<path fill-rule="evenodd" clip-rule="evenodd" fill="#DCC125" d="M13.641,74.952l0.695,0.109l0.022,0.525
	c0.121,1.045,0.263,1.675,0.429,2.678c0.222,1.344-0.184,1.375,1.085,1.96c0.023-1.878-0.069-3.577,0.825-4.765
	c0.044,0.055,0.094,0.134,0.118,0.174c0.529,0.902,0.732,1.92,1.023,3.003c0.865,3.216,0.162,2.266,1.271,2.907
	c0.322-0.549-0.277-2.428-0.367-3.766c0.708,0.4,0.227,0.164,0.757,0.752c0.442,0.492,0.137,0.297,0.704,0.582l0.91,0.418
	c0.066,0.045,0.27,0.229,0.316,0.266l0.302,0.303c0.067-0.023,0.146-0.09,0.183-0.107c1.715-0.869,0.197,1.164,3.232,2.822
	l0.516,0.063l0.001,0.539c0.875,0.332,0.442,0.25,1.681-0.693c0.952-0.725,0.682-0.184,1.173-1.463
	c1.093-2.844,0.648-0.186,2.437-2.184l0.155-0.654c0.47,0.279,0.177-0.106,0.308,0.566l0.187,0.381
	c0.124-0.186,0.373-0.611,0.404-0.656c1.073-1.582,0.734-1.385,1.523-1.631c-0.017,1.213-0.594,2.822-0.265,3.315
	c0.835-0.735,0.806-1.321,0.76-2.571l0.102-0.672l0.482-0.002l0.13-1.484c1.879-0.228,1.051,2.406,1.672,3.643
	c1.021-1.117,0.339-2.37,1.961-4.716c1.215-0.031-0.045,0.088,0.679,0.126c1.164,0.061-0.16-0.287,1.176-0.645
	c0.733,1.291,0.222,1.957,1.114,3.08l0.294-1.363c0.016-0.355-0.016-0.928-0.037-1.295c-0.049-0.824-0.158-1.57-0.175-2.414
	l-0.466,0.002l-0.105-0.731c-0.168-1.147-0.494-1.597-0.258-2.58c0.153-0.64,0.015-0.231,0.295-0.569
	c0.43,1.041,0.002-0.152,0.686,0.83c0.719,1.035,0.564,2.435,1.128,3.264c0.566-1.877-1.311-7.608,0.846-5.508
	c0.752,0.731,1.531,2.638,1.775,3.74l0.464,0.004l0.139,0.688c-0.101,3.5-0.025,2.525,0.548,2.729
	c0.282-1.344,0.137-3.306,0.144-4.75c0.011-2.168,0.722-0.357,0.749-2.572c0.038-3.141,0.402-1.408-0.024-4.195
	c1.582,1.742,1.328,1.843,2.388,3.135c-0.136-1.734-0.3-1.727-0.884-2.765c-0.028-0.05-0.067-0.116-0.094-0.167
	c-0.025-0.047-0.258-0.571-0.328-0.715l-0.868-1.475c-0.945-1.299-0.72-0.076-0.984-1.551c0.83-0.23,0.161,0.352,0.848-0.712
	l1.573,1.548c0.619-0.258,0.097,0.037,0.499-0.486c0.04-0.053,0.191-0.23,0.213-0.353c0.019-0.101,0.06-0.134,0.102-0.19
	c0.409,0.791,0.971,2.045,1.546,2.951c0.586-0.904,0.249-0.895-0.184-1.933c-0.567-1.356-1.012-3.759-2.619-4.466
	c0.244,1.055-0.009,0.744-0.325,1.06c-1.023-0.594-0.259-0.748-1.984-1.137c0.45,0.821-0.005,0.823,0.859,1.21
	c-0.174,0.124,0.32,0.628-1.705-0.082c-0.65-0.227-0.88-0.457-1.235-0.564c1.086,2.969,1.385,0.713,0.179,2.5
	c0.249,0.246,0.48,0.426,0.791,0.702c0.705,0.63-0.22,0.147,0.674,0.56l-1.277,0.551c0.756,0.548,1.934,1.807,1.765,2.621
	c-0.084,0.406-0.359-0.094-1.049,1.479c-0.024,0.055-0.049,0.129-0.074,0.18c-0.643,1.322-0.937-0.928-0.19,2.518
	c-0.692-0.686-2.643-2.473-3.098-3.293c-0.232,0.432-0.098,0.391-0.446,0.712l-0.662,0.413c-0.028-0.053-0.131,0.051-0.188,0.09
	c0.266,1.313,0.544,0.811,0.744,1.791c-0.604-0.111-0.448-0.044-1.073-0.384c-0.745-0.406-0.285,0.03-0.75-0.589l-1.231,1.017
	c0.805,2.114,1.165,1.494,1.327,4.195c-0.057,0.038-0.15,0.063-0.188,0.084l-1.17,1.249c-0.598-0.012-0.726,0.035-1.032,0.086
	c-0.653,0.107-0.293,0.027-0.548,0.154c0.08,1.006,0.264,1.658,0.017,2.58c-0.139,0.518-0.106,0.34-0.293,0.607
	c-0.159-1.072-1.467-2.848-2.076-3.34c-0.42,0.596-0.26,0.675-0.264,1.535c-1.314-0.157-1.151,0.076-1.506,1.324
	c-0.955-0.31-0.25,0.33-1.052-0.765l-0.347,1.312l-0.406-0.719c-0.307-0.406-0.121-0.264-0.353-0.236l-0.271,1.347l0.031,0.69
	h-0.502c-1.182,2.336-1.064,2.611-2.692,3.711c-1.106-1.303-0.347-1.086-1.024-2.321l-0.235,1.938l-0.085,0.432l-0.604-0.002
	c-1.674-0.92-1.42-0.773-2.256-2.811c-0.227-0.552-0.52-1.943-1.154-1.728c-0.027,0.009-0.093,0.062-0.12,0.079
	c-1.204,0.777,0.826-0.811-0.232,0.251c-0.601,0.603,0.523,0.096-0.585,0.522l-0.314-2.603c-0.608,1.552,0.27,1.079-1.072,1.833
	L18.736,73.6l-0.965,0.047l0.123-1.917c-1.801,1.12-1.673,2.701-2.718,4.102c-0.518-0.945-0.16-2.021-0.329-3.65
	c-0.899,0.348-1.63,0.845-2.402,1.025l0.329-2.031c-1.099,0.714,0.048,0.549-1.157,0.873c0.186-2.842,1.507-4.623,1.776-5.44
	c-0.057-0.043-0.144-0.08-0.19-0.101l-1.435-0.41c-0.508,0.393-1.052,0.709-1.287,1.333c-0.1-0.208-0.665,0.219,0.284-1.279
	c0.929-1.468,0.329-1.31,0.254-1.368v0.498L10.4,65.278l-0.729,0.219c-0.698-1.078,0.368-1.143-0.803-0.773l-0.001,0.548
	l-0.512,0.069c-0.572,0.473-0.362,0.324-0.741,0.764c-0.427,0.495-0.347,0.335-0.556,0.744C6.554,67.831,7.033,68.224,6,68.673
	c-0.034-0.055-0.059-0.139-0.069-0.18c-0.011-0.041-0.05-0.133-0.061-0.185l0.04-1.276c0.359-1.287,0.049-0.219,0.687-1.211
	l-1.018-0.787c0.489-1.824-0.263-1.793,0.212-2.781l1.756-2.627l-1.801,0.597l0.216-0.72l0.026-0.519h0.557l0.113-0.805
	l-0.695,0.026v-0.524l0.055-0.457l0.003-0.603h0.502c-0.545-0.393,0.246-0.092-0.571-0.191c-0.247-0.03-0.393-0.008-0.637,0.025
	c-0.276,0.037-0.76,0.188-1.196,0.234l0.821-1.956c-0.538,0.245-0.648,0.285-1.061,0.595c-0.203,0.152-0.709,0.621-0.735,0.637
	c-1.504,0.969-0.748-1.028-1.079,0.084c-0.631,0.275-0.181-0.131-0.596,0.511c-0.395,0.606-1.511,3.799-1.468,5.327l2.084-4.211
	c0.409,0.488,0.258,0.078,0.312,1.055c0,0.008-0.08,0.9-0.085,1.041c1.322-0.699,0.454-0.9,1.867-1.346
	c0.41,3.471-1.728,4.335-1.9,7.391c0.901-0.699,0.589-0.184,0.818-1.168c0.049,0.064,0.082,0.169,0.107,0.217
	c0.024,0.045,0.074,0.151,0.102,0.201c0.437,0.782,0.837,0.5,0.84,0.491c0.019-0.058,0.118-0.019,0.173,0
	c-0.105,0.784-0.361,2.071-0.181,2.812c0.363,1.494,0.54-0.927,0.595,1.875c0.034,1.725-0.241,3.883,0.481,5.242l0.45-1.085
	c0.275-1.549-0.14-1.634,0.608-3.329c0.58-1.314,0.397-2.939,1.634-3.844c0.75-0.548,0.202-0.33,1.395-0.459l0.011,4.229
	c0.029-0.051,0.073-0.125,0.104-0.181c0.039-0.069,0.155-0.276,0.193-0.348c0.98-1.839,0.229-1.468,1.373-1.786
	c0.353,0.678,0.158,1.589-0.184,2.449c-0.701,1.766-0.847,5.712-0.683,6.425c0.227,0.985,0.307,0.284,0.314,0.28
	c1.077-0.455-0.124-1.032,1.194-3.223c0.068,0.379,0.074,0.891,0.126,1.149l0.115,0.421c0.013,0.047,0.069,0.229,0.079,0.191
	c0.011-0.034,0.046,0.133,0.087,0.188l0.369-0.986c0.131-0.52,0.055-0.385,0.17-0.924C13.214,74.737,13.264,74.766,13.641,74.952"/>
<path fill="none" stroke="#DCC125" stroke-width="0.216" stroke-miterlimit="22.926" d="M13.641,74.952l0.695,0.109l0.022,0.525
	c0.121,1.045,0.263,1.675,0.429,2.678c0.222,1.344-0.184,1.375,1.085,1.96c0.023-1.878-0.069-3.577,0.825-4.765
	c0.044,0.055,0.094,0.134,0.118,0.174c0.529,0.902,0.732,1.92,1.023,3.003c0.865,3.216,0.162,2.266,1.271,2.907
	c0.322-0.549-0.277-2.428-0.367-3.766c0.708,0.4,0.227,0.164,0.757,0.752c0.442,0.492,0.137,0.297,0.704,0.582l0.91,0.418
	c0.066,0.045,0.27,0.229,0.316,0.266l0.302,0.303c0.067-0.023,0.146-0.09,0.183-0.107c1.715-0.869,0.197,1.164,3.232,2.822
	l0.516,0.063l0.001,0.539c0.875,0.332,0.442,0.25,1.681-0.693c0.952-0.725,0.682-0.184,1.173-1.463
	c1.093-2.844,0.648-0.186,2.437-2.184l0.155-0.654c0.47,0.279,0.177-0.106,0.308,0.566l0.187,0.381
	c0.124-0.186,0.373-0.611,0.404-0.656c1.073-1.582,0.734-1.385,1.523-1.631c-0.017,1.213-0.594,2.822-0.265,3.315
	c0.835-0.735,0.806-1.321,0.76-2.571l0.102-0.672l0.482-0.002l0.13-1.484c1.879-0.228,1.051,2.406,1.672,3.643
	c1.021-1.117,0.339-2.37,1.961-4.716c1.215-0.031-0.045,0.088,0.679,0.126c1.164,0.061-0.16-0.287,1.176-0.645
	c0.733,1.291,0.222,1.957,1.114,3.08l0.294-1.363c0.016-0.355-0.016-0.928-0.037-1.295c-0.049-0.824-0.158-1.57-0.175-2.414
	l-0.466,0.002l-0.105-0.731c-0.168-1.147-0.494-1.597-0.258-2.58c0.153-0.64,0.015-0.231,0.295-0.569
	c0.43,1.041,0.002-0.152,0.686,0.83c0.719,1.035,0.564,2.435,1.128,3.264c0.566-1.877-1.311-7.608,0.846-5.508
	c0.752,0.731,1.531,2.638,1.775,3.74l0.464,0.004l0.139,0.688c-0.101,3.5-0.025,2.525,0.548,2.729
	c0.282-1.344,0.137-3.306,0.144-4.75c0.011-2.168,0.722-0.357,0.749-2.572c0.038-3.141,0.402-1.408-0.024-4.195
	c1.582,1.742,1.328,1.843,2.388,3.135c-0.136-1.734-0.3-1.727-0.884-2.765c-0.028-0.05-0.067-0.116-0.094-0.167
	c-0.025-0.047-0.258-0.571-0.328-0.715l-0.868-1.475c-0.945-1.299-0.72-0.076-0.984-1.551c0.83-0.23,0.161,0.352,0.848-0.712
	l1.573,1.548c0.619-0.258,0.097,0.037,0.499-0.486c0.04-0.053,0.191-0.23,0.213-0.353c0.019-0.101,0.06-0.134,0.102-0.19
	c0.409,0.791,0.971,2.045,1.546,2.951c0.586-0.904,0.249-0.895-0.184-1.933c-0.567-1.356-1.012-3.759-2.619-4.466
	c0.244,1.055-0.009,0.744-0.325,1.06c-1.023-0.594-0.259-0.748-1.984-1.137c0.45,0.821-0.005,0.823,0.859,1.21
	c-0.174,0.124,0.32,0.628-1.705-0.082c-0.65-0.227-0.88-0.457-1.235-0.564c1.086,2.969,1.385,0.713,0.179,2.5
	c0.249,0.246,0.48,0.426,0.791,0.702c0.705,0.63-0.22,0.147,0.674,0.56l-1.277,0.551c0.756,0.548,1.934,1.807,1.765,2.621
	c-0.084,0.406-0.359-0.094-1.049,1.479c-0.024,0.055-0.049,0.129-0.074,0.18c-0.643,1.322-0.937-0.928-0.19,2.518
	c-0.692-0.686-2.643-2.473-3.098-3.293c-0.232,0.432-0.098,0.391-0.446,0.712l-0.662,0.413c-0.028-0.053-0.131,0.051-0.188,0.09
	c0.266,1.313,0.544,0.811,0.744,1.791c-0.604-0.111-0.448-0.044-1.073-0.384c-0.745-0.406-0.285,0.03-0.75-0.589l-1.231,1.017
	c0.805,2.114,1.165,1.494,1.327,4.195c-0.057,0.038-0.15,0.063-0.188,0.084l-1.17,1.249c-0.598-0.012-0.726,0.035-1.032,0.086
	c-0.653,0.107-0.293,0.027-0.548,0.154c0.08,1.006,0.264,1.658,0.017,2.58c-0.139,0.518-0.106,0.34-0.293,0.607
	c-0.159-1.072-1.467-2.848-2.076-3.34c-0.42,0.596-0.26,0.675-0.264,1.535c-1.314-0.157-1.151,0.076-1.506,1.324
	c-0.955-0.31-0.25,0.33-1.052-0.765l-0.347,1.312l-0.406-0.719c-0.307-0.406-0.121-0.264-0.353-0.236l-0.271,1.347l0.031,0.69
	h-0.502c-1.182,2.336-1.064,2.611-2.692,3.711c-1.106-1.303-0.347-1.086-1.024-2.321l-0.235,1.938l-0.085,0.432l-0.604-0.002
	c-1.674-0.92-1.42-0.773-2.256-2.811c-0.227-0.552-0.52-1.943-1.154-1.728c-0.027,0.009-0.093,0.062-0.12,0.079
	c-1.204,0.777,0.826-0.811-0.232,0.251c-0.601,0.603,0.523,0.096-0.585,0.522l-0.314-2.603c-0.608,1.552,0.27,1.079-1.072,1.833
	L18.736,73.6l-0.965,0.047l0.123-1.917c-1.801,1.12-1.673,2.701-2.718,4.102c-0.518-0.945-0.16-2.021-0.329-3.65
	c-0.899,0.348-1.63,0.845-2.402,1.025l0.329-2.031c-1.099,0.714,0.048,0.549-1.157,0.873c0.186-2.842,1.507-4.623,1.776-5.44
	c-0.057-0.043-0.144-0.08-0.19-0.101l-1.435-0.41c-0.508,0.393-1.052,0.709-1.287,1.333c-0.1-0.208-0.665,0.219,0.284-1.279
	c0.929-1.468,0.329-1.31,0.254-1.368v0.498L10.4,65.278l-0.729,0.219c-0.698-1.078,0.368-1.143-0.803-0.773l-0.001,0.548
	l-0.512,0.069c-0.572,0.473-0.362,0.324-0.741,0.764c-0.427,0.495-0.347,0.335-0.556,0.744C6.554,67.831,7.033,68.224,6,68.673
	c-0.034-0.055-0.059-0.139-0.069-0.18c-0.011-0.041-0.05-0.133-0.061-0.185l0.04-1.276c0.359-1.287,0.049-0.219,0.687-1.211
	l-1.018-0.787c0.489-1.824-0.263-1.793,0.212-2.781l1.756-2.627l-1.801,0.597l0.216-0.72l0.026-0.519h0.557l0.113-0.805
	l-0.695,0.026v-0.524l0.055-0.457l0.003-0.603h0.502c-0.545-0.393,0.246-0.092-0.571-0.191c-0.247-0.03-0.393-0.008-0.637,0.025
	c-0.276,0.037-0.76,0.188-1.196,0.234l0.821-1.956c-0.538,0.245-0.648,0.285-1.061,0.595c-0.203,0.152-0.709,0.621-0.735,0.637
	c-1.504,0.969-0.748-1.028-1.079,0.084c-0.631,0.275-0.181-0.131-0.596,0.511c-0.395,0.606-1.511,3.799-1.468,5.327l2.084-4.211
	c0.409,0.488,0.258,0.078,0.312,1.055c0,0.008-0.08,0.9-0.085,1.041c1.322-0.699,0.454-0.9,1.867-1.346
	c0.41,3.471-1.728,4.335-1.9,7.391c0.901-0.699,0.589-0.184,0.818-1.168c0.049,0.064,0.082,0.169,0.107,0.217
	c0.024,0.045,0.074,0.151,0.102,0.201c0.437,0.782,0.837,0.5,0.84,0.491c0.019-0.058,0.118-0.019,0.173,0
	c-0.105,0.784-0.361,2.071-0.181,2.812c0.363,1.494,0.54-0.927,0.595,1.875c0.034,1.725-0.241,3.883,0.481,5.242l0.45-1.085
	c0.275-1.549-0.14-1.634,0.608-3.329c0.58-1.314,0.397-2.939,1.634-3.844c0.75-0.548,0.202-0.33,1.395-0.459l0.011,4.229
	c0.029-0.051,0.073-0.125,0.104-0.181c0.039-0.069,0.155-0.276,0.193-0.348c0.98-1.839,0.229-1.468,1.373-1.786
	c0.353,0.678,0.158,1.589-0.184,2.449c-0.701,1.766-0.847,5.712-0.683,6.425c0.227,0.985,0.307,0.284,0.314,0.28
	c1.077-0.455-0.124-1.032,1.194-3.223c0.068,0.379,0.074,0.891,0.126,1.149l0.115,0.421c0.013,0.047,0.069,0.229,0.079,0.191
	c0.011-0.034,0.046,0.133,0.087,0.188l0.369-0.986c0.131-0.52,0.055-0.385,0.17-0.924C13.214,74.737,13.264,74.766,13.641,74.952z"
	/>
<path fill-rule="evenodd" clip-rule="evenodd" fill="#DCC125" d="M33.504,30.947c-1.001-0.164-0.408-0.142-0.708-0.308
	c-2.223-1.229-3.221-1.72-5.178,0.948c-1.796,2.449-1.949,3.661-1.429,7.308l-1.526,0.042c0.292-2.758,1.407-2.481-1.242-7.052
	c-2.376-4.098-4.374-1.204-5.868-0.872c-0.125-0.944-0.175-0.718-0.446-1.537c-1.628,0.293-0.777,0.767-2.066,0.554l-0.157,1.295
	c-4.116-0.679-4.429-0.956-5.889,1.023c0.98,0.255,0.768-0.3,1.24,1.233c0.332,1.078,0.01,1.414-1.425,2.293
	c-1.049,0.643-0.878,0.915-1.657,1.256c2.089-0.072,1.791-0.359,2.931-1.036c0.771-0.458,1.86-0.745,2.282-2.238
	c0.259-0.916-0.092-1.15-0.27-1.383c-1.371-1.795,0.42,0.981-0.438-0.498c1.867,0.12,4.086,1.469,5.098-0.421
	c2.188,2.673,1.936-0.906,4.363-0.498c0.868,0.147,1.091,0.599,1.482,1.125c2.741,3.698,0.304,5.175,1.033,8.14
	c1.286,0.481,2.474,0.559,3.456-0.094c0.957-2.594-1.743-3.43,1.038-7.578c0.001-0.001,1.046-2.693,2.993-1.41
	c0.923,0.609,0.024,0.569,1.299,1.118c1.245,0.536,1.051,0.108,1.895-0.453c0.065,0.032,0.144,0.039,0.175,0.131
	c0.386,1.147,3.578-0.208,4.977,0.044c-0.566,0.853-0.166,0.125-1.112,0.709c0.028,0.683,0.14,0.913,0.524,1.476
	c1.099,1.612,2.52,2.618,4.481,2.832c-0.249-0.44-0.044-0.294-0.514-0.76c-1.218-1.207-3.027-0.889-2.17-3.315
	c0.242-0.688,0.128-0.464,0.676-0.745c0.052-0.026,0.138-0.059,0.188-0.083l0.403-0.18c-0.056-0.039-0.139-0.168-0.165-0.117
	c-0.027,0.051-0.131-0.09-0.168-0.113c-3.396-2.054-2.239-0.963-5.198-0.544c-0.048-0.055-0.092-0.234-0.109-0.191
	c-0.122,0.3,0.249-0.574-1.178-1.058l-0.992-0.543C33.755,30.459,33.707,29.879,33.504,30.947"/>
<path fill="none" stroke="#DCC125" stroke-width="0.216" stroke-miterlimit="22.926" d="M33.504,30.947
	c-1.001-0.164-0.408-0.142-0.708-0.308c-2.223-1.229-3.221-1.72-5.178,0.948c-1.796,2.449-1.949,3.661-1.429,7.308l-1.526,0.042
	c0.292-2.758,1.407-2.481-1.242-7.052c-2.376-4.098-4.374-1.204-5.868-0.872c-0.125-0.944-0.175-0.718-0.446-1.537
	c-1.628,0.293-0.777,0.767-2.066,0.554l-0.157,1.295c-4.116-0.679-4.429-0.956-5.889,1.023c0.98,0.255,0.768-0.3,1.24,1.233
	c0.332,1.078,0.01,1.414-1.425,2.293c-1.049,0.643-0.878,0.915-1.657,1.256c2.089-0.072,1.791-0.359,2.931-1.036
	c0.771-0.458,1.86-0.745,2.282-2.238c0.259-0.916-0.092-1.15-0.27-1.383c-1.371-1.795,0.42,0.981-0.438-0.498
	c1.867,0.12,4.086,1.469,5.098-0.421c2.188,2.673,1.936-0.906,4.363-0.498c0.868,0.147,1.091,0.599,1.482,1.125
	c2.741,3.698,0.304,5.175,1.033,8.14c1.286,0.481,2.474,0.559,3.456-0.094c0.957-2.594-1.743-3.43,1.038-7.578
	c0.001-0.001,1.046-2.693,2.993-1.41c0.923,0.609,0.024,0.569,1.299,1.118c1.245,0.536,1.051,0.108,1.895-0.453
	c0.065,0.032,0.144,0.039,0.175,0.131c0.386,1.147,3.578-0.208,4.977,0.044c-0.566,0.853-0.166,0.125-1.112,0.709
	c0.028,0.683,0.14,0.913,0.524,1.476c1.099,1.612,2.52,2.618,4.481,2.832c-0.249-0.44-0.044-0.294-0.514-0.76
	c-1.218-1.207-3.027-0.889-2.17-3.315c0.242-0.688,0.128-0.464,0.676-0.745c0.052-0.026,0.138-0.059,0.188-0.083l0.403-0.18
	c-0.056-0.039-0.139-0.168-0.165-0.117c-0.027,0.051-0.131-0.09-0.168-0.113c-3.396-2.054-2.239-0.963-5.198-0.544
	c-0.048-0.055-0.092-0.234-0.109-0.191c-0.122,0.3,0.249-0.574-1.178-1.058l-0.992-0.543C33.755,30.459,33.707,29.879,33.504,30.947
	z"/>
<path fill-rule="evenodd" clip-rule="evenodd" fill="#DCC125" d="M18.293,63.459h0.553v0.565c0.169,0.097,1.002,0.502,1.161,0.637
	c0.637,0.545,1.023,1.67,1.429,2.482c0.24,0.478,0.014,0.205,0.339,0.569c0.06-0.062,0.207-0.235,0.252-0.284
	c0.686-0.764,0.93-1.007,2.14-1.296c1.393-0.332,2.205-0.37,2.816,0.712c0.445-0.464,0.673-0.98,1.51-0.49
	c0.613,0.359,0.643,0.986,1.365,1.361c0.432-0.539,0.46-1.104,0.646-1.777c0.173-0.627,0.352-1.071,0.535-1.543l1.571-0.018
	c0.333-1.92,0.039-1.889,2.001-2.089c-1.077-1.173-0.635-0.302-1.292-2.048c-0.026-0.067-0.206-0.438-0.287-0.617l-0.02-0.627h0.532
	l0.431-1.455c-0.517,0.373-0.455,0.428-1.048,0.852c-0.424,0.301-0.527,0.42-1.169,0.629c-0.259,0.574,0.111,0.324-0.59,0.539
	c-0.774-0.342-0.306,0.176-0.477-0.592c-0.893-0.209-1.101-0.156-1.862-0.76c-0.043-0.034-0.096-0.091-0.138-0.126
	c-0.06-0.049-0.217-0.204-0.279-0.251c-0.951-0.716-1.2-0.334-2.13-1.523c-0.035-0.043-0.077-0.108-0.111-0.154
	c-0.782-1.036-0.075-0.602-0.77-0.905c-1.168,1.649-0.453,1.31-2.183,2.364c-0.068,0.043-0.261,0.164-0.326,0.207
	c-4.126,2.709-4.832,0.076-5.922-0.361c0.381,2.307,0.917,2.132-0.179,4.43C18.769,63.474,17.309,62.405,18.293,63.459
	 M22.856,63.985l-1.107-0.064v-0.477l-1.192-0.383c-0.23-0.779-0.7-1.998-0.007-2.865c1.004-1.258,5.803-3.19,7.953-1.184h0.586
	v0.521c1.178,0.458,3.194,1.229,1.76,3.077c-0.631,0.813-0.152,0.334-1.177,0.685c-1.441,0.491-1.398,0.765-3.213,0.757
	C25.267,64.047,24.022,63.888,22.856,63.985"/>
<path fill="none" stroke="#DCC125" stroke-width="0.216" stroke-miterlimit="22.926" d="M18.293,63.459h0.553v0.565
	c0.169,0.097,1.002,0.502,1.161,0.637c0.637,0.545,1.023,1.67,1.429,2.482c0.24,0.478,0.014,0.205,0.339,0.569
	c0.06-0.062,0.207-0.235,0.252-0.284c0.686-0.764,0.93-1.007,2.14-1.296c1.393-0.332,2.205-0.37,2.816,0.712
	c0.445-0.464,0.673-0.98,1.51-0.49c0.613,0.359,0.643,0.986,1.365,1.361c0.432-0.539,0.46-1.104,0.646-1.777
	c0.173-0.627,0.352-1.071,0.535-1.543l1.571-0.018c0.333-1.92,0.039-1.889,2.001-2.089c-1.077-1.173-0.635-0.302-1.292-2.048
	c-0.026-0.067-0.206-0.438-0.287-0.617l-0.02-0.627h0.532l0.431-1.455c-0.517,0.373-0.455,0.428-1.048,0.852
	c-0.424,0.301-0.527,0.42-1.169,0.629c-0.259,0.574,0.111,0.324-0.59,0.539c-0.774-0.342-0.306,0.176-0.477-0.592
	c-0.893-0.209-1.101-0.156-1.862-0.76c-0.043-0.034-0.096-0.091-0.138-0.126c-0.06-0.049-0.217-0.204-0.279-0.251
	c-0.951-0.716-1.2-0.334-2.13-1.523c-0.035-0.043-0.077-0.108-0.111-0.154c-0.782-1.036-0.075-0.602-0.77-0.905
	c-1.168,1.649-0.453,1.31-2.183,2.364c-0.068,0.043-0.261,0.164-0.326,0.207c-4.126,2.709-4.832,0.076-5.922-0.361
	c0.381,2.307,0.917,2.132-0.179,4.43C18.769,63.474,17.309,62.405,18.293,63.459z M22.856,63.985l-1.107-0.064v-0.477l-1.192-0.383
	c-0.23-0.779-0.7-1.998-0.007-2.865c1.004-1.258,5.803-3.19,7.953-1.184h0.586v0.521c1.178,0.458,3.194,1.229,1.76,3.077
	c-0.631,0.813-0.152,0.334-1.177,0.685c-1.441,0.491-1.398,0.765-3.213,0.757C25.267,64.047,24.022,63.888,22.856,63.985z"/>
<path fill-rule="evenodd" clip-rule="evenodd" fill="#DCC125" d="M35.904,14.966c-0.856-0.189-0.32,0.29-0.598-0.536
	c-0.83-1.207-0.468-2.443-0.991-3.549c-1.116,0.162-0.601,1.148-2.413,2.212c-0.051,0.03-0.121,0.062-0.173,0.092
	c-0.972,0.566-1.163,0.903-2.398,0.808c-1.768-0.137-0.594-0.588-2.173-0.885c0.283,0.92-0.089,0.378,0.607,0.803
	c0.101,0.062,1.028,0.287,1.309,0.31c1.244,0.102,1.566-0.065,2.59-0.312l0.554-0.297c0.446,0.314,0.166-0.463,0.45,0.544
	c0.594-1.4,0.007-0.689,1.194-1.375l-0.308,1.616c0.048-0.077,0.391-0.242,0.497-0.353c0.03,1.703-0.041,0.879,0.712,1.178
	c-0.348,1.019-0.747,0.503-0.886,0.543c-1.968,0.568,1.457,0.906-5.33,0.673c-0.941-0.033-1.942-0.12-2.731,0.335l2.687,0.02
	c0.69-0.042,2.303-0.286,2.303,0.491c4.283-0.305,6.302,0.967,7.229,1.128l-0.714,0.261c0.561,0.31,0.539,0.158,0.851,0.789
	l-1.233,0.023l0.088,1.416c0.054,0.011,0.32,0.023,0.404,0.047l1.016-0.543c0.044-0.031,0.105-0.078,0.148-0.11
	c2.549-1.829-0.195-1.268,0.015-3.134c0.079-0.703,0.857-1.711,1.153-2.22l0.05-0.518h0.555l0.46-0.795
	c0.231-0.845-0.306-0.329,0.545-0.526c1.491-1.329,1.141-3.19,3.696-3.415c3.298-0.291,2.888-1.424,2.416-4.492
	c-2.51-0.96-6.027-0.872-5.363,2.394c0.245,1.208,0.908,0.879,0.448,2.522c-0.159,0.57-0.623,1.335-1.018,1.856
	c-0.73,0.96-0.884,0.695-1.734,1.402l-1.646,1.242c-0.384,0.224-0.168,0.308-1.094,0.447C36.59,15.132,36.306,15.054,35.904,14.966
	 M37.416,16.44l0.864-0.327l-0.301,0.675c-0.376,0.645,0.234,0.235-0.944,0.701l0.229-0.87
	C37.278,16.494,37.367,16.501,37.416,16.44 M36.795,16.781c0.005-0.045-0.084,0.112-0.239,0.167L36.795,16.781z"/>
<path fill="none" stroke="#DCC125" stroke-width="0.216" stroke-miterlimit="22.926" d="M35.904,14.966
	c-0.856-0.189-0.32,0.29-0.598-0.536c-0.83-1.207-0.468-2.443-0.991-3.549c-1.116,0.162-0.601,1.148-2.413,2.212
	c-0.051,0.03-0.121,0.062-0.173,0.092c-0.972,0.566-1.163,0.903-2.398,0.808c-1.768-0.137-0.594-0.588-2.173-0.885
	c0.283,0.92-0.089,0.378,0.607,0.803c0.101,0.062,1.028,0.287,1.309,0.31c1.244,0.102,1.566-0.065,2.59-0.312l0.554-0.297
	c0.446,0.314,0.166-0.463,0.45,0.544c0.594-1.4,0.007-0.689,1.194-1.375l-0.308,1.616c0.048-0.077,0.391-0.242,0.497-0.353
	c0.03,1.703-0.041,0.879,0.712,1.178c-0.348,1.019-0.747,0.503-0.886,0.543c-1.968,0.568,1.457,0.906-5.33,0.673
	c-0.941-0.033-1.942-0.12-2.731,0.335l2.687,0.02c0.69-0.042,2.303-0.286,2.303,0.491c4.283-0.305,6.302,0.967,7.229,1.128
	l-0.714,0.261c0.561,0.31,0.539,0.158,0.851,0.789l-1.233,0.023l0.088,1.416c0.054,0.011,0.32,0.023,0.404,0.047l1.016-0.543
	c0.044-0.031,0.105-0.078,0.148-0.11c2.549-1.829-0.195-1.268,0.015-3.134c0.079-0.703,0.857-1.711,1.153-2.22l0.05-0.518h0.555
	l0.46-0.795c0.231-0.845-0.306-0.329,0.545-0.526c1.491-1.329,1.141-3.19,3.696-3.415c3.298-0.291,2.888-1.424,2.416-4.492
	c-2.51-0.96-6.027-0.872-5.363,2.394c0.245,1.208,0.908,0.879,0.448,2.522c-0.159,0.57-0.623,1.335-1.018,1.856
	c-0.73,0.96-0.884,0.695-1.734,1.402l-1.646,1.242c-0.384,0.224-0.168,0.308-1.094,0.447C36.59,15.132,36.306,15.054,35.904,14.966z
	 M37.416,16.44l0.864-0.327l-0.301,0.675c-0.376,0.645,0.234,0.235-0.944,0.701l0.229-0.87
	C37.278,16.494,37.367,16.501,37.416,16.44z M36.795,16.781c0.005-0.045-0.084,0.112-0.239,0.167L36.795,16.781z"/>
<path fill-rule="evenodd" clip-rule="evenodd" fill="#DCC125" d="M29.608,43.986l0.497-0.013c0.828,0.308,0.165-0.163,0.557,0.608
	c0.007,0.013,0.137,0.604,0.206,0.776c1.074-1.732,0.665-1.431,3.163-1.872l-0.263,0.292c-0.2,0.175-0.089,0.091-0.453,0.36
	l-0.835,0.656l-0.044,0.349c1.227-0.215,0.936-0.358,1.88,0.494l0.265,0.263c0.037,0.038,0.095,0.091,0.13,0.129
	c0.408,0.449,0.221,0.119,0.525,0.727l-1.609-0.093c0.339,1.43,0.234,1.661,0.786,2.839c0.582,1.243,0.072,1.626,0.427,2.321
	c0.571-0.608,0.828-1.548,1.762-0.892c0.72,0.791,0.305,1.612-0.114,2.394c-0.652,1.217-0.811,0.728-1.286,1.644
	c1.199-0.102,1.327-0.256,2.269-0.885l-0.012-0.893l1.724-2.166c-0.242-0.854,0.233,0.105-0.722-0.598
	c-0.789-0.582-0.107-0.213-0.876-0.717c-0.881-0.576-0.794-0.183-1.868-0.754l-0.28-0.184c0.416-1.046,0.486-0.012,1.077-1.217
	c0.449-0.916,0.136-1.278,0.277-2.33l2.679-0.184l-1.207-0.966l0.057-3.64c-0.976,0.877-1.267,1.715-1.543,3.1
	c-1.502-0.134-0.783,0.334-0.883-0.702c-0.007-0.077,0.246-1.259,0.274-1.482C29.154,40.023,32.083,41.712,29.608,43.986
	 M31.694,43.453c-0.391-0.772-0.377-0.924,0-1.722l0.401,0.634c0.017-0.044,0.083,0.114,0.123,0.173l1.395-0.429
	C33.134,42.99,32.855,43.377,31.694,43.453 M34.031,43.485c0.092-1.275,0.043-0.5,0.284-0.865c0.144,0.286,0.292-0.07,0.17,0.565
	C34.351,43.882,34.645,43.273,34.031,43.485"/>
<path fill="none" stroke="#DCC125" stroke-width="0.216" stroke-miterlimit="22.926" d="M29.608,43.986l0.497-0.013
	c0.828,0.308,0.165-0.163,0.557,0.608c0.007,0.013,0.137,0.604,0.206,0.776c1.074-1.732,0.665-1.431,3.163-1.872l-0.263,0.292
	c-0.2,0.175-0.089,0.091-0.453,0.36l-0.835,0.656l-0.044,0.349c1.227-0.215,0.936-0.358,1.88,0.494l0.265,0.263
	c0.037,0.038,0.095,0.091,0.13,0.129c0.408,0.449,0.221,0.119,0.525,0.727l-1.609-0.093c0.339,1.43,0.234,1.661,0.786,2.839
	c0.582,1.243,0.072,1.626,0.427,2.321c0.571-0.608,0.828-1.548,1.762-0.892c0.72,0.791,0.305,1.612-0.114,2.394
	c-0.652,1.217-0.811,0.728-1.286,1.644c1.199-0.102,1.327-0.256,2.269-0.885l-0.012-0.893l1.724-2.166
	c-0.242-0.854,0.233,0.105-0.722-0.598c-0.789-0.582-0.107-0.213-0.876-0.717c-0.881-0.576-0.794-0.183-1.868-0.754l-0.28-0.184
	c0.416-1.046,0.486-0.012,1.077-1.217c0.449-0.916,0.136-1.278,0.277-2.33l2.679-0.184l-1.207-0.966l0.057-3.64
	c-0.976,0.877-1.267,1.715-1.543,3.1c-1.502-0.134-0.783,0.334-0.883-0.702c-0.007-0.077,0.246-1.259,0.274-1.482
	C29.154,40.023,32.083,41.712,29.608,43.986z M31.694,43.453c-0.391-0.772-0.377-0.924,0-1.722l0.401,0.634
	c0.017-0.044,0.083,0.114,0.123,0.173l1.395-0.429C33.134,42.99,32.855,43.377,31.694,43.453z M34.031,43.485
	c0.092-1.275,0.043-0.5,0.284-0.865c0.144,0.286,0.292-0.07,0.17,0.565C34.351,43.882,34.645,43.273,34.031,43.485z"/>
<path fill-rule="evenodd" clip-rule="evenodd" fill="#DCC125" d="M12.828,51.918l0.513,0.011l0.004,0.535
	c-0.035,0.895,0.022,0.141-0.153,0.607c-0.199,0.531-0.003-0.301-0.35,0.738c1.064,0.279,1.374,0.967,2.772,0.99
	c-0.725-1.215-1.764-2.643-1.598-4.037c1.434-0.259,1.506,0.211,2.117,1.032c0.089-0.624-0.007-0.942,0.073-1.44
	c0.299-1.864,0.445-0.014,1.364-3.743l-1.899,0.256l0.495-0.98c0.277-0.843-0.277-0.322,0.58-0.549
	c0.636-0.324,0.377-0.244,1.045-0.324c0.501-0.061,0.644,0.089,1.01-0.168l-1.52-1.261c1.659-0.005,2.256,0.501,2.933,1.77
	c0.581-1.233-0.257-0.837,0.935-1.761c-0.837-0.382-0.494-0.644-0.818-1.565c-0.717-2.042-3.196-1.004-5.418-0.919l0.002,1.365
	c0.568,0.225,0.323-0.115,0.55,0.536c-0.192,0.641,0.106,0.359-0.53,0.53l-0.333-0.219c-1.527-1.212-0.279-0.952-2.011-3.247
	c-0.216,4.458,0.996,1.583-0.735,4.903l2.674,0.241c0.105,1.222-0.371,0.986,0.024,2.064c0.57,1.557,0.839,0.135,0.831,1.758
	c-0.849,0.484-1.339,0.053-2.344,0.762C12.321,50.31,11.745,51.213,12.828,51.918 M18.913,42.216
	c0.425-0.72-0.402-0.186,0.471-0.612v0.686L18.913,42.216z M17.565,41.75c1.155,1.193,0.825,0.363,2.018,1
	C18.436,43.595,17.616,43.225,17.565,41.75 M17.28,43.586c-1.205-0.391-0.887-0.639-1.043-1.143l0.915,0.178
	C17.498,43.338,17.287,42.706,17.28,43.586"/>
<path fill="none" stroke="#DCC125" stroke-width="0.216" stroke-miterlimit="22.926" d="M12.828,51.918l0.513,0.011l0.004,0.535
	c-0.035,0.895,0.022,0.141-0.153,0.607c-0.199,0.531-0.003-0.301-0.35,0.738c1.064,0.279,1.374,0.967,2.772,0.99
	c-0.725-1.215-1.764-2.643-1.598-4.037c1.434-0.259,1.506,0.211,2.117,1.032c0.089-0.624-0.007-0.942,0.073-1.44
	c0.299-1.864,0.445-0.014,1.364-3.743l-1.899,0.256l0.495-0.98c0.277-0.843-0.277-0.322,0.58-0.549
	c0.636-0.324,0.377-0.244,1.045-0.324c0.501-0.061,0.644,0.089,1.01-0.168l-1.52-1.261c1.659-0.005,2.256,0.501,2.933,1.77
	c0.581-1.233-0.257-0.837,0.935-1.761c-0.837-0.382-0.494-0.644-0.818-1.565c-0.717-2.042-3.196-1.004-5.418-0.919l0.002,1.365
	c0.568,0.225,0.323-0.115,0.55,0.536c-0.192,0.641,0.106,0.359-0.53,0.53l-0.333-0.219c-1.527-1.212-0.279-0.952-2.011-3.247
	c-0.216,4.458,0.996,1.583-0.735,4.903l2.674,0.241c0.105,1.222-0.371,0.986,0.024,2.064c0.57,1.557,0.839,0.135,0.831,1.758
	c-0.849,0.484-1.339,0.053-2.344,0.762C12.321,50.31,11.745,51.213,12.828,51.918z M18.913,42.216
	c0.425-0.72-0.402-0.186,0.471-0.612v0.686L18.913,42.216z M17.565,41.75c1.155,1.193,0.825,0.363,2.018,1
	C18.436,43.595,17.616,43.225,17.565,41.75z M17.28,43.586c-1.205-0.391-0.887-0.639-1.043-1.143l0.915,0.178
	C17.498,43.338,17.287,42.706,17.28,43.586z"/>
<path fill-rule="evenodd" clip-rule="evenodd" fill="#DCC125" d="M2.035,48.665l0.033,0.639h-0.53l-0.314,2.611l0.715-0.91
	c0.35-0.654,0.252-0.744,0.527-1.305c0.483-0.979,0.076-0.009,0.611-0.962c1.454-2.592,2.36-6.209,4.177-7.892l2.567-2.151
	c1.233-1.12,1.272-0.391,2.32-1.62c0.648-0.76,0.198-0.021,0.565-1.023c-0.699,0.318-0.681,0.359-1.192,0.654l-3.179,1.843
	c-0.047,0.03-0.104,0.08-0.152,0.11l-1.134,0.423c-0.316-0.59-0.14-0.388-0.357-0.968c-0.604-1.609-1.061-1.434-0.655-3.642
	L6.023,33.79h0.491l0.446-2.202c-0.409,1.528-0.456,0.039-1.623,1.617c-0.591,0.799-1.004,3.633-1.047,4.302l1.563,3.26
	c-2.773,1.077-1.741,2.937-3.927,5.509c-0.434,0.511-0.055-0.117-0.367,0.421c-0.404,0.696-0.27,0.398-0.226,1.297
	C2.252,48.337,1.975,47.193,2.035,48.665"/>
<path fill="none" stroke="#DCC125" stroke-width="0.216" stroke-miterlimit="22.926" d="M2.035,48.665l0.033,0.639h-0.53
	l-0.314,2.611l0.715-0.91c0.35-0.654,0.252-0.744,0.527-1.305c0.483-0.979,0.076-0.009,0.611-0.962
	c1.454-2.592,2.36-6.209,4.177-7.892l2.567-2.151c1.233-1.12,1.272-0.391,2.32-1.62c0.648-0.76,0.198-0.021,0.565-1.023
	c-0.699,0.318-0.681,0.359-1.192,0.654l-3.179,1.843c-0.047,0.03-0.104,0.08-0.152,0.11l-1.134,0.423
	c-0.316-0.59-0.14-0.388-0.357-0.968c-0.604-1.609-1.061-1.434-0.655-3.642L6.023,33.79h0.491l0.446-2.202
	c-0.409,1.528-0.456,0.039-1.623,1.617c-0.591,0.799-1.004,3.633-1.047,4.302l1.563,3.26c-2.773,1.077-1.741,2.937-3.927,5.509
	c-0.434,0.511-0.055-0.117-0.367,0.421c-0.404,0.696-0.27,0.398-0.226,1.297C2.252,48.337,1.975,47.193,2.035,48.665z"/>
<path fill-rule="evenodd" clip-rule="evenodd" fill="#DCC125" d="M39.325,36.731l-0.477,0.272c1.1,0.438,0.406,0.343,0.799,0.665
	c0.338,0.277-0.035,0.073,0.468,0.329c0.014,0.007,0.673,0.212,0.783,0.254l0.525,0.028v0.549c0.921,0.602,3.062,2.723,3.836,4.003
	c1.662,2.747,0.285,2.019,1.765,3.729l1.739,3.501c0.327,0.67,0.134,0.241,0.448,0.834c0.331,0.621,0.133,0.486,0.572,1.055
	c0.327-0.766,0.062-1.508-0.216-2.488c-0.122-0.434-0.3-0.751-0.182-1.104c0.232-0.689-0.193,0.014,0.253-0.253l0.259-0.081
	c0.02-0.007,0.098-0.008,0.14-0.03c-0.439-2.23-0.757-0.405-1.813-3.655c-1.324-4.075-5.141-3.489-1.76-5.994
	c-0.103-6.798-1.177-4.966-2.338-6.755c0.029,0.291,2.108,4.9-0.373,7.499C43.067,38.961,40.866,37.344,39.325,36.731"/>
<path fill="none" stroke="#DCC125" stroke-width="0.216" stroke-miterlimit="22.926" d="M39.325,36.731l-0.477,0.272
	c1.1,0.438,0.406,0.343,0.799,0.665c0.338,0.277-0.035,0.073,0.468,0.329c0.014,0.007,0.673,0.212,0.783,0.254l0.525,0.028v0.549
	c0.921,0.602,3.062,2.723,3.836,4.003c1.662,2.747,0.285,2.019,1.765,3.729l1.739,3.501c0.327,0.67,0.134,0.241,0.448,0.834
	c0.331,0.621,0.133,0.486,0.572,1.055c0.327-0.766,0.062-1.508-0.216-2.488c-0.122-0.434-0.3-0.751-0.182-1.104
	c0.232-0.689-0.193,0.014,0.253-0.253l0.259-0.081c0.02-0.007,0.098-0.008,0.14-0.03c-0.439-2.23-0.757-0.405-1.813-3.655
	c-1.324-4.075-5.141-3.489-1.76-5.994c-0.103-6.798-1.177-4.966-2.338-6.755c0.029,0.291,2.108,4.9-0.373,7.499
	C43.067,38.961,40.866,37.344,39.325,36.731z"/>
<path fill-rule="evenodd" clip-rule="evenodd" fill="#DCC125" d="M21.676,51.948l0.606-0.002v0.5
	c0.603,0.189,1.157,0.359,1.681,0.668c1.811,1.066,0.365,1.814,3.605-0.061l1.087-0.763c0.039-0.034,0.094-0.09,0.134-0.123
	l0.755-0.522l0.039-0.521h0.562l0.541-1.783c-1.857,0.08-2.805-0.076-4.54,0.191c0.631,0.34,1.386,0.148,2.013,0.162
	c-0.143,0.188-0.199,0.293-0.349,0.449c-1.272,1.338-1.191,1.582-2.004,1.66c-0.948,0.09-0.893,0.082-1.98-1.18
	c-0.582-0.675-0.224,0.143-0.503-0.797l1.519-0.262c-1.469-0.547-3.198-0.012-4.412-0.252l0.179,2.453L21.676,51.948z"/>
<path fill="none" stroke="#DCC125" stroke-width="0.216" stroke-miterlimit="22.926" d="M21.676,51.948l0.606-0.002v0.5
	c0.603,0.189,1.157,0.359,1.681,0.668c1.811,1.066,0.365,1.814,3.605-0.061l1.087-0.763c0.039-0.034,0.094-0.09,0.134-0.123
	l0.755-0.522l0.039-0.521h0.562l0.541-1.783c-1.857,0.08-2.805-0.076-4.54,0.191c0.631,0.34,1.386,0.148,2.013,0.162
	c-0.143,0.188-0.199,0.293-0.349,0.449c-1.272,1.338-1.191,1.582-2.004,1.66c-0.948,0.09-0.893,0.082-1.98-1.18
	c-0.582-0.675-0.224,0.143-0.503-0.797l1.519-0.262c-1.469-0.547-3.198-0.012-4.412-0.252l0.179,2.453L21.676,51.948z"/>
<path fill-rule="evenodd" clip-rule="evenodd" fill="#DCC125" d="M5.54,50.579l-0.027,0.229c1.71-1.277,1.842-2.143,3.874-2.817
	v-0.531c0.663,0.169,0.367-0.116,0.608,0.51c0.335,0.721,0.25,0.968,0.987,1.309c0.45-0.55,0.12,0.352,0.169-0.508
	c0.046-0.816,0.011,0.133-0.049-0.606c-0.078-0.95-0.191-0.497,0.102-1.466L9.526,46.37c0.788-0.394,0.452-0.308,0.875-1.032
	c-1.155-0.945-0.997,0.925-0.982-3.937c-1.189,0.562-1.927,1.143-2.578,2.205c-0.502,0.819-0.017,0.624-0.805,0.959
	c0.186,0.913-0.267,0.115,0.523,0.511c0.427,0.214,0.247-0.165,0.938,0.269c-0.602,0.318-0.454,0.507-0.766,1.279
	c-0.439,1.083-0.518,0.542-0.75,1.615c1.899-0.253,0.354,0.629-0.155,1.43C5.437,50.284,5.605,50.069,5.54,50.579"/>
<path fill="none" stroke="#DCC125" stroke-width="0.216" stroke-miterlimit="22.926" d="M5.54,50.579l-0.027,0.229
	c1.71-1.277,1.842-2.143,3.874-2.817v-0.531c0.663,0.169,0.367-0.116,0.608,0.51c0.335,0.721,0.25,0.968,0.987,1.309
	c0.45-0.55,0.12,0.352,0.169-0.508c0.046-0.816,0.011,0.133-0.049-0.606c-0.078-0.95-0.191-0.497,0.102-1.466L9.526,46.37
	c0.788-0.394,0.452-0.308,0.875-1.032c-1.155-0.945-0.997,0.925-0.982-3.937c-1.189,0.562-1.927,1.143-2.578,2.205
	c-0.502,0.819-0.017,0.624-0.805,0.959c0.186,0.913-0.267,0.115,0.523,0.511c0.427,0.214,0.247-0.165,0.938,0.269
	c-0.602,0.318-0.454,0.507-0.766,1.279c-0.439,1.083-0.518,0.542-0.75,1.615c1.899-0.253,0.354,0.629-0.155,1.43
	C5.437,50.284,5.605,50.069,5.54,50.579z"/>
<path fill-rule="evenodd" clip-rule="evenodd" fill="#DCC125" d="M39.834,47.928h0.479l0.019,0.622h-0.506
	c-0.211,1.547-0.088,0.397,0.257,0.844c1.813-1.084,0.124-2.629,5.424,1.564c0.422,0.334,0.293,0.032,0.496,0.604
	c-0.114-0.663-0.41-0.85-0.721-1.414c-0.504-0.915-0.411-0.667-0.931-1.419c0.007-0.058,0.061-0.195,0.068-0.159
	c0,0.001,0.423-0.366,0.08-1.283c-0.186-0.499-0.51-1.062-0.746-1.652c0.553-0.505-0.145-0.01,0.554-0.307
	c0.439-0.185,0.152,0.052,0.677-0.218c-1.55-2.429,0.177-0.38-2.344-2.835c-0.303-0.294-0.505-0.577-0.984-0.841l0.148,3.676
	l-1.22,0.525c0.212,0.479,0.488,0.726,0.776,1.047l-1.686,0.315L39.834,47.928z"/>
<path fill="none" stroke="#DCC125" stroke-width="0.216" stroke-miterlimit="22.926" d="M39.834,47.928h0.479l0.019,0.622h-0.506
	c-0.211,1.547-0.088,0.397,0.257,0.844c1.813-1.084,0.124-2.629,5.424,1.564c0.422,0.334,0.293,0.032,0.496,0.604
	c-0.114-0.663-0.41-0.85-0.721-1.414c-0.504-0.915-0.411-0.667-0.931-1.419c0.007-0.058,0.061-0.195,0.068-0.159
	c0,0.001,0.423-0.366,0.08-1.283c-0.186-0.499-0.51-1.062-0.746-1.652c0.553-0.505-0.145-0.01,0.554-0.307
	c0.439-0.185,0.152,0.052,0.677-0.218c-1.55-2.429,0.177-0.38-2.344-2.835c-0.303-0.294-0.505-0.577-0.984-0.841l0.148,3.676
	l-1.22,0.525c0.212,0.479,0.488,0.726,0.776,1.047l-1.686,0.315L39.834,47.928z"/>
<path fill-rule="evenodd" clip-rule="evenodd" fill="#DCC125" d="M21.21,39.702h-0.53c0.174-1.257-0.146-0.597,0.563-0.811
	c0.184-1.113,0.925-1.669-0.036-2.871c-1.019,0.303-0.359,0.194-0.847,1.185c-0.507,1.03-0.378,0.466-1.282,1.088
	c0.044,2.363,0.537,2.458,2.406,3.146l0.129,2.036c1.486-0.414,1.458-2.947,1.503-4.228C22.343,39.71,21.838,40.931,21.21,39.702"/>
<path fill="none" stroke="#DCC125" stroke-width="0.216" stroke-miterlimit="22.926" d="M21.21,39.702h-0.53
	c0.174-1.257-0.146-0.597,0.563-0.811c0.184-1.113,0.925-1.669-0.036-2.871c-1.019,0.303-0.359,0.194-0.847,1.185
	c-0.507,1.03-0.378,0.466-1.282,1.088c0.044,2.363,0.537,2.458,2.406,3.146l0.129,2.036c1.486-0.414,1.458-2.947,1.503-4.228
	C22.343,39.71,21.838,40.931,21.21,39.702z"/>
<path fill-rule="evenodd" clip-rule="evenodd" fill="#DCC125" d="M12.254,5.17l0.215,0.682l2.392,0.271
	c0.185,1.672-0.344,5.432,0.316,6.636c0.752-1.379,0.224-3.913,0.175-5.56c0.06,0.06,0.149,0.062,0.176,0.183l2.752,4.675h0.592
	v0.565l1.674,0.504l-0.027-0.416c-1.367-0.178-1.011-0.543-1.919-1.716c-0.489-0.633-2.609-4.041-2.659-4.686
	c-0.054-0.679,0.123-1.013,0.208-1.577l-0.447,0.001c-1.077,1.253-0.97,1.164-2.045,0.732l-0.36-0.172
	C12.734,5.105,12.674,5.175,12.254,5.17"/>
<path fill="none" stroke="#DCC125" stroke-width="0.216" stroke-miterlimit="22.926" d="M12.254,5.17l0.215,0.682l2.392,0.271
	c0.185,1.672-0.344,5.432,0.316,6.636c0.752-1.379,0.224-3.913,0.175-5.56c0.06,0.06,0.149,0.062,0.176,0.183l2.752,4.675h0.592
	v0.565l1.674,0.504l-0.027-0.416c-1.367-0.178-1.011-0.543-1.919-1.716c-0.489-0.633-2.609-4.041-2.659-4.686
	c-0.054-0.679,0.123-1.013,0.208-1.577l-0.447,0.001c-1.077,1.253-0.97,1.164-2.045,0.732l-0.36-0.172
	C12.734,5.105,12.674,5.175,12.254,5.17z"/>
<path fill-rule="evenodd" clip-rule="evenodd" fill="#DCC125" d="M29.583,38.829h0.491c0.047,1.693,0.253,0.561-0.449,0.956
	c-0.282,0.546-0.295,0.619-1.179-0.075c-1.661-1.305,0.937,0.415-0.5-0.474c-0.009,1.052,0.309,3.865,1.125,4.198l0.215-1.998
	c2.043-0.709,2.392-0.737,2.452-3.143c-2.232-1.55-0.784-1.915-2.142-2.257C28.788,37.306,29.353,37.56,29.583,38.829"/>
<path fill="none" stroke="#DCC125" stroke-width="0.216" stroke-miterlimit="22.926" d="M29.583,38.829h0.491
	c0.047,1.693,0.253,0.561-0.449,0.956c-0.282,0.546-0.295,0.619-1.179-0.075c-1.661-1.305,0.937,0.415-0.5-0.474
	c-0.009,1.052,0.309,3.865,1.125,4.198l0.215-1.998c2.043-0.709,2.392-0.737,2.452-3.143c-2.232-1.55-0.784-1.915-2.142-2.257
	C28.788,37.306,29.353,37.56,29.583,38.829z"/>
<path fill-rule="evenodd" clip-rule="evenodd" fill="#DCC125" d="M34.612,1.81l2.359,0.063l0.153,2.101l-1.832,0.055l-0.469-1.382
	c-0.58,0.752-0.061,0.42-0.664,0.792l-0.146-1.021c-0.569,0.923-0.573,1.795-0.02,2.51c0.374-1.186-0.054-0.422,0.497-0.72
	c0.5,1.078,1.915,0.812,3.233,0.607c0.041-0.06,0.094-0.227,0.108-0.189l0.592-1.89c1.071,2.217-0.564,1.758-1.036,3.079
	c1.646-0.338,0.429-0.681,1.816-1.172c0.054-0.948,0.156-0.978-0.188-1.732C38.088,0.884,35.729,1.045,34.612,1.81"/>
<path fill="none" stroke="#DCC125" stroke-width="0.216" stroke-miterlimit="22.926" d="M34.612,1.81l2.359,0.063l0.153,2.101
	l-1.832,0.055l-0.469-1.382c-0.58,0.752-0.061,0.42-0.664,0.792l-0.146-1.021c-0.569,0.923-0.573,1.795-0.02,2.51
	c0.374-1.186-0.054-0.422,0.497-0.72c0.5,1.078,1.915,0.812,3.233,0.607c0.041-0.06,0.094-0.227,0.108-0.189l0.592-1.89
	c1.071,2.217-0.564,1.758-1.036,3.079c1.646-0.338,0.429-0.681,1.816-1.172c0.054-0.948,0.156-0.978-0.188-1.732
	C38.088,0.884,35.729,1.045,34.612,1.81z"/>
<path fill-rule="evenodd" clip-rule="evenodd" fill="#DCC125" d="M35.058,5.863l-0.316,0.138c1.084,0.784-0.232,0.814,0.149,2.169
	c0.06,0.214,0.097-0.355,0.207,0.753c0.071,0.718-0.186,2.496,0.127,3.594c0.294,1.033,0.197,0.447,0.974,1.57
	c1.958,0.084,2.313,0.015,2.625-0.943c-0.968,0.432-0.771,0.923-2.283,0.377c-0.845-2.251-0.782-5.608,0.414-7.666L35.058,5.863z"/>
<path fill="none" stroke="#DCC125" stroke-width="0.216" stroke-miterlimit="22.926" d="M35.058,5.863l-0.316,0.138
	c1.084,0.784-0.232,0.814,0.149,2.169c0.06,0.214,0.097-0.355,0.207,0.753c0.071,0.718-0.186,2.496,0.127,3.594
	c0.294,1.033,0.197,0.447,0.974,1.57c1.958,0.084,2.313,0.015,2.625-0.943c-0.968,0.432-0.771,0.923-2.283,0.377
	c-0.845-2.251-0.782-5.608,0.414-7.666L35.058,5.863z"/>
<path fill-rule="evenodd" clip-rule="evenodd" fill="#DCC125" d="M24.895,7.341c0.417-0.873-0.008-0.778,0.861-1.153
	c0.055,0.172,0.298,6.627,3.313,6.939c0.334,0.034,1.145-0.014,1.47-0.115c0.914-0.283,0.776-0.48,0.905-0.927
	c-0.589,0.287-1.974,1.776-3.041-0.125c-0.194-0.346-0.188-0.508-0.43-0.862c-1.243-1.815-2.022-3.635-1.986-6.241l-1.069-0.102
	l-0.002-0.486L24.173,4.62l0.781,0.378L24.895,7.341z"/>
<path fill="none" stroke="#DCC125" stroke-width="0.216" stroke-miterlimit="22.926" d="M24.895,7.341
	c0.417-0.873-0.008-0.778,0.861-1.153c0.055,0.172,0.298,6.627,3.313,6.939c0.334,0.034,1.145-0.014,1.47-0.115
	c0.914-0.283,0.776-0.48,0.905-0.927c-0.589,0.287-1.974,1.776-3.041-0.125c-0.194-0.346-0.188-0.508-0.43-0.862
	c-1.243-1.815-2.022-3.635-1.986-6.241l-1.069-0.102l-0.002-0.486L24.173,4.62l0.781,0.378L24.895,7.341z"/>
<path fill-rule="evenodd" clip-rule="evenodd" fill="#DCC125" d="M25.92,2.382c-2.532,0.256-1.188-0.025-2.59-0.795
	c-0.508,4.712,5.89,1.16,3.12-0.826C25.986,1.021,25.961,0.674,25.92,2.382"/>
<path fill="none" stroke="#DCC125" stroke-width="0.216" stroke-miterlimit="22.926" d="M25.92,2.382
	c-2.532,0.256-1.188-0.025-2.59-0.795c-0.508,4.712,5.89,1.16,3.12-0.826C25.986,1.021,25.961,0.674,25.92,2.382z"/>
<path fill-rule="evenodd" clip-rule="evenodd" fill="#DCC125" d="M18.859,13.698c0.018,0.017-0.06,0.155,0.541,0.439
	c0.357,0.168,0.601,0.189,1.071,0.269l1.793,0.024c1.301-0.294,1.251-0.631,1.947-1.203c0.741-0.609,0.078,0.389,0.751-0.799
	c0.547-0.966,0.001-0.619,0.96-0.903L25.77,10c-0.984,0.25-0.327-0.41-1.098,1.103C23.163,14.068,22.165,14.586,18.859,13.698"/>
<path fill="none" stroke="#DCC125" stroke-width="0.216" stroke-miterlimit="22.926" d="M18.859,13.698
	c0.018,0.017-0.06,0.155,0.541,0.439c0.357,0.168,0.601,0.189,1.071,0.269l1.793,0.024c1.301-0.294,1.251-0.631,1.947-1.203
	c0.741-0.609,0.078,0.389,0.751-0.799c0.547-0.966,0.001-0.619,0.96-0.903L25.77,10c-0.984,0.25-0.327-0.41-1.098,1.103
	C23.163,14.068,22.165,14.586,18.859,13.698z"/>
<path fill-rule="evenodd" clip-rule="evenodd" fill="#DCC125" d="M15.702,4.732l0.274-1.805c-0.208-0.144-0.567-0.4-0.62-0.456
	c-0.392-0.417-0.205,0.002-0.393-0.612c-0.782,0.909,0.163,0.47-0.396,2.004c-1.339,0.286-1.562,0.341-2.222-0.396
	C12.337,6.178,14.092,4.833,15.702,4.732"/>
<path fill="none" stroke="#DCC125" stroke-width="0.216" stroke-miterlimit="22.926" d="M15.702,4.732l0.274-1.805
	c-0.208-0.144-0.567-0.4-0.62-0.456c-0.392-0.417-0.205,0.002-0.393-0.612c-0.782,0.909,0.163,0.47-0.396,2.004
	c-1.339,0.286-1.562,0.341-2.222-0.396C12.337,6.178,14.092,4.833,15.702,4.732z"/>
<path fill-rule="evenodd" clip-rule="evenodd" fill="#DCC125" d="M21.644,12.773v0.454l1.057-0.168
	c0.924-1.314,2.057-3.706,2.193-5.719l-1.983,4.354C22.371,12.889,22.806,12.721,21.644,12.773"/>
<path fill="none" stroke="#DCC125" stroke-width="0.216" stroke-miterlimit="22.926" d="M21.644,12.773v0.454l1.057-0.168
	c0.924-1.314,2.057-3.706,2.193-5.719l-1.983,4.354C22.371,12.889,22.806,12.721,21.644,12.773z"/>
<path fill-rule="evenodd" clip-rule="evenodd" fill="#DCC125" d="M23.614,42.948l3.772-0.014c-1.452-0.918-1.216,0.093-1.459-1.36
	L23.614,42.948z"/>
<path fill="none" stroke="#DCC125" stroke-width="0.216" stroke-miterlimit="22.926" d="M23.614,42.948l3.772-0.014
	c-1.452-0.918-1.216,0.093-1.459-1.36L23.614,42.948z"/>
<path fill-rule="evenodd" clip-rule="evenodd" fill="#DCC125" d="M12.263,1.786c0.45-0.253,0.651-0.406,1.338-0.419
	c0.255-0.004,0.541,0.028,0.782,0.11c1.065,0.359,0.17,0.005,0.579,0.383l0.806,0.001c-1.309-1.32-1.734-1.152-3.092-1.072
	L12.263,1.786z"/>
<path fill="none" stroke="#DCC125" stroke-width="0.216" stroke-miterlimit="22.926" d="M12.263,1.786
	c0.45-0.253,0.651-0.406,1.338-0.419c0.255-0.004,0.541,0.028,0.782,0.11c1.065,0.359,0.17,0.005,0.579,0.383l0.806,0.001
	c-1.309-1.32-1.734-1.152-3.092-1.072L12.263,1.786z"/>
<path fill-rule="evenodd" clip-rule="evenodd" fill="#DCC125" d="M16.148,4.731c0.97,0.203,0.662,0.39,0.846-0.82
	c0.099-0.654-0.051-1.053-0.23-1.564c-1.015,0-0.346-0.077-0.604,0.289C16.25,3.397,16.172,4.094,16.148,4.731"/>
<path fill="none" stroke="#DCC125" stroke-width="0.216" stroke-miterlimit="22.926" d="M16.148,4.731
	c0.97,0.203,0.662,0.39,0.846-0.82c0.099-0.654-0.051-1.053-0.23-1.564c-1.015,0-0.346-0.077-0.604,0.289
	C16.25,3.397,16.172,4.094,16.148,4.731z"/>
<path fill-rule="evenodd" clip-rule="evenodd" fill="#DCC125" d="M10.524,13.172l-1.52-1.741c-0.565-0.483-0.028-0.185-0.999-0.56
	c0.316,1.794,0.03,0.435,0.948,1.394C9.746,13.095,8.925,13.028,10.524,13.172"/>
<path fill="none" stroke="#DCC125" stroke-width="0.216" stroke-miterlimit="22.926" d="M10.524,13.172l-1.52-1.741
	c-0.565-0.483-0.028-0.185-0.999-0.56c0.316,1.794,0.03,0.435,0.948,1.394C9.746,13.095,8.925,13.028,10.524,13.172z"/>
<path fill-rule="evenodd" clip-rule="evenodd" fill="#DCC125" d="M26.71,4.215c0.726-0.237,0.582-0.313,1.348-0.493l0.165-0.821
	C28.018,1.81,28.429,1.69,27.567,1.69c0.019,1.31-0.194,1.511-0.655,2.203c-0.025,0.038-0.079,0.126-0.1,0.157
	C26.792,4.083,26.743,4.16,26.71,4.215"/>
<path fill="none" stroke="#DCC125" stroke-width="0.216" stroke-miterlimit="22.926" d="M26.71,4.215
	c0.726-0.237,0.582-0.313,1.348-0.493l0.165-0.821C28.018,1.81,28.429,1.69,27.567,1.69c0.019,1.31-0.194,1.511-0.655,2.203
	c-0.025,0.038-0.079,0.126-0.1,0.157C26.792,4.083,26.743,4.16,26.71,4.215z"/>
<path fill-rule="evenodd" clip-rule="evenodd" fill="#DCC125" d="M21.532,47.931c1.332-0.019,1.3-1.175,1.03-2.037
	c-0.243,0.259-0.09,0.049-0.411,0.496c-0.04,0.055-0.271,0.398-0.307,0.462C21.449,47.549,21.59,47.181,21.532,47.931"/>
<path fill="none" stroke="#DCC125" stroke-width="0.216" stroke-miterlimit="22.926" d="M21.532,47.931
	c1.332-0.019,1.3-1.175,1.03-2.037c-0.243,0.259-0.09,0.049-0.411,0.496c-0.04,0.055-0.271,0.398-0.307,0.462
	C21.449,47.549,21.59,47.181,21.532,47.931z"/>
<path fill-rule="evenodd" clip-rule="evenodd" fill="#DCC125" d="M11.563,4.715c0.022-0.545-0.081-0.913,0.034-1.486
	c0.075-0.376,0.113-0.336,0.303-0.703c0.289-0.556,0.002,0.379,0.363-0.74l-0.719,0.118C11.424,2.598,10.672,4.141,11.563,4.715"/>
<path fill="none" stroke="#DCC125" stroke-width="0.216" stroke-miterlimit="22.926" d="M11.563,4.715
	c0.022-0.545-0.081-0.913,0.034-1.486c0.075-0.376,0.113-0.336,0.303-0.703c0.289-0.556,0.002,0.379,0.363-0.74l-0.719,0.118
	C11.424,2.598,10.672,4.141,11.563,4.715z"/>
<path fill-rule="evenodd" clip-rule="evenodd" fill="#DCC125" d="M31.443,12.085c0.163-0.079,0.832-0.413,0.869-0.443
	c0.747-0.588,0.014-0.128,0.609-0.706c0.628-0.61,1.057-0.549,1.095-1.733L31.443,12.085z"/>
<path fill="none" stroke="#DCC125" stroke-width="0.216" stroke-miterlimit="22.926" d="M31.443,12.085
	c0.163-0.079,0.832-0.413,0.869-0.443c0.747-0.588,0.014-0.128,0.609-0.706c0.628-0.61,1.057-0.549,1.095-1.733L31.443,12.085z"/>
<polygon fill-rule="evenodd" clip-rule="evenodd" fill="#DCC125" points="25.987,4.856 26.85,4.812 26.71,4.215 24.916,4.269 
	24.917,4.754 "/>
<polygon fill="none" stroke="#DCC125" stroke-width="0.216" stroke-miterlimit="22.926" points="25.987,4.856 26.85,4.812 
	26.71,4.215 24.916,4.269 24.917,4.754 "/>
<path fill-rule="evenodd" clip-rule="evenodd" fill="#DCC125" d="M27.567,1.69c0.861,0,0.45,0.119,0.655,1.211
	c0.156-1.212,0.106-1.237-0.294-2.269c-1.017-0.228-0.098,0.068-0.94-0.331L27.567,1.69z"/>
<path fill="none" stroke="#DCC125" stroke-width="0.216" stroke-miterlimit="22.926" d="M27.567,1.69
	c0.861,0,0.45,0.119,0.655,1.211c0.156-1.212,0.106-1.237-0.294-2.269c-1.017-0.228-0.098,0.068-0.94-0.331L27.567,1.69z"/>
<path fill-rule="evenodd" clip-rule="evenodd" fill="#DCC125" d="M13.789,17.767c-0.175-1.095-0.123-0.952-0.709-1.586
	C13.066,16.202,11.785,17.083,13.789,17.767"/>
<path fill="none" stroke="#DCC125" stroke-width="0.216" stroke-miterlimit="22.926" d="M13.789,17.767
	c-0.175-1.095-0.123-0.952-0.709-1.586C13.066,16.202,11.785,17.083,13.789,17.767z"/>
<path fill-rule="evenodd" clip-rule="evenodd" fill="#DCC125" d="M14.823,17.427c-0.095-1.222,0.094-1.14-0.695-1.636
	c-0.013,0.021-0.931,0.21,0.47,1.461C14.656,17.304,14.75,17.366,14.823,17.427"/>
<path fill="none" stroke="#DCC125" stroke-width="0.216" stroke-miterlimit="22.926" d="M14.823,17.427
	c-0.095-1.222,0.094-1.14-0.695-1.636c-0.013,0.021-0.931,0.21,0.47,1.461C14.656,17.304,14.75,17.366,14.823,17.427z"/>
<polygon fill-rule="evenodd" clip-rule="evenodd" fill="#DCC125" points="22.263,14.43 20.47,14.405 20.47,14.909 22.264,14.927 "/>
<polygon fill="none" stroke="#DCC125" stroke-width="0.216" stroke-miterlimit="22.926" points="22.263,14.43 20.47,14.405 
	20.47,14.909 22.264,14.927 "/>
<path fill-rule="evenodd" clip-rule="evenodd" fill="#DCC125" d="M29.04,45.966h-0.461c-0.06,1.182-0.293,1.07,0.493,1.509
	c0.097-0.174,0.212-0.059,0.163-0.684C29.233,46.767,29.061,46.07,29.04,45.966"/>
<path fill="none" stroke="#DCC125" stroke-width="0.216" stroke-miterlimit="22.926" d="M29.04,45.966h-0.461
	c-0.06,1.182-0.293,1.07,0.493,1.509c0.097-0.174,0.212-0.059,0.163-0.684C29.233,46.767,29.061,46.07,29.04,45.966z"/>
<path fill-rule="evenodd" clip-rule="evenodd" fill="#DCC125" d="M21.644,13.228v-0.454l-1.125-0.063l0.027,0.416l0.086,0.42
	C21.601,13.515,21.07,13.683,21.644,13.228"/>
<path fill="none" stroke="#DCC125" stroke-width="0.216" stroke-miterlimit="22.926" d="M21.644,13.228v-0.454l-1.125-0.063
	l0.027,0.416l0.086,0.42C21.601,13.515,21.07,13.683,21.644,13.228z"/>
<path fill-rule="evenodd" clip-rule="evenodd" fill="#DCC125" d="M28.308,0.535c0.585,0.338-0.671,0.223,0.58,0.247
	c1.298,0.026,0.41-0.032,0.748-0.247C29.145-0.316,28.407-0.025,28.308,0.535"/>
<path fill="none" stroke="#DCC125" stroke-width="0.216" stroke-miterlimit="22.926" d="M28.308,0.535
	c0.585,0.338-0.671,0.223,0.58,0.247c1.298,0.026,0.41-0.032,0.748-0.247C29.145-0.316,28.407-0.025,28.308,0.535z"/>
<path fill-rule="evenodd" clip-rule="evenodd" fill="#DCC125" d="M34.742,6l0.316-0.138c-0.185-0.927-0.17-0.791-1.065-0.935
	l0.111,0.815L34.742,6z"/>
<path fill="none" stroke="#DCC125" stroke-width="0.216" stroke-miterlimit="22.926" d="M34.742,6l0.316-0.138
	c-0.185-0.927-0.17-0.791-1.065-0.935l0.111,0.815L34.742,6z"/>
<path fill-rule="evenodd" clip-rule="evenodd" fill="#DCC125" d="M32.667,14.156c-0.283-1.006-0.004-0.23-0.45-0.544l-0.554,0.298
	l0.554,1.13L32.667,14.156z"/>
<path fill="none" stroke="#DCC125" stroke-width="0.216" stroke-miterlimit="22.926" d="M32.667,14.156
	c-0.283-1.006-0.004-0.23-0.45-0.544l-0.554,0.298l0.554,1.13L32.667,14.156z"/>
<path fill-rule="evenodd" clip-rule="evenodd" fill="#DCC125" d="M39.635,12.781c0.914-0.411,0.861-0.304,1.295-1.264
	C39.825,12.004,39.656,11.645,39.635,12.781"/>
<path fill="none" stroke="#DCC125" stroke-width="0.216" stroke-miterlimit="22.926" d="M39.635,12.781
	c0.914-0.411,0.861-0.304,1.295-1.264C39.825,12.004,39.656,11.645,39.635,12.781z"/>
<path fill-rule="evenodd" clip-rule="evenodd" fill="#DCC125" d="M36.939,19.484l1.233-0.023c-0.312-0.631-0.29-0.479-0.852-0.789
	C36.765,18.902,36.939,18.183,36.939,19.484"/>
<path fill="none" stroke="#DCC125" stroke-width="0.216" stroke-miterlimit="22.926" d="M36.939,19.484l1.233-0.023
	c-0.312-0.631-0.29-0.479-0.852-0.789C36.765,18.902,36.939,18.183,36.939,19.484z"/>
<path fill-rule="evenodd" clip-rule="evenodd" fill="#DCC125" d="M27.158,13.107c-0.354-0.461-0.223-0.45-0.433-0.778
	c-0.317-0.495,0.026-0.071-0.356-0.461c-0.088-0.089-0.437-0.334-0.448-0.344l0.121,0.967C26.566,12.937,26.39,12.799,27.158,13.107
	"/>
<path fill="none" stroke="#DCC125" stroke-width="0.216" stroke-miterlimit="22.926" d="M27.158,13.107
	c-0.354-0.461-0.223-0.45-0.433-0.778c-0.317-0.495,0.026-0.071-0.356-0.461c-0.088-0.089-0.437-0.334-0.448-0.344l0.121,0.967
	C26.566,12.937,26.39,12.799,27.158,13.107z"/>
<path fill-rule="evenodd" clip-rule="evenodd" fill="#DCC125" d="M37.459,53.19l0.012,0.893c0.969-0.238,0.772,0.026,0.752-1.023
	L37.459,53.19z"/>
<path fill="none" stroke="#DCC125" stroke-width="0.216" stroke-miterlimit="22.926" d="M37.459,53.19l0.012,0.893
	c0.969-0.238,0.772,0.026,0.752-1.023L37.459,53.19z"/>
<path fill-rule="evenodd" clip-rule="evenodd" fill="#DCC125" d="M38.848,37.002l0.477-0.272c-0.262-0.59,0.372-0.252-0.353-0.469
	c-0.952-0.286-0.545,0.122-0.642,0.196L38.848,37.002z"/>
<path fill="none" stroke="#DCC125" stroke-width="0.216" stroke-miterlimit="22.926" d="M38.848,37.002l0.477-0.272
	c-0.262-0.59,0.372-0.252-0.353-0.469c-0.952-0.286-0.545,0.122-0.642,0.196L38.848,37.002z"/>
<path fill-rule="evenodd" clip-rule="evenodd" fill="#DCC125" d="M4.831,5.958C5.149,5.65,4.502,5.748,5.509,5.792
	c-0.261-0.576,0.39-0.27-0.361-0.469C3.903,4.995,4.554,5.41,4.359,5.521L4.831,5.958z"/>
<path fill="none" stroke="#DCC125" stroke-width="0.216" stroke-miterlimit="22.926" d="M4.831,5.958
	C5.149,5.65,4.502,5.748,5.509,5.792c-0.261-0.576,0.39-0.27-0.361-0.469C3.903,4.995,4.554,5.41,4.359,5.521L4.831,5.958z"/>
<polygon fill-rule="evenodd" clip-rule="evenodd" fill="#DCC125" points="22.856,63.985 22.856,63.54 21.75,63.444 21.75,63.921 "/>
<polygon fill="none" stroke="#DCC125" stroke-width="0.216" stroke-miterlimit="22.926" points="22.856,63.985 22.856,63.54 
	21.75,63.444 21.75,63.921 "/>
<path fill-rule="evenodd" clip-rule="evenodd" fill="#DCC125" d="M38.189,24.624l-0.138-0.202c-0.716,0.229-0.344-0.046-0.785,0.501
	C38.044,25.471,37.913,25.425,38.189,24.624"/>
<path fill="none" stroke="#DCC125" stroke-width="0.216" stroke-miterlimit="22.926" d="M38.189,24.624l-0.138-0.202
	c-0.716,0.229-0.344-0.046-0.785,0.501C38.044,25.471,37.913,25.425,38.189,24.624z"/>
<path fill-rule="evenodd" clip-rule="evenodd" fill="#DCC125" d="M31.758,59.022l-1.067-0.053c0.171,0.768-0.297,0.25,0.478,0.592
	C31.87,59.347,31.5,59.597,31.758,59.022"/>
<path fill="none" stroke="#DCC125" stroke-width="0.216" stroke-miterlimit="22.926" d="M31.758,59.022l-1.067-0.053
	c0.171,0.768-0.297,0.25,0.478,0.592C31.87,59.347,31.5,59.597,31.758,59.022z"/>
<path fill-rule="evenodd" clip-rule="evenodd" fill="#DCC125" d="M18.859,13.698l0.112-0.599l-0.87,0.028
	C18.125,13.891,18.197,13.712,18.859,13.698"/>
<path fill="none" stroke="#DCC125" stroke-width="0.216" stroke-miterlimit="22.926" d="M18.859,13.698l0.112-0.599l-0.87,0.028
	C18.125,13.891,18.197,13.712,18.859,13.698z"/>
<path fill-rule="evenodd" clip-rule="evenodd" fill="#DCC125" d="M14.934,43.542c0.636-0.171,0.338,0.112,0.531-0.529
	c-0.228-0.652,0.017-0.312-0.551-0.537L14.934,43.542z"/>
<path fill="none" stroke="#DCC125" stroke-width="0.216" stroke-miterlimit="22.926" d="M14.934,43.542
	c0.636-0.171,0.338,0.112,0.531-0.529c-0.228-0.652,0.017-0.312-0.551-0.537L14.934,43.542z"/>
<path fill-rule="evenodd" clip-rule="evenodd" fill="#DCC125" d="M37.979,16.788c-1.075,0-0.349,0.093-0.563-0.348
	c-0.049,0.061-0.138,0.054-0.152,0.179l-0.229,0.87C38.213,17.023,37.604,17.433,37.979,16.788"/>
<path fill="none" stroke="#DCC125" stroke-width="0.216" stroke-miterlimit="22.926" d="M37.979,16.788
	c-1.075,0-0.349,0.093-0.563-0.348c-0.049,0.061-0.138,0.054-0.152,0.179l-0.229,0.87C38.213,17.023,37.604,17.433,37.979,16.788z"
	/>
<path fill-rule="evenodd" clip-rule="evenodd" fill="#DCC125" d="M6.667,25.209l0.146-0.85c-1.086,0.308-0.447-0.034-0.898,0.563
	L6.667,25.209z"/>
<path fill="none" stroke="#DCC125" stroke-width="0.216" stroke-miterlimit="22.926" d="M6.667,25.209l0.146-0.85
	c-1.086,0.308-0.447-0.034-0.898,0.563L6.667,25.209z"/>
<path fill-rule="evenodd" clip-rule="evenodd" fill="#DCC125" d="M29.625,39.785c0.702-0.394,0.496,0.738,0.449-0.956h-0.491
	L29.625,39.785z"/>
<path fill="none" stroke="#DCC125" stroke-width="0.216" stroke-miterlimit="22.926" d="M29.625,39.785
	c0.702-0.394,0.496,0.738,0.449-0.956h-0.491L29.625,39.785z"/>
<polygon fill-rule="evenodd" clip-rule="evenodd" fill="#DCC125" points="8.383,31.042 8.855,31.042 8.906,30.169 8.429,30.167 "/>
<polygon fill="none" stroke="#DCC125" stroke-width="0.216" stroke-miterlimit="22.926" points="8.383,31.042 8.855,31.042 
	8.906,30.169 8.429,30.167 "/>
<path fill-rule="evenodd" clip-rule="evenodd" fill="#DCC125" d="M34.016,9.204c0.607-0.233,0.352,0.432,0.489-0.348
	c0.127-0.727-0.022-0.3-0.189-0.634C34.033,8.627,34.033,7.939,34.016,9.204"/>
<path fill="none" stroke="#DCC125" stroke-width="0.216" stroke-miterlimit="22.926" d="M34.016,9.204
	c0.607-0.233,0.352,0.432,0.489-0.348c0.127-0.727-0.022-0.3-0.189-0.634C34.033,8.627,34.033,7.939,34.016,9.204z"/>
<polygon fill-rule="evenodd" clip-rule="evenodd" fill="#DCC125" points="23.053,17.248 23.907,17.266 23.907,16.807 23.053,16.785 
	"/>
<polygon fill="none" stroke="#DCC125" stroke-width="0.216" stroke-miterlimit="22.926" points="23.053,17.248 23.907,17.266 
	23.907,16.807 23.053,16.785 "/>
<path fill-rule="evenodd" clip-rule="evenodd" fill="#DCC125" d="M21.21,39.702l0.033-0.811c-0.709,0.214-0.389-0.446-0.563,0.811
	H21.21z"/>
<path fill="none" stroke="#DCC125" stroke-width="0.216" stroke-miterlimit="22.926" d="M21.21,39.702l0.033-0.811
	c-0.709,0.214-0.389-0.446-0.563,0.811H21.21z"/>
<path fill-rule="evenodd" clip-rule="evenodd" fill="#DCC125" d="M33.554,14.397c-0.467,0.177-0.957-0.268-0.288,0.919
	C33.856,14.487,33.55,14.439,33.554,14.397"/>
<path fill="none" stroke="#DCC125" stroke-width="0.216" stroke-miterlimit="22.926" d="M33.554,14.397
	c-0.467,0.177-0.957-0.268-0.288,0.919C33.856,14.487,33.55,14.439,33.554,14.397z"/>
<path fill-rule="evenodd" clip-rule="evenodd" fill="#DCC125" d="M16.16,2.635c0.258-0.366-0.411-0.289,0.605-0.289
	c-0.363-0.657,0.321-0.239-0.925-0.618L16.16,2.635z"/>
<path fill="none" stroke="#DCC125" stroke-width="0.216" stroke-miterlimit="22.926" d="M16.16,2.635
	c0.258-0.366-0.411-0.289,0.605-0.289c-0.363-0.657,0.321-0.239-0.925-0.618L16.16,2.635z"/>
<polygon fill-rule="evenodd" clip-rule="evenodd" fill="#DCC125" points="41.424,72.083 41.364,71.353 40.854,71.353 40.958,72.085 
	"/>
<polygon fill="none" stroke="#DCC125" stroke-width="0.216" stroke-miterlimit="22.926" points="41.424,72.083 41.364,71.353 
	40.854,71.353 40.958,72.085 "/>
<polygon fill-rule="evenodd" clip-rule="evenodd" fill="#DCC125" points="14.358,75.587 14.336,75.061 13.641,74.952 13.637,75.431 
	"/>
<polygon fill="none" stroke="#DCC125" stroke-width="0.216" stroke-miterlimit="22.926" points="14.358,75.587 14.336,75.061 
	13.641,74.952 13.637,75.431 "/>
<polygon fill-rule="evenodd" clip-rule="evenodd" fill="#DCC125" points="6.658,58.179 6.658,57.693 5.963,57.683 5.963,58.205 "/>
<polygon fill="none" stroke="#DCC125" stroke-width="0.216" stroke-miterlimit="22.926" points="6.658,58.179 6.658,57.693 
	5.963,57.683 5.963,58.205 "/>
<polygon fill-rule="evenodd" clip-rule="evenodd" fill="#DCC125" points="29.646,76.712 30.147,76.712 30.116,76.021 29.632,76.021 
	"/>
<polygon fill="none" stroke="#DCC125" stroke-width="0.216" stroke-miterlimit="22.926" points="29.646,76.712 30.147,76.712 
	30.116,76.021 29.632,76.021 "/>
<polygon fill-rule="evenodd" clip-rule="evenodd" fill="#DCC125" points="6.037,34.472 6.537,34.472 6.514,33.789 6.023,33.789 "/>
<polygon fill="none" stroke="#DCC125" stroke-width="0.216" stroke-miterlimit="22.926" points="6.037,34.472 6.537,34.472 
	6.514,33.789 6.023,33.789 "/>
<polygon fill-rule="evenodd" clip-rule="evenodd" fill="#DCC125" points="45.928,71.222 45.789,70.534 45.325,70.53 45.431,71.222 
	"/>
<polygon fill="none" stroke="#DCC125" stroke-width="0.216" stroke-miterlimit="22.926" points="45.928,71.222 45.789,70.534 
	45.325,70.53 45.431,71.222 "/>
<polygon fill-rule="evenodd" clip-rule="evenodd" fill="#DCC125" points="5.978,26.495 6.625,26.523 6.625,26 5.978,26 "/>
<polygon fill="none" stroke="#DCC125" stroke-width="0.216" stroke-miterlimit="22.926" points="5.978,26.495 6.625,26.523 
	6.625,26 5.978,26 "/>
<polygon fill-rule="evenodd" clip-rule="evenodd" fill="#DCC125" points="34.012,2.417 34.58,2.383 34.611,1.81 34.042,1.846 "/>
<polygon fill="none" stroke="#DCC125" stroke-width="0.216" stroke-miterlimit="22.926" points="34.012,2.417 34.58,2.383 
	34.611,1.81 34.042,1.846 "/>
<polygon fill-rule="evenodd" clip-rule="evenodd" fill="#DCC125" points="34.026,77.825 34.504,77.829 34.609,77.151 34.128,77.152 
	"/>
<polygon fill="none" stroke="#DCC125" stroke-width="0.216" stroke-miterlimit="22.926" points="34.026,77.825 34.504,77.829 
	34.609,77.151 34.128,77.152 "/>
<polygon fill-rule="evenodd" clip-rule="evenodd" fill="#DCC125" points="1.538,49.304 2.068,49.304 2.035,48.665 1.56,48.665 "/>
<polygon fill="none" stroke="#DCC125" stroke-width="0.216" stroke-miterlimit="22.926" points="1.538,49.304 2.068,49.304 
	2.035,48.665 1.56,48.665 "/>
<polygon fill-rule="evenodd" clip-rule="evenodd" fill="#DCC125" points="33.033,59.624 33.524,59.624 33.545,58.997 33.013,58.997 
	"/>
<polygon fill="none" stroke="#DCC125" stroke-width="0.216" stroke-miterlimit="22.926" points="33.033,59.624 33.524,59.624 
	33.545,58.997 33.013,58.997 "/>
<polygon fill-rule="evenodd" clip-rule="evenodd" fill="#DCC125" points="10.4,65.278 11.02,65.279 11.02,64.781 10.4,64.767 "/>
<polygon fill="none" stroke="#DCC125" stroke-width="0.216" stroke-miterlimit="22.926" points="10.4,65.278 11.02,65.279 
	11.02,64.781 10.4,64.767 "/>
<polygon fill-rule="evenodd" clip-rule="evenodd" fill="#DCC125" points="6.018,57.224 6.534,57.224 6.524,56.622 6.021,56.622 "/>
<polygon fill="none" stroke="#DCC125" stroke-width="0.216" stroke-miterlimit="22.926" points="6.018,57.224 6.534,57.224 
	6.524,56.622 6.021,56.622 "/>
<polygon fill-rule="evenodd" clip-rule="evenodd" fill="#DCC125" points="22.282,52.446 22.282,51.946 21.676,51.948 21.676,52.46 
	"/>
<polygon fill="none" stroke="#DCC125" stroke-width="0.216" stroke-miterlimit="22.926" points="22.282,52.446 22.282,51.946 
	21.676,51.948 21.676,52.46 "/>
<polygon fill-rule="evenodd" clip-rule="evenodd" fill="#DCC125" points="39.826,48.55 40.332,48.55 40.313,47.928 39.834,47.928 
	"/>
<polygon fill="none" stroke="#DCC125" stroke-width="0.216" stroke-miterlimit="22.926" points="39.826,48.55 40.332,48.55 
	40.313,47.928 39.834,47.928 "/>
<polygon fill-rule="evenodd" clip-rule="evenodd" fill="#DCC125" points="29.544,51.646 30.102,51.646 30.145,51.124 29.583,51.124 
	"/>
<polygon fill="none" stroke="#DCC125" stroke-width="0.216" stroke-miterlimit="22.926" points="29.544,51.646 30.102,51.646 
	30.145,51.124 29.583,51.124 "/>
<polygon fill-rule="evenodd" clip-rule="evenodd" fill="#DCC125" points="39.763,14.941 40.327,14.941 40.368,14.423 39.813,14.423 
	"/>
<polygon fill="none" stroke="#DCC125" stroke-width="0.216" stroke-miterlimit="22.926" points="39.763,14.941 40.327,14.941 
	40.368,14.423 39.813,14.423 "/>
<polygon fill-rule="evenodd" clip-rule="evenodd" fill="#DCC125" points="29.089,59.532 29.089,59.013 28.503,59.013 28.561,59.522 
	"/>
<polygon fill="none" stroke="#DCC125" stroke-width="0.216" stroke-miterlimit="22.926" points="29.089,59.532 29.089,59.013 
	28.503,59.013 28.561,59.522 "/>
<polygon fill-rule="evenodd" clip-rule="evenodd" fill="#DCC125" points="8.355,65.34 8.868,65.271 8.869,64.724 8.355,64.772 "/>
<polygon fill="none" stroke="#DCC125" stroke-width="0.216" stroke-miterlimit="22.926" points="8.355,65.34 8.868,65.271 
	8.869,64.724 8.355,64.772 "/>
<polygon fill-rule="evenodd" clip-rule="evenodd" fill="#DCC125" points="41.423,38.828 41.423,38.279 40.898,38.25 40.898,38.789 
	"/>
<polygon fill="none" stroke="#DCC125" stroke-width="0.216" stroke-miterlimit="22.926" points="41.423,38.828 41.423,38.279 
	40.898,38.25 40.898,38.789 "/>
<polygon fill-rule="evenodd" clip-rule="evenodd" fill="#DCC125" points="5.962,59.503 6.496,59.503 6.545,58.984 5.988,58.984 "/>
<polygon fill="none" stroke="#DCC125" stroke-width="0.216" stroke-miterlimit="22.926" points="5.962,59.503 6.496,59.503 
	6.545,58.984 5.988,58.984 "/>
<polygon fill-rule="evenodd" clip-rule="evenodd" fill="#DCC125" points="13.344,52.464 13.34,51.929 12.827,51.919 12.827,52.464 
	"/>
<polygon fill="none" stroke="#DCC125" stroke-width="0.216" stroke-miterlimit="22.926" points="13.344,52.464 13.34,51.929 
	12.827,51.919 12.827,52.464 "/>
<path fill-rule="evenodd" clip-rule="evenodd" fill="#DCC125" d="M18.872,12.622v-0.565H18.28
	C18.563,12.907,18.01,12.378,18.872,12.622"/>
<path fill="none" stroke="#DCC125" stroke-width="0.216" stroke-miterlimit="22.926" d="M18.872,12.622v-0.565H18.28
	C18.563,12.907,18.01,12.378,18.872,12.622z"/>
<path fill-rule="evenodd" clip-rule="evenodd" fill="#DCC125" d="M35.904,14.966V14.43h-0.599
	C35.584,15.255,35.048,14.777,35.904,14.966"/>
<path fill="none" stroke="#DCC125" stroke-width="0.216" stroke-miterlimit="22.926" d="M35.904,14.966V14.43h-0.599
	C35.584,15.255,35.048,14.777,35.904,14.966z"/>
<path fill-rule="evenodd" clip-rule="evenodd" fill="#DCC125" d="M16.487,16.063l0.121-0.494c-0.008-0.03-0.089-0.107-0.121-0.168
	C16.469,15.425,15.324,15.235,16.487,16.063"/>
<path fill="none" stroke="#DCC125" stroke-width="0.216" stroke-miterlimit="22.926" d="M16.487,16.063l0.121-0.494
	c-0.008-0.03-0.089-0.107-0.121-0.168C16.469,15.425,15.324,15.235,16.487,16.063z"/>
<path fill-rule="evenodd" clip-rule="evenodd" fill="#DCC125" d="M16.166,45.888h0.58v-0.549
	C15.889,45.566,16.441,45.045,16.166,45.888"/>
<path fill="none" stroke="#DCC125" stroke-width="0.216" stroke-miterlimit="22.926" d="M16.166,45.888h0.58v-0.549
	C15.889,45.566,16.441,45.045,16.166,45.888z"/>
<path fill-rule="evenodd" clip-rule="evenodd" fill="#DCC125" d="M18.847,64.024v-0.566h-0.553
	C18.528,64.32,17.992,63.772,18.847,64.024"/>
<path fill="none" stroke="#DCC125" stroke-width="0.216" stroke-miterlimit="22.926" d="M18.847,64.024v-0.566h-0.553
	C18.528,64.32,17.992,63.772,18.847,64.024z"/>
<path fill-rule="evenodd" clip-rule="evenodd" fill="#DCC125" d="M30.104,43.973l-0.497,0.013c0.192,0.891-0.346,0.365,0.497,0.584
	V43.973z"/>
<path fill="none" stroke="#DCC125" stroke-width="0.216" stroke-miterlimit="22.926" d="M30.104,43.973l-0.497,0.013
	c0.192,0.891-0.346,0.365,0.497,0.584V43.973z"/>
<path fill-rule="evenodd" clip-rule="evenodd" fill="#DCC125" d="M9.387,47.99l0.608-0.02c-0.241-0.627,0.055-0.342-0.608-0.511
	V47.99z"/>
<path fill="none" stroke="#DCC125" stroke-width="0.216" stroke-miterlimit="22.926" d="M9.387,47.99l0.608-0.02
	c-0.241-0.627,0.055-0.342-0.608-0.511V47.99z"/>
<path fill-rule="evenodd" clip-rule="evenodd" fill="#DCC125" d="M40.828,13.628h0.544v-0.526
	C40.521,13.3,41.059,12.783,40.828,13.628"/>
<path fill="none" stroke="#DCC125" stroke-width="0.216" stroke-miterlimit="22.926" d="M40.828,13.628h0.544v-0.526
	C40.521,13.3,41.059,12.783,40.828,13.628z"/>
<path fill-rule="evenodd" clip-rule="evenodd" fill="#DCC125" d="M15.734,16.695l0.06-0.97
	C15.602,15.93,15.001,15.772,15.734,16.695"/>
<path fill="none" stroke="#DCC125" stroke-width="0.216" stroke-miterlimit="22.926" d="M15.734,16.695l0.06-0.97
	C15.602,15.93,15.001,15.772,15.734,16.695z"/>
<path fill-rule="evenodd" clip-rule="evenodd" fill="#DCC125" d="M18.912,42.216l0.471,0.074v-0.686
	C18.51,42.03,19.337,41.497,18.912,42.216"/>
<path fill="none" stroke="#DCC125" stroke-width="0.216" stroke-miterlimit="22.926" d="M18.912,42.216l0.471,0.074v-0.686
	C18.51,42.03,19.337,41.497,18.912,42.216z"/>
<polygon fill-rule="evenodd" clip-rule="evenodd" fill="#DCC125" points="32.435,45.142 32.479,44.793 31.919,44.793 31.974,45.294 
	"/>
<polygon fill="none" stroke="#DCC125" stroke-width="0.216" stroke-miterlimit="22.926" points="32.435,45.142 32.479,44.793 
	31.919,44.793 31.974,45.294 "/>
<polygon fill-rule="evenodd" clip-rule="evenodd" fill="#DCC125" points="5.512,50.808 5.539,50.579 4.951,50.579 5.011,51.078 "/>
<polygon fill="none" stroke="#DCC125" stroke-width="0.216" stroke-miterlimit="22.926" points="5.512,50.808 5.539,50.579 
	4.951,50.579 5.011,51.078 "/>
<path fill-rule="evenodd" clip-rule="evenodd" fill="#DCC125" d="M12.806,20.762c-0.196-0.817,0.213-0.301-0.435-0.613
	C12.47,20.94,12.116,20.482,12.806,20.762"/>
<path fill="none" stroke="#DCC125" stroke-width="0.216" stroke-miterlimit="22.926" d="M12.806,20.762
	c-0.196-0.817,0.213-0.301-0.435-0.613C12.47,20.94,12.116,20.482,12.806,20.762z"/>
<path fill-rule="evenodd" clip-rule="evenodd" fill="#DCC125" d="M32.735,21.514c0.053,0.033,0.135,0.039,0.158,0.103
	c0.092,0.261,0.616-0.102,0.617-0.103C33.096,21.245,33.108,21.294,32.735,21.514"/>
<path fill="none" stroke="#DCC125" stroke-width="0.216" stroke-miterlimit="22.926" d="M32.735,21.514
	c0.053,0.033,0.135,0.039,0.158,0.103c0.092,0.261,0.616-0.102,0.617-0.103C33.096,21.245,33.108,21.294,32.735,21.514z"/>
<polygon fill-rule="evenodd" clip-rule="evenodd" fill="#DCC125" points="28.579,45.966 29.04,45.966 28.92,45.386 "/>
<polygon fill="none" stroke="#DCC125" stroke-width="0.216" stroke-miterlimit="22.926" points="28.579,45.966 29.04,45.966 
	28.92,45.386 "/>
<path fill-rule="evenodd" clip-rule="evenodd" fill="#DCC125" d="M36.556,16.948c0.155-0.056,0.245-0.212,0.239-0.167L36.556,16.948
	z"/>
<path fill="none" stroke="#DCC125" stroke-width="0.216" stroke-miterlimit="22.926" d="M36.556,16.948
	c0.155-0.056,0.245-0.212,0.239-0.167L36.556,16.948z"/>
</svg>
