<?xml version="1.0" encoding="utf-8"?>
<!-- Generator: Adobe Illustrator 16.0.0, SVG Export Plug-In . SVG Version: 6.00 Build 0)  -->
<!DOCTYPE svg PUBLIC "-//W3C//DTD SVG 1.1//EN" "http://www.w3.org/Graphics/SVG/1.1/DTD/svg11.dtd">
<svg version="1.1" id="Layer_1" xmlns="http://www.w3.org/2000/svg" xmlns:xlink="http://www.w3.org/1999/xlink" x="0px" y="0px"
	 width="112.344px" height="16.02px" viewBox="0 0 112.344 16.02" enable-background="new 0 0 112.344 16.02" xml:space="preserve">
<path fill-rule="evenodd" clip-rule="evenodd" fill="#DCC125" d="M-185.305,2.282c0.015,0.36-0.085,0.281,0.255,0.28
	c4.972-1.608,5.175-8.054-0.073-9.787c-5.342-1.763-8.658,3.462-8.713,8.284l-1.246-0.013c0.32-5.811,1.219-4.859,2.694-8.783
	c1.447-3.847-1.593-6.45-3.582-7.654c-2.096,1.248-4.826,3.696-3.715,7.341c0.442,1.45,1.239,2.638,1.894,4.095
	c0.951,2.119,0.472,2.881,0.894,4.942l-1.206,0.092c-0.429-11.707-12.763-10.126-12.624-3.218c0.059,2.877,2.172,4.044,4.078,4.844
	c0.015-1.248-0.474-4.941,2.577-5.26c2.225-0.233,3.841,1.802,4.043,3.834l-1.888,0.022l-0.067,3.413l1.979,0.16
	c-0.323,3.425-4.607,3.589-4.513-0.622c-1.961,0.789-2.161,2.934-2.527,3.618l-2.169-2.534c0.313-0.468,0.947-1.026,0.721-1.993
	c-0.415-1.761-2.852-1.904-3.412-0.246c-0.374,1.107,0.164,1.655,0.718,2.244c-0.559,1.615-3.033,5.138-4.437,5.819
	c0.035-0.042,0.095-0.158,0.111-0.122l0.967-1.407c0.795-2.153-0.747-3.787-3.131-4.201c1.563,2.93-1.667,4.481-3.082,2.002
	c0.722-0.316,0.895-0.299,1.441-0.828l-1.027-2.292c-0.769,0.012-1.121,0.219-1.632,0.54c-0.444-1.91,0.007-3.732,1.725-4.148
	c2.43-0.587,2.761,1.782,3.554,2.878c3.198-2.4,1.307-8.094-3.563-7.143c-4.626,0.903-4.487,6.433-3.155,9.026l-0.73,0.478
	c-3.382-5.42,2.338-9.491-6.293-11.717l10.236,21.458l-0.597,0.247l0.046,2.086l49.578-0.002l-0.134-2.077
	c-0.017,0.038-0.1-0.072-0.123-0.088l-0.367-0.254l7.725-15.991c0.847-1.832,1.981-3.7,2.521-5.379
	c-2.607,0.753-4.535,1.122-4.975,4.003c-0.473,3.098,0.482,5.531-1.414,7.727l-0.641-0.423c1.614-3.911,0.859-8.528-3.27-9.128
	c-4.912-0.714-6.615,4.764-3.316,7.233c1.214-5.003,6.345-3.273,5.172,1.172l-1.563-0.593l-1.111,2.386
	c0.574,0.58,0.889,0.582,1.446,0.913c-1.252,1.845-4.192,1.741-3.149-2.1c-3.033,0.683-3.933,2.302-2.534,5.266
	c-1.362-0.826-3.16-3.639-3.882-5.392c1.642-0.961,1.291-3.124-0.459-3.35c-1.989-0.256-2.592,1.723-1.497,3.187
	c-0.514,1.028-1.454,2.16-2.319,2.778c-0.068-1.797-1.13-3.059-2.354-3.653c-0.002,1.591-0.386,2.918-1.922,3.082
	c-1.804,0.194-2.431-0.924-2.656-2.503c1.56,0.047,2.614,0.763,1.933-3.469l-1.839-0.095c0.1-1.925,1.701-3.972,3.833-3.836
	C-185.653-2.414-185.223-0.243-185.305,2.282 M-195.112,4.7l1.284-0.001c-0.027,1.69,0.329,2.626,0.956,3.946
	c0.622,1.309,1.235,1.852,2.394,2.624c-0.676,0.333-1.617,0.633-2.499,0.659l-1.437-3.217C-194.914,7.495-195.061,6.149-195.112,4.7
	 M-198.896,11.966l-2.577-0.616c1.898-1.226,3.331-3.689,3.37-6.653l1.209,0.004C-197.274,9.853-198.034,8.689-198.896,11.966
	 M-176.06,11.338c4.038,0.665,4.495-1.167,6.367-3.209l0.641,0.398c-0.851,2.51-2.845,3.122-3.623,4.302
	c-0.61-0.321-1.132-0.307-1.827-0.536L-176.06,11.338z M-222.89,8.48l0.653-0.269c1.376,1.309,2.549,4.32,6.391,3.014l-0.216,0.277
	c-0.267,0.237-0.058,0.095-0.387,0.297c-0.186,0.113-0.65,0.323-0.865,0.409c-0.654,0.264-1.395,0.392-2.206,0.463
	c-0.668-1.03-1.747-1.291-2.756-2.82C-222.62,9.329-222.653,8.912-222.89,8.48 M-212.174,10.897
	c-0.827-3.037,3.646-3.874,4.249-1.268C-207.197,12.773-211.512,13.329-212.174,10.897 M-183.967,10.897
	c-0.812-3.134,3.693-3.697,4.248-1.267C-178.995,12.792-183.338,13.318-183.967,10.897 M-176.06,11.338
	c-0.882-0.208-0.479-0.175-0.711-0.526c0.536,0.235,0.059-0.056,0.339,0.164C-176.151,11.196-176.206,11.173-176.06,11.338"/>
<path fill-rule="evenodd" clip-rule="evenodd" fill="#DCC125" d="M-217.138,21.154h-1.787l-0.063,1.807
	c4.411-0.285,18.609-0.03,24.088-0.03l20.96,0.016c1.637-0.023,1.373-0.48,1.31-1.996c-0.682,0.243-1.271,0.197-2.172,0.212
	l-0.021-1.901l-42.243,0.074L-217.138,21.154z"/>
<path fill-rule="evenodd" clip-rule="evenodd" fill="#DCC125" d="M-176.06,11.338c-0.146-0.165-0.092-0.142-0.372-0.362
	c-0.28-0.22,0.197,0.071-0.339-0.164C-176.538,11.163-176.941,11.13-176.06,11.338"/>
<path fill-rule="evenodd" clip-rule="evenodd" fill="#DCC125" d="M-185.049,2.562c-0.341,0.001-0.241,0.08-0.256-0.28l-0.272,0.538
	L-185.049,2.562z"/>
<line fill="none" x1="-157.72" y1="-51" x2="-157.72" y2="790.891"/>
<line fill="none" x1="-157.72" y1="-51" x2="-157.72" y2="790.891"/>
<text transform="matrix(1 0 0 1 -249.5039 22.6294)" font-family="'MyriadPro-Regular'" font-size="12">6.</text>
<line fill="none" x1="-157.72" y1="-51" x2="-157.72" y2="790.891"/>
<line fill="none" x1="-157.72" y1="-51" x2="-157.72" y2="790.891"/>
<path fill-rule="evenodd" clip-rule="evenodd" fill="#DCC125" d="M112.334,2.549c-0.15-1.403-2.053-3.034-7.902-2.413
	c-4.035,0.429-7.819,1.938-11.347,3.558c-1.923-0.834-4.321-1.271-7.16-0.969c-3.592,0.381-6.875,2.045-8.186,5.331
	c-0.846-0.151-1.704-0.407-2.503-0.771c-1.852-0.863-3.742-2.11-5.689-3.33c0.056-0.098,0.112-0.196,0.178-0.292
	c1.6,0.663,3.208,1.253,5.028,1.481c3.147,0.395,5.153-0.705,5.296-1.85c0.114-0.911-0.913-1.852-3.444-2.17
	c-3.367-0.422-5.707,0.56-6.988,1.915c-1.28-0.495-3.628-1.496-6.137-2.248c-1.678-0.6-3.407-0.923-5.2-0.733
	c-0.773,0.083-1.5,0.286-2.109,0.639c-0.608-0.353-1.335-0.556-2.107-0.639c-1.61-0.171-3.168,0.068-4.685,0.553
	c-2.743,0.763-5.389,1.892-6.776,2.428c-1.279-1.355-3.621-2.337-6.987-1.915c-2.531,0.318-3.558,1.259-3.445,2.17
	c0.144,1.145,2.15,2.245,5.297,1.85c1.82-0.228,3.428-0.818,5.027-1.481c0.079,0.115,0.149,0.23,0.212,0.348
	c-1.915,1.202-3.776,2.425-5.599,3.274c-0.8,0.364-1.658,0.62-2.504,0.771c-1.311-3.287-4.593-4.95-8.185-5.331
	c-2.839-0.302-5.238,0.135-7.16,0.969c-3.529-1.62-7.312-3.129-11.348-3.558C2.062-0.485,0.159,1.146,0.01,2.549
	c-0.095,0.889,0.514,1.679,1.266,1.76C1.55,4.337,1.745,4.116,1.745,4.116c0.764-2.307,4.001-3.138,6.738-2.847
	c3.762,0.4,7.034,1.508,10.044,2.796c-2.75,1.472-4.322,3.9-4.562,6.158c-0.294,2.771,1.371,5.334,5.372,5.759
	c2.258,0.24,4.393-0.641,4.61-2.692c0.081-0.753-0.199-1.372-0.883-1.444c0,0-0.582-0.062-0.662,0.691
	c-0.236,2.223-1.467,3.061-2.801,2.92c-2.805-0.298-4.07-2.715-3.79-5.35c0.221-2.086,1.426-4.309,3.578-5.673
	c4.232,1.833,7.998,3.825,12.035,4.254c2.292,0.243,4.57-0.033,6.901-1.135c1.621-0.782,3.144-1.821,4.656-2.86
	c0.035,0.127,0.063,0.255,0.079,0.378c0.128,1.02-0.429,1.884-1.722,2.046c-0.474,0.059-0.549-0.097-0.875-0.056
	c-0.219,0.027-0.307,0.204-0.279,0.423c0.046,0.382,0.457,0.849,1.094,0.769c1.817-0.247,2.636-1.532,2.458-2.952
	c-0.039-0.315-0.124-0.635-0.255-0.95c3.148-2.159,6.29-4.195,10.218-3.778c0.718,0.076,1.353,0.268,1.89,0.546
	c-0.021,0.019-0.045,0.035-0.066,0.055l-0.002-0.002c-0.729,0.679-1.132,1.62-1.132,2.644c-0.001,1.242,0.565,2.486,1.554,3.412
	l0.217,0.204l0.216-0.204c0.978-0.917,1.539-2.15,1.537-3.387c-0.001-0.651-0.163-1.267-0.466-1.806
	c-0.008-0.021-0.012-0.042-0.023-0.064c-0.175-0.333-0.405-0.613-0.669-0.852c0.537-0.278,1.172-0.47,1.89-0.546
	c3.89-0.413,7.009,1.579,10.125,3.715c-0.146,0.336-0.243,0.677-0.286,1.013c-0.177,1.419,0.642,2.705,2.459,2.952
	c0.637,0.08,1.047-0.387,1.094-0.769c0.027-0.219-0.06-0.396-0.279-0.423c-0.327-0.041-0.402,0.115-0.876,0.056
	c-1.292-0.162-1.849-1.026-1.722-2.046c0.019-0.146,0.057-0.296,0.102-0.447c1.546,1.062,3.1,2.131,4.757,2.929
	c2.33,1.102,4.608,1.378,6.9,1.135c4.037-0.429,7.803-2.421,12.036-4.254c2.151,1.363,3.356,3.587,3.577,5.673
	c0.28,2.635-0.985,5.052-3.79,5.35c-1.333,0.141-2.564-0.697-2.8-2.92c-0.081-0.753-0.662-0.691-0.662-0.691
	c-0.684,0.072-0.965,0.691-0.884,1.444c0.218,2.051,2.352,2.932,4.61,2.692c4.002-0.425,5.666-2.988,5.373-5.759
	c-0.241-2.258-1.812-4.686-4.563-6.158c3.01-1.288,6.282-2.396,10.045-2.796c2.735-0.291,5.973,0.54,6.736,2.847
	c0,0,0.196,0.222,0.469,0.193C111.82,4.228,112.428,3.438,112.334,2.549 M76.25,1.45c1.675,0.209,2.401,0.91,2.315,1.602
	c-0.112,0.891-1.567,1.727-4.079,1.411c-1.456-0.182-2.909-0.678-4.41-1.236C71.19,1.998,73.284,1.078,76.25,1.45 M37.734,4.462
	c-2.511,0.316-3.966-0.52-4.078-1.411c-0.086-0.692,0.639-1.393,2.315-1.602c2.966-0.373,5.059,0.548,6.174,1.777
	C40.643,3.785,39.19,4.281,37.734,4.462 M31.312,8.122c-3.558-0.379-7.308-2.195-11.261-4.068c1.573-0.801,3.554-1.213,6.017-0.952
	c3.077,0.328,5.916,1.944,7.07,5.076C32.546,8.218,31.927,8.187,31.312,8.122 M43.151,3.732c-0.059-0.093-0.114-0.186-0.182-0.278
	c0.568-0.258,1.429-0.642,2.429-1.054C44.64,2.823,43.89,3.272,43.151,3.732 M57.426,3.937c0.001,0.965-0.264,1.847-1.266,2.606
	c-0.898-0.759-1.268-1.792-1.267-2.765c0.001-0.784,0.316-1.372,0.919-1.983c0.111-0.11,0.231-0.215,0.359-0.312
	c0.061,0.045,0.119,0.093,0.175,0.142l-0.009,0.01C57.11,2.248,57.426,3.066,57.426,3.937 M69.105,3.679
	C68.51,3.31,67.908,2.946,67.301,2.6c0.792,0.334,1.476,0.64,1.951,0.855C69.196,3.529,69.154,3.604,69.105,3.679 M81.032,8.122
	c-0.615,0.065-1.235,0.096-1.827,0.056c1.155-3.132,3.993-4.748,7.071-5.076c2.463-0.261,4.444,0.151,6.016,0.952
	C88.34,5.927,84.59,7.743,81.032,8.122"/>
</svg>
