<?xml version="1.0" encoding="utf-8"?>
<!-- Generator: Adobe Illustrator 16.0.0, SVG Export Plug-In . SVG Version: 6.00 Build 0)  -->
<!DOCTYPE svg PUBLIC "-//W3C//DTD SVG 1.1//EN" "http://www.w3.org/Graphics/SVG/1.1/DTD/svg11.dtd">
<svg version="1.1" id="Layer_1" xmlns="http://www.w3.org/2000/svg" xmlns:xlink="http://www.w3.org/1999/xlink" x="0px" y="0px"
	 width="97.323px" height="26.859px" viewBox="0 0 97.323 26.859" enable-background="new 0 0 97.323 26.859" xml:space="preserve">
<path fill-rule="evenodd" clip-rule="evenodd" fill="#DCC125" d="M-185.305,2.282c0.015,0.36-0.085,0.281,0.255,0.28
	c4.972-1.608,5.175-8.054-0.073-9.787c-5.342-1.763-8.658,3.462-8.713,8.284l-1.246-0.013c0.32-5.811,1.219-4.859,2.694-8.783
	c1.447-3.847-1.593-6.45-3.582-7.654c-2.096,1.248-4.826,3.696-3.715,7.341c0.442,1.45,1.239,2.638,1.894,4.095
	c0.951,2.119,0.472,2.881,0.894,4.942l-1.206,0.092c-0.429-11.707-12.763-10.126-12.624-3.218c0.059,2.877,2.172,4.044,4.078,4.844
	c0.015-1.248-0.474-4.941,2.577-5.26c2.225-0.233,3.841,1.802,4.043,3.834l-1.888,0.022l-0.067,3.413l1.979,0.16
	c-0.323,3.425-4.607,3.589-4.513-0.622c-1.961,0.789-2.161,2.934-2.527,3.618l-2.169-2.534c0.313-0.468,0.947-1.026,0.721-1.993
	c-0.415-1.761-2.852-1.904-3.412-0.246c-0.374,1.107,0.164,1.655,0.718,2.244c-0.559,1.615-3.033,5.138-4.437,5.819
	c0.035-0.042,0.095-0.158,0.111-0.122l0.967-1.407c0.795-2.153-0.747-3.787-3.131-4.201c1.563,2.93-1.667,4.481-3.082,2.002
	c0.722-0.316,0.895-0.299,1.441-0.828l-1.027-2.292c-0.769,0.012-1.121,0.219-1.632,0.54c-0.444-1.91,0.007-3.732,1.725-4.148
	c2.43-0.587,2.761,1.782,3.554,2.878c3.198-2.4,1.307-8.094-3.563-7.143c-4.626,0.903-4.487,6.433-3.155,9.026l-0.73,0.478
	c-3.382-5.42,2.338-9.491-6.293-11.717l10.236,21.458l-0.597,0.247l0.046,2.086l49.578-0.002l-0.134-2.077
	c-0.017,0.038-0.1-0.072-0.123-0.088l-0.367-0.254l7.725-15.991c0.847-1.832,1.981-3.7,2.521-5.379
	c-2.607,0.753-4.535,1.122-4.975,4.003c-0.473,3.098,0.482,5.531-1.414,7.727l-0.641-0.423c1.614-3.911,0.859-8.528-3.27-9.128
	c-4.912-0.714-6.615,4.764-3.316,7.233c1.214-5.003,6.345-3.273,5.172,1.172l-1.563-0.593l-1.111,2.386
	c0.574,0.58,0.889,0.582,1.446,0.913c-1.252,1.845-4.192,1.741-3.149-2.1c-3.033,0.683-3.933,2.302-2.534,5.266
	c-1.362-0.826-3.16-3.639-3.882-5.392c1.642-0.961,1.291-3.124-0.459-3.35c-1.989-0.256-2.592,1.723-1.497,3.187
	c-0.514,1.028-1.454,2.16-2.319,2.778c-0.068-1.797-1.13-3.059-2.354-3.653c-0.002,1.591-0.386,2.918-1.922,3.082
	c-1.804,0.194-2.431-0.924-2.656-2.503c1.56,0.047,2.614,0.763,1.933-3.469l-1.839-0.095c0.1-1.925,1.701-3.972,3.833-3.836
	C-185.653-2.414-185.223-0.243-185.305,2.282 M-195.112,4.7l1.284-0.001c-0.027,1.69,0.329,2.626,0.956,3.946
	c0.622,1.309,1.235,1.852,2.394,2.624c-0.676,0.333-1.617,0.633-2.499,0.659l-1.437-3.217C-194.914,7.495-195.061,6.149-195.112,4.7
	 M-198.896,11.966l-2.577-0.616c1.898-1.226,3.331-3.689,3.37-6.653l1.209,0.004C-197.274,9.853-198.034,8.689-198.896,11.966
	 M-176.06,11.338c4.038,0.665,4.495-1.167,6.367-3.209l0.641,0.398c-0.851,2.51-2.845,3.122-3.623,4.302
	c-0.61-0.321-1.132-0.307-1.827-0.536L-176.06,11.338z M-222.89,8.48l0.653-0.269c1.376,1.309,2.549,4.32,6.391,3.014l-0.216,0.277
	c-0.267,0.237-0.058,0.095-0.387,0.297c-0.186,0.113-0.65,0.323-0.865,0.409c-0.654,0.264-1.395,0.392-2.206,0.463
	c-0.668-1.03-1.747-1.291-2.756-2.82C-222.62,9.329-222.653,8.912-222.89,8.48 M-212.174,10.897
	c-0.827-3.037,3.646-3.874,4.249-1.268C-207.197,12.773-211.512,13.329-212.174,10.897 M-183.967,10.897
	c-0.812-3.134,3.693-3.697,4.248-1.267C-178.995,12.792-183.338,13.318-183.967,10.897 M-176.06,11.338
	c-0.882-0.208-0.479-0.175-0.711-0.526c0.536,0.235,0.059-0.056,0.339,0.164C-176.151,11.196-176.206,11.173-176.06,11.338"/>
<path fill-rule="evenodd" clip-rule="evenodd" fill="#DCC125" d="M-217.138,21.154h-1.787l-0.063,1.807
	c4.411-0.285,18.609-0.03,24.088-0.03l20.96,0.016c1.637-0.023,1.373-0.48,1.31-1.996c-0.682,0.243-1.271,0.197-2.172,0.212
	l-0.021-1.901l-42.243,0.074L-217.138,21.154z"/>
<path fill-rule="evenodd" clip-rule="evenodd" fill="#DCC125" d="M-176.06,11.338c-0.146-0.165-0.092-0.142-0.372-0.362
	c-0.28-0.22,0.197,0.071-0.339-0.164C-176.538,11.163-176.941,11.13-176.06,11.338"/>
<path fill-rule="evenodd" clip-rule="evenodd" fill="#DCC125" d="M-185.049,2.562c-0.341,0.001-0.241,0.08-0.256-0.28l-0.272,0.538
	L-185.049,2.562z"/>
<line fill="none" x1="-157.72" y1="-51" x2="-157.72" y2="790.891"/>
<line fill="none" x1="-157.72" y1="-51" x2="-157.72" y2="790.891"/>
<text transform="matrix(1 0 0 1 -249.5039 22.6294)" font-family="'MyriadPro-Regular'" font-size="12">6.</text>
<line fill="none" x1="-157.72" y1="-51" x2="-157.72" y2="790.891"/>
<line fill="none" x1="-157.72" y1="-51" x2="-157.72" y2="790.891"/>
<path fill-rule="evenodd" clip-rule="evenodd" fill="#DCC125" d="M34.306,16.008c-0.264-0.255-0.389-0.22-0.685-0.446
	c-0.237-0.181-0.351-0.33-0.545-0.596c-1.133-1.558-0.961-3.532-0.104-5.179c0.626-1.202,1.62-2.345,2.552-3.082
	c0.25-0.196,0.363-0.283,0.599-0.466l1.288-0.892c-1.113-0.477-8.965,2.176-10.365,2.628c-0.77,0.249-9.326,2.999-9.828,3.27
	c-0.026,0.382-0.003,0.645,0.189,0.881c0.034,0.042,0.263,0.256,0.314,0.298c0.497,0.403,1.309,0.648,2.008,0.726
	c1.266,0.141,2.732-0.068,3.758-0.583c1.435-0.719,1.168-1.454,2.11-2.386c0.549-0.544,1.835-1.386,2.805-1.653
	c-0.328,0.563-1.339,0.609-0.745,3.255c1.758,0.586,3.585-1.557,4.218-2c-0.528,0.668-1.093,1.235-1.624,2.007
	c-2.176,3.163,1.026,4.987,2.801,4.703c0.26-0.042,0.477-0.124,0.708-0.203L34.306,16.008z M40.621,15.382
	c1.463-0.411,2.653-1.227,3.532-2.026c0.85-0.771,1.823-1.859,2.274-3.286c0.438-1.388,0.517-3.43-0.222-4.642
	c-0.135,1.75,0.407,3.715-0.851,6.084c-0.798,1.504-3.028,3.068-4.254,2.663c-0.916-0.303-1.015-1.795-0.386-2.43
	c0.318-0.32,0.552-0.137,0.602-0.531c-1.2-0.396-2.475,0.277-2.487,1.519c-0.012,1.354,1.167,1.744,2.278,1.833
	c-0.913,0.576-2.669-0.024-3.328-0.496c-1.813-1.299-0.9-4.122,1.295-4.957c0.83-0.315,1.664-0.242,2.336,0.34
	c0.22,0.19,0.11,0.095,0.229,0.297l0.217,0.268c0.38-0.323,0.652-1.647,0.505-2.287c-0.585-2.555-7.376-1.055-8.011,3.36
	C33.779,15.059,37.313,16.313,40.621,15.382 M42.356,19.892c-0.516-0.2-0.929-0.072-1.185-0.509
	c-0.269-0.458-0.206-0.935,0.141-1.199c0.89-0.675,2.636-0.457,3.845,0.408c0.348,0.249,0.532,0.483,0.832,0.767
	c0.185,0.176,1.254,1.605,1.329,1.856c-0.104-0.725-0.867-1.992-1.231-2.486c-0.467-0.633-1.236-1.275-2.186-1.624
	c-3.108-1.14-7.26,0.844-6.226,4.248c0.646,2.125,3.5,2.969,4.844,1.924c0.861-0.668,1.097-1.423,0.726-2.797
	c-0.01,0.018-0.02,0.043-0.026,0.057c-0.12,0.306-0.135,0.604-0.358,0.875c-0.175,0.214-0.493,0.415-0.789,0.504
	c-0.725,0.219-1.52,0.005-2.052-0.319c-1.682-1.025-0.59-2.772,0.259-3.082c-0.178,0.285-0.488,0.472-0.363,1.05
	C40.15,20.644,41.755,20.922,42.356,19.892 M10.219,4.74c2.642-0.192,4.235,1.54,6.904,1.806c-0.107-0.197-0.217-0.246-0.38-0.38
	c-1.42-1.174-3.194-3.956-5.156-3.22C10.9,3.204,10.308,3.867,10.219,4.74 M46.036,26.212c0.357,0.172,1.719,0.189,2.033-0.93
	c0.235-0.84,0.014-1.829-0.177-2.612C47.742,24.798,47.483,25.274,46.036,26.212 M52.372,6.325c1.484-4.573,7.278-2.98,10.85-2.637
	c1.593,0.154,3.066-0.061,4.657-0.054c1.273,0.006,3.259,0.117,4.176,0.736c1.263,0.852-0.972,1.619,3.355,0.966
	c2.496-0.376,3.62-3.054,1.374-3.487C75.827,1.664,75.456,1.9,74.86,2.186c-0.095-3.088,4.081-2.456,5.251-0.845
	c0.733,1.008,0.73,2.174,0.073,3.292c-0.622,1.058-1.39,1.373-2.302,1.907c4.023,1.043,8.004,0.686,11.972-0.152
	c1.44-0.305,7.885-1.901,7.446,1.321c-0.082,0.601-0.767,1.86-1.092,2.222c-0.443-0.167-0.433-0.849-1.9-1.541
	c-2.805-1.322-6.159-0.673-8.854-0.215c0.114,0.877,0.557,1.567-0.631,1.853c-1.717,0.414-5.232-0.899-6.772-1.453
	c-1.327-0.477-2.778-0.982-4.158-1.399c-0.39-0.118-0.799-0.236-1.103-0.337c-0.373-0.124-0.674-0.224-1.046-0.331
	C67.258,5.224,60.43,2.486,55.591,4.097C53.349,4.844,52.98,5.849,52.372,6.325 M63.017,16.008c0.264-0.255,0.388-0.22,0.684-0.446
	c0.237-0.181,0.352-0.33,0.545-0.596c1.133-1.558,0.961-3.532,0.104-5.179c-0.625-1.202-1.62-2.345-2.552-3.082
	c-0.249-0.196-0.362-0.283-0.599-0.466l-1.288-0.892c1.113-0.477,8.966,2.176,10.365,2.628c0.771,0.249,9.327,2.999,9.828,3.27
	c0.026,0.382,0.003,0.645-0.188,0.881c-0.034,0.042-0.263,0.256-0.315,0.298c-0.497,0.403-1.309,0.648-2.008,0.726
	c-1.265,0.141-2.732-0.068-3.757-0.583c-1.436-0.719-1.168-1.454-2.11-2.386c-0.55-0.544-1.835-1.386-2.806-1.653
	c0.328,0.563,1.339,0.609,0.746,3.255c-1.759,0.586-3.586-1.557-4.219-2c0.529,0.668,1.093,1.235,1.624,2.007
	c2.177,3.163-1.025,4.987-2.801,4.703c-0.26-0.042-0.477-0.124-0.708-0.203L63.017,16.008z M56.702,15.382
	c-1.464-0.411-2.653-1.227-3.533-2.026c-0.849-0.771-1.823-1.859-2.273-3.286c-0.439-1.388-0.518-3.43,0.221-4.642
	c0.136,1.75-0.407,3.715,0.851,6.084c0.798,1.504,3.028,3.068,4.254,2.663c0.917-0.303,1.015-1.795,0.386-2.43
	c-0.317-0.32-0.552-0.137-0.602-0.531c1.201-0.396,2.476,0.277,2.487,1.519c0.013,1.354-1.167,1.744-2.277,1.833
	c0.912,0.576,2.668-0.024,3.327-0.496c1.813-1.299,0.9-4.122-1.295-4.957c-0.829-0.315-1.664-0.242-2.336,0.34
	c-0.22,0.19-0.109,0.095-0.228,0.297l-0.218,0.268c-0.379-0.323-0.651-1.647-0.505-2.287c0.585-2.555,7.377-1.055,8.012,3.36
	C63.544,15.059,60.01,16.313,56.702,15.382 M54.967,19.892c0.516-0.2,0.929-0.072,1.185-0.509c0.268-0.458,0.205-0.935-0.142-1.199
	c-0.889-0.675-2.636-0.457-3.845,0.408c-0.348,0.249-0.532,0.483-0.831,0.767c-0.186,0.176-1.254,1.605-1.33,1.856
	c0.105-0.725,0.867-1.992,1.231-2.486c0.467-0.633,1.236-1.275,2.187-1.624c3.108-1.14,7.259,0.844,6.225,4.248
	c-0.646,2.125-3.499,2.969-4.844,1.924c-0.86-0.668-1.097-1.423-0.726-2.797c0.011,0.018,0.021,0.043,0.026,0.057
	c0.12,0.306,0.135,0.604,0.358,0.875c0.176,0.214,0.493,0.415,0.789,0.504c0.726,0.219,1.52,0.005,2.052-0.319
	c1.683-1.025,0.59-2.772-0.259-3.082c0.178,0.285,0.488,0.472,0.363,1.05C57.173,20.644,55.568,20.922,54.967,19.892 M50.121,15.694
	c0.163-0.045,0.891-0.516,1.626,0.162l-0.476,0.548c-1.873,1.816-2.149,3.504-2.603,4.235l-0.007-0.01l-0.007,0.01
	c-0.453-0.731-0.73-2.419-2.603-4.235l-0.476-0.548c0.735-0.678,1.463-0.207,1.626-0.162c-0.126-0.934,0.577-3.131,1.458-4.067
	C49.396,12.308,50.248,14.759,50.121,15.694 M87.104,4.74c-2.641-0.192-4.235,1.54-6.904,1.806c0.108-0.197,0.217-0.246,0.38-0.38
	c1.421-1.174,3.194-3.956,5.156-3.22C86.422,3.204,87.015,3.867,87.104,4.74 M48.674,22.721l0.022,0.17
	c0.132,0.959,0.009,2.114,0.536,2.96c0.149,0.239,0.456,0.464,0.646,0.693c-0.666,0.192-0.962,0.3-1.204,0.314v0.001h-0.013h-0.013
	v-0.001c-0.242-0.014-0.538-0.122-1.203-0.314c0.19-0.229,0.496-0.454,0.645-0.693c0.528-0.846,0.426-2,0.558-2.959
	C48.687,22.649,48.651,22.852,48.674,22.721 M50.301,23.204c0.03-0.044,0.699-0.573-0.3-1.064c-0.306-0.15-0.812-0.23-1.34-0.235
	c-0.528,0.005-1.034,0.085-1.34,0.235c-0.999,0.491-0.33,1.02-0.299,1.064c-1.658-0.224-0.161-1.712,1.626-1.833v-0.002l0.013,0.001
	l0.013-0.001v0.002C50.461,21.492,51.958,22.979,50.301,23.204 M51.286,26.212c-0.356,0.172-1.719,0.189-2.032-0.93
	c-0.236-0.84-0.015-1.829,0.177-2.612C49.58,24.798,49.84,25.274,51.286,26.212 M44.95,6.325c-1.483-4.573-7.277-2.98-10.85-2.637
	c-1.593,0.154-3.066-0.061-4.656-0.054C28.17,3.64,26.185,3.75,25.268,4.37c-1.263,0.852,0.972,1.619-3.356,0.966
	c-2.495-0.376-3.619-3.054-1.374-3.487c0.957-0.185,1.328,0.051,1.924,0.337c0.096-3.088-4.08-2.456-5.251-0.845
	c-0.733,1.008-0.729,2.174-0.073,3.292c0.622,1.058,1.39,1.373,2.303,1.907c-4.024,1.043-8.005,0.686-11.972-0.152
	C6.028,6.083-0.417,4.487,0.021,7.708c0.082,0.601,0.768,1.86,1.094,2.222C1.558,9.764,1.547,9.082,3.014,8.39
	c2.804-1.322,6.16-0.673,8.854-0.215c-0.113,0.877-0.556,1.567,0.631,1.853c1.717,0.414,5.233-0.899,6.772-1.453
	c1.327-0.477,2.778-0.982,4.158-1.399c0.391-0.118,0.799-0.236,1.103-0.337c0.373-0.124,0.674-0.224,1.047-0.331
	c4.486-1.284,11.313-4.022,16.153-2.411C43.973,4.844,44.342,5.849,44.95,6.325"/>
</svg>
